<svg width="279" height="230" viewBox="0 0 279 230" fill="none" xmlns="http://www.w3.org/2000/svg">
<path d="M133.533 0.927248C184.456 0.931783 229.195 34.7408 243.198 83.4646C243.202 83.4793 243.205 83.4947 243.205 83.5102C243.205 83.5998 243.133 83.6724 243.043 83.6735H233.176C233.031 83.6746 232.899 83.5798 232.851 83.4385C226.414 63.9573 215.508 47.7986 200.136 34.9622C181.437 19.3539 157.889 10.8493 133.533 10.8451C109.174 10.841 85.625 19.3415 66.9224 34.9457C51.5439 47.7764 40.6339 63.9297 34.1921 83.406C34.1429 83.5507 34.0103 83.6456 33.8626 83.6441H23.9984C23.9088 83.6434 23.8369 83.5707 23.8369 83.4811C23.8369 83.4656 23.8392 83.4502 23.8438 83.4351C37.859 34.7113 82.6104 0.918933 133.533 0.927248Z" fill="#44372D"/>
<path d="M278.801 92.4451C278.801 97.6677 274.565 101.903 269.343 101.903C264.12 101.903 259.885 97.6677 259.885 92.4451C259.885 87.2226 264.12 82.9873 269.343 82.9873C274.565 82.9873 278.801 87.2226 278.801 92.4451ZM277.626 92.4497C277.625 87.8735 273.915 84.1624 269.338 84.1624C264.762 84.1624 261.052 87.8735 261.052 92.4497C261.052 97.0256 264.762 100.737 269.338 100.737C273.915 100.737 277.626 97.0256 277.626 92.4497H277.626Z" fill="#EC7F36"/>
<path d="M10.3382 87.6664C13.0281 87.6664 16.1387 87.6622 19.6707 87.6538C19.6722 87.6535 19.6733 87.6535 19.6748 87.6535C19.7697 87.6535 19.8463 87.7302 19.8463 87.8251L19.846 93.7291C19.8464 93.8467 19.7508 93.9423 19.6332 93.9423H14.6446C14.6435 93.9423 14.642 93.9423 14.6409 93.9423C14.552 93.9423 14.4798 94.0126 14.4776 94.101C14.4719 94.4495 14.4677 99.7484 14.4651 109.998C14.4651 120.25 14.4678 125.551 14.4734 125.899C14.4757 125.987 14.5478 126.058 14.6366 126.058C14.6378 126.058 14.6393 126.058 14.6409 126.058L19.6287 126.062C19.7466 126.062 19.8422 126.157 19.8422 126.275L19.8377 132.179C19.8358 132.272 19.7598 132.346 19.6664 132.346C16.1345 132.338 13.0239 132.334 10.3337 132.334C7.6468 132.334 4.53588 132.338 1.00126 132.347C0.906776 132.346 0.830078 132.27 0.830078 132.175V126.271C0.830456 126.153 0.925715 126.058 1.04364 126.058L6.03143 126.058C6.12176 126.058 6.19472 125.985 6.19472 125.895C6.20303 125.549 6.20719 120.25 6.20719 109.998C6.20984 99.7484 6.20717 94.4495 6.19885 94.101C6.19885 94.0111 6.12597 93.938 6.03564 93.938H1.0474C0.929858 93.938 0.834212 93.8425 0.834212 93.725V87.821C0.834212 87.7261 0.911353 87.6494 1.00584 87.6494C4.54008 87.6608 7.651 87.6664 10.3382 87.6664Z" fill="#EC7F36"/>
<path d="M267.946 93.2613C267.734 93.2609 267.562 93.4313 267.562 93.6414L267.562 96.0584C267.562 96.0584 267.562 96.0592 267.562 96.0596C267.562 96.2512 267.717 96.4065 267.909 96.4065C267.942 96.4065 267.974 96.402 268.005 96.393C268.529 96.2422 268.795 96.3541 268.804 96.7275C268.804 96.7381 268.804 96.7453 268.804 96.7525C268.799 97.0431 268.6 97.2754 268.36 97.2713C268.354 97.2713 268.349 97.2709 268.343 97.2705C268.277 97.2652 267.393 97.2638 265.693 97.2668C265.455 97.2668 265.262 97.0736 265.262 96.8359V96.6648C265.262 96.4894 265.404 96.3469 265.58 96.3469H266.249C266.383 96.3469 266.491 96.2384 266.491 96.1042L266.492 88.846C266.49 88.7077 266.381 88.5961 266.242 88.5905C265.968 88.5795 265.793 88.581 265.718 88.595C265.694 88.5992 265.67 88.6015 265.646 88.6015C265.436 88.6015 265.261 88.4371 265.249 88.227L265.237 88.022C265.237 88.0164 265.237 88.0134 265.237 88.0104C265.229 87.8025 265.394 87.6282 265.604 87.6206C265.606 87.6206 265.609 87.6206 265.612 87.6206C266.845 87.604 268.262 87.6123 269.862 87.6456C271.994 87.6917 273.127 89.2304 272.537 91.229C272.306 92.0208 271.778 92.5923 270.953 92.9434C270.872 92.977 270.819 93.0564 270.819 93.144C270.819 93.1822 270.829 93.2197 270.848 93.2526L272.508 96.1254C272.59 96.2634 272.733 96.3447 272.886 96.3428H273.09C273.273 96.3428 273.423 96.4863 273.432 96.6689C273.46 97.1984 273.124 97.3907 272.425 97.2456C271.492 97.0577 270.715 95.2096 269.79 93.6332C269.656 93.4026 269.407 93.2609 269.138 93.2613H267.946ZM267.57 88.8751L267.595 92.0027C267.595 92.1482 267.713 92.266 267.859 92.266L269.899 92.2495C270.86 92.2325 271.611 91.4425 271.596 90.4836L271.597 90.3261C271.579 89.3479 270.8 88.5825 269.856 88.5992H269.856L267.834 88.6117C267.688 88.6117 267.57 88.7296 267.57 88.8751H267.57Z" fill="#EC7F36"/>
<path d="M35.417 128.722C35.4159 128.718 35.4136 128.716 35.4106 128.714C35.4023 128.71 35.3913 128.715 35.3864 128.726C35.3849 128.728 35.3842 128.731 35.3838 128.734L35.4839 138.606C35.4862 138.75 35.6037 138.865 35.7477 138.865L39.8742 138.866C40.0061 138.865 40.1127 138.972 40.1127 139.103V144.678C40.1127 144.8 40.0118 144.899 39.887 144.899L23.0157 144.899C22.8634 144.899 22.7397 144.775 22.7397 144.623V139.095C22.7397 138.973 22.8391 138.874 22.9612 138.874H27.2177C27.3289 138.874 27.4184 138.784 27.4184 138.672C27.4101 120.973 27.4127 110.738 27.4267 107.971C27.4297 106.828 26.9739 106.259 26.0597 106.265C24.9111 106.27 23.7753 106.279 22.652 106.29C22.6528 106.29 22.6524 106.29 22.6517 106.29C22.536 106.292 22.4408 106.198 22.4389 106.08C22.4389 106.079 22.4389 106.079 22.4389 106.078L22.4385 100.394C22.4389 100.281 22.5308 100.189 22.6438 100.189C26.3092 100.159 29.1048 100.171 31.0308 100.227C33.8545 100.308 35.0534 101.76 34.6267 104.584C34.6248 104.605 34.6278 104.625 34.6362 104.644C34.6619 104.701 34.7265 104.728 34.7817 104.703C34.8006 104.695 34.8164 104.681 34.8282 104.663C36.2995 102.372 38.3522 100.843 40.9865 100.076C49.9508 97.4674 57.3349 103.158 58.8652 111.947C60.0569 118.771 58.5935 126.753 52.4011 130.825C47.0535 134.342 39.6066 133.919 35.417 128.722ZM35.2288 116.383C35.2624 121.225 37.6874 126.318 43.2316 126.28C48.7803 126.243 51.1342 121.116 51.101 116.274C51.0673 111.432 48.6423 106.34 43.0936 106.378C37.5494 106.415 35.1955 111.541 35.2288 116.383Z" fill="#EC7F36"/>
<path d="M82.5266 127.333C79.8616 131.724 75.9117 133.591 70.677 132.936C65.9435 132.347 62.3394 129.11 61.9716 124.285C61.1689 113.619 74.3269 112.235 81.7276 112.486C81.7307 112.486 81.7337 112.486 81.7363 112.486C81.8648 112.486 81.9702 112.384 81.9744 112.256C82.2337 102.832 71.7179 105.934 67.2399 108.936C67.2195 108.95 67.1946 108.958 67.1693 108.958C67.1243 108.958 67.0823 108.933 67.06 108.894L64.171 103.889C64.0376 103.659 64.1052 103.362 64.3278 103.213C67.7717 100.929 71.6551 99.6871 75.9785 99.4864C84.015 99.1145 89.9776 103.057 90.0108 111.65C90.0358 118.125 90.0483 122.631 90.0483 125.168C90.0483 125.823 90.4274 126.186 91.1855 126.259C92.1697 126.354 93.1286 126.362 94.0625 126.284C94.0651 126.283 94.0682 126.283 94.0712 126.283C94.1982 126.279 94.3047 126.376 94.3089 126.501C94.3093 126.504 94.3092 126.506 94.3092 126.509L94.3089 132.05C94.3093 132.049 94.3092 132.049 94.3092 132.049C94.3092 132.191 94.1955 132.306 94.0541 132.309C89.569 132.354 86.8413 132.34 85.8715 132.267C84.1794 132.142 83.1105 131.301 82.6645 129.746C82.606 129.54 82.606 128.749 82.6645 127.375C82.6645 127.375 82.6645 127.375 82.6645 127.375C82.6645 127.333 82.6309 127.3 82.5893 127.3C82.564 127.3 82.5406 127.312 82.5266 127.333ZM81.7654 117.432C78.337 117.236 69.4475 117.779 70.0625 123.098C70.5806 127.534 75.6861 127.961 78.546 125.615C80.9181 123.669 82.0806 121.037 82.033 117.717C82.033 117.568 81.9174 117.443 81.7688 117.432L81.7654 117.432Z" fill="#EC7F36"/>
<path d="M109.654 106.227C113.328 100.476 118.569 98.4054 125.376 100.014C129.987 101.101 132.011 105.834 132.107 110.4C132.205 115.172 132.219 120.4 132.149 126.083C132.149 126.084 132.149 126.086 132.149 126.087C132.149 126.212 132.25 126.313 132.375 126.313L136.585 126.313C136.708 126.313 136.807 126.412 136.807 126.534L136.807 132.071C136.807 132.214 136.691 132.33 136.548 132.33L124.293 132.33C124.207 132.33 124.138 132.259 124.138 132.171C124.152 123.43 124.149 116.687 124.13 111.943C124.127 111.36 123.964 110.603 123.64 109.672C122.913 107.578 121.073 106.762 118.937 106.842C113.463 107.042 110.307 111.968 110.052 117.031C109.915 119.707 109.893 122.755 109.985 126.175C109.987 126.252 110.05 126.313 110.127 126.313L114.358 126.313C114.467 126.313 114.555 126.401 114.555 126.51L114.554 132.096C114.555 132.225 114.45 132.33 114.321 132.33H97.5122C97.3947 132.33 97.2991 132.236 97.2991 132.121L97.2987 126.526C97.2991 126.411 97.3947 126.317 97.5122 126.317L101.76 126.318C101.859 126.317 101.94 126.237 101.94 126.137C101.932 120.671 101.932 114.549 101.94 107.77C101.94 106.712 101.413 106.244 100.351 106.265C99.6012 106.279 98.5671 106.284 97.2488 106.281C97.1033 106.281 96.9854 106.163 96.9854 106.018V100.453C96.9854 100.303 97.107 100.181 97.2571 100.181C100.053 100.167 102.825 100.175 105.573 100.206C109.642 100.248 109.796 102.982 109.567 106.198C109.565 106.202 109.564 106.207 109.564 106.212C109.564 106.238 109.585 106.258 109.611 106.258C109.631 106.258 109.648 106.246 109.654 106.227Z" fill="#EC7F36"/>
<path d="M147.515 117.437C147.515 117.436 147.514 117.437 147.514 117.437C147.45 117.437 147.397 117.489 147.397 117.553C147.397 117.558 147.397 117.562 147.398 117.566C147.682 120.839 149.12 123.281 151.713 124.892C156.099 127.614 161.986 126.029 165.967 123.056C166.004 123.028 166.05 123.012 166.097 123.012C166.174 123.012 166.245 123.053 166.284 123.119L169.286 128.325C169.317 128.377 169.334 128.438 169.334 128.499C169.334 128.606 169.284 128.707 169.199 128.772C158.336 136.917 140.666 133.513 139.194 117.926C138.061 105.892 147.686 97.233 159.469 99.955C167.229 101.749 170.574 109.877 169.542 117.173C169.52 117.323 169.39 117.436 169.236 117.437L147.515 117.437ZM161.401 112.532C161.348 111.158 161.005 109.895 160.372 108.744C158.219 104.826 152.967 104.914 150.07 107.728C148.799 108.963 147.981 110.52 147.615 112.398C147.612 112.412 147.611 112.426 147.611 112.44C147.611 112.565 147.712 112.666 147.837 112.666H161.271C161.343 112.666 161.401 112.608 161.401 112.536C161.401 112.535 161.401 112.533 161.401 112.532H161.401Z" fill="#EC7F36"/>
<path d="M185.811 106.302C185.81 106.305 185.81 106.309 185.81 106.313C185.81 106.369 185.855 106.413 185.91 106.413C185.947 106.413 185.981 106.393 185.999 106.36C188.754 101.414 193.693 98.6545 199.333 99.7498C202.678 100.402 204.944 103.019 205.659 106.218C205.67 106.275 205.72 106.316 205.778 106.316C205.826 106.316 205.869 106.287 205.889 106.243C206.446 105.101 207.192 104.082 208.126 103.187C211.666 99.7918 215.858 98.7297 220.703 100.001C225.286 101.201 227.171 105.955 227.238 110.525C227.333 117.017 227.337 122.178 227.251 126.008C227.251 126.01 227.251 126.011 227.251 126.012C227.251 126.178 227.387 126.313 227.556 126.313C227.556 126.313 227.557 126.313 227.558 126.313L231.699 126.313C231.843 126.313 231.959 126.429 231.959 126.572V132.058C231.959 132.208 231.839 132.329 231.691 132.329L219.449 132.33C219.338 132.329 219.248 132.238 219.248 132.125C219.242 128.671 219.241 122.317 219.244 113.063C219.244 109.346 218.236 106.118 213.645 106.946C209.021 107.778 206.993 112.682 206.83 116.985C206.738 119.388 206.725 122.441 206.792 126.146C206.794 126.241 206.872 126.317 206.967 126.317L211.208 126.317C211.313 126.317 211.4 126.403 211.4 126.509L211.4 132.146C211.4 132.247 211.317 132.329 211.216 132.329L198.957 132.33C198.848 132.33 198.76 132.242 198.76 132.133C198.785 123.841 198.778 117.115 198.739 111.955C198.731 110.782 198.498 109.716 198.041 108.761C197 106.599 194.127 106.524 192.183 107.222C187.897 108.764 186.317 114.033 186.296 118.227C186.279 121.159 186.278 123.763 186.291 126.037C186.291 126.189 186.415 126.313 186.567 126.313L190.557 126.313C190.727 126.313 190.866 126.451 190.866 126.622V132.167C190.866 132.257 190.793 132.329 190.703 132.329L173.748 132.33C173.637 132.329 173.547 132.239 173.547 132.129V126.577C173.547 126.433 173.663 126.317 173.806 126.317H177.958C178.117 126.317 178.247 126.186 178.247 126.024C178.244 125.576 178.246 119.49 178.251 107.765C178.251 106.784 177.828 106.291 176.98 106.285C175.347 106.274 174.169 106.271 173.447 106.277C173.345 106.277 173.263 106.194 173.263 106.093L173.263 100.469C173.264 100.316 173.388 100.194 173.541 100.193C176.581 100.151 179.462 100.169 182.186 100.247C186.087 100.356 186.082 103.329 185.811 106.302Z" fill="#EC7F36"/>
<path d="M254.533 127.375C254.533 127.375 254.533 127.375 254.533 127.375C254.533 127.333 254.5 127.3 254.458 127.3C254.433 127.3 254.409 127.312 254.395 127.334C251.73 131.724 247.781 133.59 242.546 132.932C237.817 132.338 234.213 129.102 233.849 124.277C233.05 113.615 246.204 112.235 253.605 112.49C253.608 112.491 253.611 112.491 253.613 112.491C253.742 112.491 253.847 112.388 253.851 112.26C254.115 102.836 243.599 105.934 239.121 108.932C239.1 108.946 239.076 108.954 239.05 108.954C239.005 108.954 238.963 108.929 238.941 108.89L236.056 103.885C235.923 103.655 235.99 103.358 236.213 103.209C239.657 100.928 243.541 99.6888 247.864 99.4908C255.896 99.123 261.859 103.066 261.888 111.658C261.91 118.131 261.92 122.635 261.917 125.172C261.917 125.827 262.296 126.191 263.055 126.263C264.038 126.361 264.997 126.371 265.931 126.293C265.938 126.292 265.941 126.291 265.944 126.291C266.071 126.289 266.175 126.389 266.178 126.513C266.178 126.516 266.178 126.519 266.178 126.522L266.174 132.054C266.173 132.054 266.173 132.054 266.173 132.054C266.173 132.196 266.06 132.311 265.918 132.313C261.433 132.358 258.707 132.343 257.74 132.267C256.048 132.142 254.979 131.302 254.533 129.746C254.475 129.54 254.475 128.75 254.533 127.375ZM253.643 117.433C250.214 117.236 241.32 117.784 241.939 123.102C242.458 127.538 247.563 127.965 250.423 125.615C252.795 123.67 253.958 121.037 253.91 117.717C253.91 117.569 253.795 117.443 253.646 117.432L253.643 117.433Z" fill="#EC7F36"/>
<path d="M189.716 144.828C189.716 144.826 189.716 144.827 189.716 144.828C189.718 144.966 189.61 145.08 189.474 145.083C189.473 145.083 189.472 145.083 189.472 145.083L187.358 145.083C187.201 145.083 187.073 144.955 187.073 144.798C187.069 143.544 187.161 142.52 185.806 141.968C183.036 140.845 180.526 140.997 178.276 142.424C174.367 144.903 174.082 151.556 177.574 154.641C179.859 156.662 182.651 157.063 185.949 155.845C187.199 155.385 187.483 154.395 187.295 153.207C187.292 153.186 187.29 153.165 187.29 153.144C187.29 152.92 187.472 152.739 187.695 152.739C187.696 152.739 187.696 152.739 187.696 152.739L189.62 152.739C189.816 152.739 189.975 152.898 189.975 153.094L189.975 155.628C189.974 155.748 189.941 155.861 189.88 155.958C188.595 158.087 186.057 158.747 183.712 158.948C177.795 159.462 172.882 155.942 172.289 149.929C171.703 144.004 175.713 139.083 181.692 138.798C184.28 138.673 188.411 139.346 189.624 141.889C189.651 141.949 189.667 142.014 189.67 142.081L189.716 144.828Z" fill="#44372D"/>
<path d="M209.882 144.41C209.811 140.408 212.102 138.472 215.982 138.987C216.163 139.01 216.299 139.164 216.3 139.346V140.977C216.3 140.985 216.3 140.995 216.299 141.004C216.284 141.172 216.134 141.296 215.964 141.281C215.955 141.281 215.946 141.279 215.937 141.278C213.695 140.877 212.299 142.282 212.683 144.439C212.706 144.564 212.815 144.656 212.942 144.656L219.135 144.656C219.135 144.656 219.135 144.656 219.135 144.656C219.267 144.656 219.375 144.55 219.377 144.418C219.389 143.345 219.45 142.611 219.561 142.215C220.373 139.347 222.977 138.648 225.645 138.995C225.698 139.001 225.737 139.046 225.737 139.099C225.737 139.099 225.737 139.099 225.737 139.099L225.737 141.128C225.737 141.128 225.737 141.128 225.737 141.128C225.737 141.205 225.675 141.266 225.599 141.266C225.593 141.266 225.588 141.266 225.582 141.265C223.076 140.953 221.946 142.007 222.192 144.427C222.209 144.561 222.32 144.659 222.45 144.656L225.223 144.656C225.387 144.656 225.52 144.789 225.52 144.953V146.567C225.52 146.694 225.416 146.797 225.289 146.797L222.371 146.797C222.255 146.797 222.162 146.89 222.162 147.006L222.162 156.326C222.162 156.446 222.259 156.543 222.379 156.543L224.483 156.544C224.6 156.543 224.696 156.639 224.696 156.756V158.438C224.696 158.571 224.587 158.68 224.453 158.68L217.354 158.68C217.238 158.68 217.144 158.584 217.144 158.467L217.145 156.749C217.144 156.637 217.234 156.547 217.345 156.547L219.143 156.548C219.275 156.547 219.381 156.442 219.381 156.313V147.044C219.381 146.905 219.269 146.792 219.131 146.792L212.892 146.793C212.754 146.793 212.641 146.903 212.641 147.039L212.642 156.284C212.642 156.43 212.758 156.547 212.9 156.547L214.954 156.548C215.09 156.547 215.2 156.658 215.2 156.794V158.417C215.2 158.562 215.082 158.68 214.937 158.68L207.913 158.68C207.801 158.68 207.711 158.59 207.711 158.479L207.712 156.728C207.712 156.626 207.794 156.543 207.896 156.543L209.677 156.544C209.79 156.543 209.882 156.453 209.882 156.343L209.882 147.027C209.882 146.898 209.777 146.792 209.648 146.792L207.825 146.793C207.674 146.793 207.553 146.671 207.553 146.521L207.553 144.987C207.553 144.802 207.705 144.652 207.891 144.652H209.648C209.65 144.652 209.651 144.652 209.652 144.652C209.781 144.65 209.884 144.541 209.882 144.41C209.882 144.409 209.882 144.408 209.882 144.408V144.41Z" fill="#44372D"/>
<path d="M191.363 151.651C191.364 147.571 194.774 144.263 198.978 144.263C203.182 144.263 206.592 147.572 206.591 151.652C206.591 155.732 203.181 159.04 198.977 159.039C194.772 159.039 191.363 155.73 191.363 151.651V151.651ZM199.017 146.688C199.06 146.689 199.06 146.689 199.06 146.689C196.424 146.643 194.247 148.828 194.199 151.567C194.151 154.308 196.25 156.567 198.886 156.614C198.886 156.614 198.886 156.614 198.886 156.614C201.523 156.66 203.699 154.475 203.747 151.735C203.795 148.994 201.696 146.735 199.06 146.689L199.017 146.688Z" fill="#44372D"/>
<path d="M229.358 151.961C229.341 151.96 229.321 151.962 229.301 151.964C229.058 151.994 228.885 152.213 228.915 152.454C228.917 152.474 228.921 152.493 228.926 152.513C229.724 155.52 231.592 156.863 234.53 156.539C235.584 156.422 236.619 155.975 237.637 155.197C237.689 155.157 237.753 155.135 237.819 155.135C237.926 155.135 238.026 155.192 238.08 155.285L238.937 156.769C239.029 156.932 238.986 157.137 238.837 157.245C234.81 160.118 229.036 159.629 226.761 154.783C225.775 152.68 225.929 149.506 227.226 147.483C230.897 141.75 240.275 144.004 239.154 151.739C239.137 151.867 239.029 151.962 238.903 151.96L229.358 151.961ZM229.27 150.197L236.395 150.146C236.423 150.146 236.445 150.124 236.445 150.096V150.054C236.445 150.079 236.445 150.079 236.445 150.079C236.445 148.112 234.827 146.516 232.832 146.516H232.832C230.837 146.516 229.22 148.112 229.22 150.079L229.22 150.146C229.22 150.174 229.242 150.196 229.27 150.196L229.27 150.197Z" fill="#44372D"/>
<path d="M243.578 151.957C243.562 151.956 243.541 151.957 243.521 151.96C243.278 151.99 243.105 152.209 243.135 152.45C243.137 152.47 243.141 152.489 243.146 152.509C243.941 155.514 245.808 156.856 248.746 156.535C249.797 156.421 250.832 155.975 251.853 155.197C251.905 155.157 251.97 155.135 252.036 155.135C252.143 155.135 252.242 155.192 252.296 155.285L253.149 156.769C253.181 156.824 253.198 156.887 253.198 156.952C253.198 157.068 253.142 157.177 253.048 157.246C249.022 160.114 243.248 159.621 240.978 154.775C239.995 152.672 240.154 149.498 241.45 147.479C245.125 141.75 254.499 144.012 253.37 151.744C253.353 151.871 253.245 151.966 253.119 151.965L243.578 151.957ZM243.486 150.188L250.603 150.155C250.603 150.154 250.603 150.154 250.603 150.154C250.632 150.154 250.657 150.13 250.657 150.1C250.657 150.098 250.657 150.097 250.657 150.096L250.657 150.071C250.656 148.117 249.039 146.518 247.046 146.516C247.046 146.516 247.044 146.516 247.044 146.516C245.049 146.516 243.432 148.117 243.432 150.091C243.432 150.092 243.432 150.093 243.432 150.094V150.138C243.434 150.166 243.457 150.188 243.486 150.188H243.486V150.188Z" fill="#44372D"/>
<path d="M265.103 148.649C265.098 148.785 264.985 148.892 264.848 148.891L262.9 148.892C262.899 148.891 262.899 148.891 262.898 148.891C262.769 148.891 262.664 148.787 262.664 148.658C262.664 148.641 262.666 148.624 262.669 148.607C263.347 145.664 256.954 145.931 257.945 148.754C258.123 149.264 258.658 149.682 259.55 150.008C261.262 150.635 262.6 151.175 263.565 151.626C266.709 153.098 266.203 157.279 263.167 158.433C260.923 159.284 258.705 159.224 256.511 158.254C254.813 157.501 254.332 156.184 254.562 154.373C254.583 154.213 254.719 154.094 254.88 154.093L256.745 154.093C256.878 154.094 256.986 154.202 256.986 154.336C256.986 154.348 256.985 154.361 256.983 154.373C256.879 155.005 256.954 155.803 257.669 156.167C258.986 156.844 262.377 157.288 262.879 155.231C263.31 153.483 259.76 152.592 258.037 151.948C253.688 150.33 254.211 145.279 258.723 144.447C260.508 144.117 263.485 144.33 264.71 145.894C265.287 146.63 265.132 147.922 265.103 148.649Z" fill="#44372D"/>
<path d="M232.189 171.78C232.204 171.78 232.22 171.782 232.235 171.786C232.333 171.812 232.392 171.911 232.366 172.007C232.362 172.023 232.356 172.037 232.348 172.051C206.591 216.41 154.368 238.587 104.436 225.354C70.0541 216.243 41.8184 191.666 28.1123 158.768C28.1048 158.748 28.1006 158.726 28.1006 158.705C28.1006 158.613 28.175 158.538 28.2673 158.538L38.6659 158.538C38.7888 158.538 38.9013 158.609 38.9543 158.722C51.452 185.528 74.8 206.099 103.194 214.683C147.674 228.13 195.231 210.736 220.72 171.985C220.806 171.856 220.95 171.78 221.104 171.78L232.189 171.78Z" fill="#44372D"/>
<path d="M133.533 0.927248C184.456 0.931783 229.195 34.7408 243.198 83.4646C243.202 83.4793 243.205 83.4947 243.205 83.5102C243.205 83.5998 243.133 83.6724 243.043 83.6735H233.176C233.031 83.6746 232.899 83.5798 232.851 83.4385C226.414 63.9573 215.508 47.7986 200.136 34.9622C181.437 19.3539 157.889 10.8493 133.533 10.8451C109.174 10.841 85.625 19.3415 66.9224 34.9457C51.5439 47.7764 40.6339 63.9297 34.1921 83.406C34.1429 83.5507 34.0103 83.6456 33.8626 83.6441H23.9984C23.9088 83.6434 23.8369 83.5707 23.8369 83.4811C23.8369 83.4656 23.8392 83.4502 23.8438 83.4351C37.859 34.7113 82.6104 0.918933 133.533 0.927248Z" fill="#44372D"/>
<path d="M278.801 92.4451C278.801 97.6677 274.565 101.903 269.343 101.903C264.12 101.903 259.885 97.6677 259.885 92.4451C259.885 87.2226 264.12 82.9873 269.343 82.9873C274.565 82.9873 278.801 87.2226 278.801 92.4451ZM277.626 92.4497C277.625 87.8735 273.915 84.1624 269.338 84.1624C264.762 84.1624 261.052 87.8735 261.052 92.4497C261.052 97.0256 264.762 100.737 269.338 100.737C273.915 100.737 277.626 97.0256 277.626 92.4497H277.626Z" fill="#EC7F36"/>
<path d="M10.3382 87.6664C13.0281 87.6664 16.1387 87.6622 19.6707 87.6538C19.6722 87.6535 19.6733 87.6535 19.6748 87.6535C19.7697 87.6535 19.8463 87.7302 19.8463 87.8251L19.846 93.7291C19.8464 93.8467 19.7508 93.9423 19.6332 93.9423H14.6446C14.6435 93.9423 14.642 93.9423 14.6409 93.9423C14.552 93.9423 14.4798 94.0126 14.4776 94.101C14.4719 94.4495 14.4677 99.7484 14.4651 109.998C14.4651 120.25 14.4678 125.551 14.4734 125.899C14.4757 125.987 14.5478 126.058 14.6366 126.058C14.6378 126.058 14.6393 126.058 14.6409 126.058L19.6287 126.062C19.7466 126.062 19.8422 126.157 19.8422 126.275L19.8377 132.179C19.8358 132.272 19.7598 132.346 19.6664 132.346C16.1345 132.338 13.0239 132.334 10.3337 132.334C7.6468 132.334 4.53588 132.338 1.00126 132.347C0.906776 132.346 0.830078 132.27 0.830078 132.175V126.271C0.830456 126.153 0.925715 126.058 1.04364 126.058L6.03143 126.058C6.12176 126.058 6.19472 125.985 6.19472 125.895C6.20303 125.549 6.20719 120.25 6.20719 109.998C6.20984 99.7484 6.20717 94.4495 6.19885 94.101C6.19885 94.0111 6.12597 93.938 6.03564 93.938H1.0474C0.929858 93.938 0.834212 93.8425 0.834212 93.725V87.821C0.834212 87.7261 0.911353 87.6494 1.00584 87.6494C4.54008 87.6608 7.651 87.6664 10.3382 87.6664Z" fill="#EC7F36"/>
<path d="M267.946 93.2613C267.734 93.2609 267.562 93.4313 267.562 93.6414L267.562 96.0584C267.562 96.0584 267.562 96.0592 267.562 96.0596C267.562 96.2512 267.717 96.4065 267.909 96.4065C267.942 96.4065 267.974 96.402 268.005 96.393C268.529 96.2422 268.795 96.3541 268.804 96.7275C268.804 96.7381 268.804 96.7453 268.804 96.7525C268.799 97.0431 268.6 97.2754 268.36 97.2713C268.354 97.2713 268.349 97.2709 268.343 97.2705C268.277 97.2652 267.393 97.2638 265.693 97.2668C265.455 97.2668 265.262 97.0736 265.262 96.8359V96.6648C265.262 96.4894 265.404 96.3469 265.58 96.3469H266.249C266.383 96.3469 266.491 96.2384 266.491 96.1042L266.492 88.846C266.49 88.7077 266.381 88.5961 266.242 88.5905C265.968 88.5795 265.793 88.581 265.718 88.595C265.694 88.5992 265.67 88.6015 265.646 88.6015C265.436 88.6015 265.261 88.4371 265.249 88.227L265.237 88.022C265.237 88.0164 265.237 88.0134 265.237 88.0104C265.229 87.8025 265.394 87.6282 265.604 87.6206C265.606 87.6206 265.609 87.6206 265.612 87.6206C266.845 87.604 268.262 87.6123 269.862 87.6456C271.994 87.6917 273.127 89.2304 272.537 91.229C272.306 92.0208 271.778 92.5923 270.953 92.9434C270.872 92.977 270.819 93.0564 270.819 93.144C270.819 93.1822 270.829 93.2197 270.848 93.2526L272.508 96.1254C272.59 96.2634 272.733 96.3447 272.886 96.3428H273.09C273.273 96.3428 273.423 96.4863 273.432 96.6689C273.46 97.1984 273.124 97.3907 272.425 97.2456C271.492 97.0577 270.715 95.2096 269.79 93.6332C269.656 93.4026 269.407 93.2609 269.138 93.2613H267.946ZM267.57 88.8751L267.595 92.0027C267.595 92.1482 267.713 92.266 267.859 92.266L269.899 92.2495C270.86 92.2325 271.611 91.4425 271.596 90.4836L271.597 90.3261C271.579 89.3479 270.8 88.5825 269.856 88.5992H269.856L267.834 88.6117C267.688 88.6117 267.57 88.7296 267.57 88.8751H267.57Z" fill="#EC7F36"/>
<path d="M35.417 128.722C35.4159 128.718 35.4136 128.716 35.4106 128.714C35.4023 128.71 35.3913 128.715 35.3864 128.726C35.3849 128.728 35.3842 128.731 35.3838 128.734L35.4839 138.606C35.4862 138.75 35.6037 138.865 35.7477 138.865L39.8742 138.866C40.0061 138.865 40.1127 138.972 40.1127 139.103V144.678C40.1127 144.8 40.0118 144.899 39.887 144.899L23.0157 144.899C22.8634 144.899 22.7397 144.775 22.7397 144.623V139.095C22.7397 138.973 22.8391 138.874 22.9612 138.874H27.2177C27.3289 138.874 27.4184 138.784 27.4184 138.672C27.4101 120.973 27.4127 110.738 27.4267 107.971C27.4297 106.828 26.9739 106.259 26.0597 106.265C24.9111 106.27 23.7753 106.279 22.652 106.29C22.6528 106.29 22.6524 106.29 22.6517 106.29C22.536 106.292 22.4408 106.198 22.4389 106.08C22.4389 106.079 22.4389 106.079 22.4389 106.078L22.4385 100.394C22.4389 100.281 22.5308 100.189 22.6438 100.189C26.3092 100.159 29.1048 100.171 31.0308 100.227C33.8545 100.308 35.0534 101.76 34.6267 104.584C34.6248 104.605 34.6278 104.625 34.6362 104.644C34.6619 104.701 34.7265 104.728 34.7817 104.703C34.8006 104.695 34.8164 104.681 34.8282 104.663C36.2995 102.372 38.3522 100.843 40.9865 100.076C49.9508 97.4674 57.3349 103.158 58.8652 111.947C60.0569 118.771 58.5935 126.753 52.4011 130.825C47.0535 134.342 39.6066 133.919 35.417 128.722ZM35.2288 116.383C35.2624 121.225 37.6874 126.318 43.2316 126.28C48.7803 126.243 51.1342 121.116 51.101 116.274C51.0673 111.432 48.6423 106.34 43.0936 106.378C37.5494 106.415 35.1955 111.541 35.2288 116.383Z" fill="#EC7F36"/>
<path d="M82.5266 127.333C79.8616 131.724 75.9117 133.591 70.677 132.936C65.9435 132.347 62.3394 129.11 61.9716 124.285C61.1689 113.619 74.3269 112.235 81.7276 112.486C81.7307 112.486 81.7337 112.486 81.7363 112.486C81.8648 112.486 81.9702 112.384 81.9744 112.256C82.2337 102.832 71.7179 105.934 67.2399 108.936C67.2195 108.95 67.1946 108.958 67.1693 108.958C67.1243 108.958 67.0823 108.933 67.06 108.894L64.171 103.889C64.0376 103.659 64.1052 103.362 64.3278 103.213C67.7717 100.929 71.6551 99.6871 75.9785 99.4864C84.015 99.1145 89.9776 103.057 90.0108 111.65C90.0358 118.125 90.0483 122.631 90.0483 125.168C90.0483 125.823 90.4274 126.186 91.1855 126.259C92.1697 126.354 93.1286 126.362 94.0625 126.284C94.0651 126.283 94.0682 126.283 94.0712 126.283C94.1982 126.279 94.3047 126.376 94.3089 126.501C94.3093 126.504 94.3092 126.506 94.3092 126.509L94.3089 132.05C94.3093 132.049 94.3092 132.049 94.3092 132.049C94.3092 132.191 94.1955 132.306 94.0541 132.309C89.569 132.354 86.8413 132.34 85.8715 132.267C84.1794 132.142 83.1105 131.301 82.6645 129.746C82.606 129.54 82.606 128.749 82.6645 127.375C82.6645 127.375 82.6645 127.375 82.6645 127.375C82.6645 127.333 82.6309 127.3 82.5893 127.3C82.564 127.3 82.5406 127.312 82.5266 127.333ZM81.7654 117.432C78.337 117.236 69.4475 117.779 70.0625 123.098C70.5806 127.534 75.6861 127.961 78.546 125.615C80.9181 123.669 82.0806 121.037 82.033 117.717C82.033 117.568 81.9174 117.443 81.7688 117.432L81.7654 117.432Z" fill="#EC7F36"/>
<path d="M109.654 106.227C113.328 100.476 118.569 98.4054 125.376 100.014C129.987 101.101 132.011 105.834 132.107 110.4C132.205 115.172 132.219 120.4 132.149 126.083C132.149 126.084 132.149 126.086 132.149 126.087C132.149 126.212 132.25 126.313 132.375 126.313L136.585 126.313C136.708 126.313 136.807 126.412 136.807 126.534L136.807 132.071C136.807 132.214 136.691 132.33 136.548 132.33L124.293 132.33C124.207 132.33 124.138 132.259 124.138 132.171C124.152 123.43 124.149 116.687 124.13 111.943C124.127 111.36 123.964 110.603 123.64 109.672C122.913 107.578 121.073 106.762 118.937 106.842C113.463 107.042 110.307 111.968 110.052 117.031C109.915 119.707 109.893 122.755 109.985 126.175C109.987 126.252 110.05 126.313 110.127 126.313L114.358 126.313C114.467 126.313 114.555 126.401 114.555 126.51L114.554 132.096C114.555 132.225 114.45 132.33 114.321 132.33H97.5122C97.3947 132.33 97.2991 132.236 97.2991 132.121L97.2987 126.526C97.2991 126.411 97.3947 126.317 97.5122 126.317L101.76 126.318C101.859 126.317 101.94 126.237 101.94 126.137C101.932 120.671 101.932 114.549 101.94 107.77C101.94 106.712 101.413 106.244 100.351 106.265C99.6012 106.279 98.5671 106.284 97.2488 106.281C97.1033 106.281 96.9854 106.163 96.9854 106.018V100.453C96.9854 100.303 97.107 100.181 97.2571 100.181C100.053 100.167 102.825 100.175 105.573 100.206C109.642 100.248 109.796 102.982 109.567 106.198C109.565 106.202 109.564 106.207 109.564 106.212C109.564 106.238 109.585 106.258 109.611 106.258C109.631 106.258 109.648 106.246 109.654 106.227Z" fill="#EC7F36"/>
<path d="M147.515 117.437C147.515 117.436 147.514 117.437 147.514 117.437C147.45 117.437 147.397 117.489 147.397 117.553C147.397 117.558 147.397 117.562 147.398 117.566C147.682 120.839 149.12 123.281 151.713 124.892C156.099 127.614 161.986 126.029 165.967 123.056C166.004 123.028 166.05 123.012 166.097 123.012C166.174 123.012 166.245 123.053 166.284 123.119L169.286 128.325C169.317 128.377 169.334 128.438 169.334 128.499C169.334 128.606 169.284 128.707 169.199 128.772C158.336 136.917 140.666 133.513 139.194 117.926C138.061 105.892 147.686 97.233 159.469 99.955C167.229 101.749 170.574 109.877 169.542 117.173C169.52 117.323 169.39 117.436 169.236 117.437L147.515 117.437ZM161.401 112.532C161.348 111.158 161.005 109.895 160.372 108.744C158.219 104.826 152.967 104.914 150.07 107.728C148.799 108.963 147.981 110.52 147.615 112.398C147.612 112.412 147.611 112.426 147.611 112.44C147.611 112.565 147.712 112.666 147.837 112.666H161.271C161.343 112.666 161.401 112.608 161.401 112.536C161.401 112.535 161.401 112.533 161.401 112.532H161.401Z" fill="#EC7F36"/>
<path d="M185.811 106.302C185.81 106.305 185.81 106.309 185.81 106.313C185.81 106.369 185.855 106.413 185.91 106.413C185.947 106.413 185.981 106.393 185.999 106.36C188.754 101.414 193.693 98.6545 199.333 99.7498C202.678 100.402 204.944 103.019 205.659 106.218C205.67 106.275 205.72 106.316 205.778 106.316C205.826 106.316 205.869 106.287 205.889 106.243C206.446 105.101 207.192 104.082 208.126 103.187C211.666 99.7918 215.858 98.7297 220.703 100.001C225.286 101.201 227.171 105.955 227.238 110.525C227.333 117.017 227.337 122.178 227.251 126.008C227.251 126.01 227.251 126.011 227.251 126.012C227.251 126.178 227.387 126.313 227.556 126.313C227.556 126.313 227.557 126.313 227.558 126.313L231.699 126.313C231.843 126.313 231.959 126.429 231.959 126.572V132.058C231.959 132.208 231.839 132.329 231.691 132.329L219.449 132.33C219.338 132.329 219.248 132.238 219.248 132.125C219.242 128.671 219.241 122.317 219.244 113.063C219.244 109.346 218.236 106.118 213.645 106.946C209.021 107.778 206.993 112.682 206.83 116.985C206.738 119.388 206.725 122.441 206.792 126.146C206.794 126.241 206.872 126.317 206.967 126.317L211.208 126.317C211.313 126.317 211.4 126.403 211.4 126.509L211.4 132.146C211.4 132.247 211.317 132.329 211.216 132.329L198.957 132.33C198.848 132.33 198.76 132.242 198.76 132.133C198.785 123.841 198.778 117.115 198.739 111.955C198.731 110.782 198.498 109.716 198.041 108.761C197 106.599 194.127 106.524 192.183 107.222C187.897 108.764 186.317 114.033 186.296 118.227C186.279 121.159 186.278 123.763 186.291 126.037C186.291 126.189 186.415 126.313 186.567 126.313L190.557 126.313C190.727 126.313 190.866 126.451 190.866 126.622V132.167C190.866 132.257 190.793 132.329 190.703 132.329L173.748 132.33C173.637 132.329 173.547 132.239 173.547 132.129V126.577C173.547 126.433 173.663 126.317 173.806 126.317H177.958C178.117 126.317 178.247 126.186 178.247 126.024C178.244 125.576 178.246 119.49 178.251 107.765C178.251 106.784 177.828 106.291 176.98 106.285C175.347 106.274 174.169 106.271 173.447 106.277C173.345 106.277 173.263 106.194 173.263 106.093L173.263 100.469C173.264 100.316 173.388 100.194 173.541 100.193C176.581 100.151 179.462 100.169 182.186 100.247C186.087 100.356 186.082 103.329 185.811 106.302Z" fill="#EC7F36"/>
<path d="M254.533 127.375C254.533 127.375 254.533 127.375 254.533 127.375C254.533 127.333 254.5 127.3 254.458 127.3C254.433 127.3 254.409 127.312 254.395 127.334C251.73 131.724 247.781 133.59 242.546 132.932C237.817 132.338 234.213 129.102 233.849 124.277C233.05 113.615 246.204 112.235 253.605 112.49C253.608 112.491 253.611 112.491 253.613 112.491C253.742 112.491 253.847 112.388 253.851 112.26C254.115 102.836 243.599 105.934 239.121 108.932C239.1 108.946 239.076 108.954 239.05 108.954C239.005 108.954 238.963 108.929 238.941 108.89L236.056 103.885C235.923 103.655 235.99 103.358 236.213 103.209C239.657 100.928 243.541 99.6888 247.864 99.4908C255.896 99.123 261.859 103.066 261.888 111.658C261.91 118.131 261.92 122.635 261.917 125.172C261.917 125.827 262.296 126.191 263.055 126.263C264.038 126.361 264.997 126.371 265.931 126.293C265.938 126.292 265.941 126.291 265.944 126.291C266.071 126.289 266.175 126.389 266.178 126.513C266.178 126.516 266.178 126.519 266.178 126.522L266.174 132.054C266.173 132.054 266.173 132.054 266.173 132.054C266.173 132.196 266.06 132.311 265.918 132.313C261.433 132.358 258.707 132.343 257.74 132.267C256.048 132.142 254.979 131.302 254.533 129.746C254.475 129.54 254.475 128.75 254.533 127.375ZM253.643 117.433C250.214 117.236 241.32 117.784 241.939 123.102C242.458 127.538 247.563 127.965 250.423 125.615C252.795 123.67 253.958 121.037 253.91 117.717C253.91 117.569 253.795 117.443 253.646 117.432L253.643 117.433Z" fill="#EC7F36"/>
<path d="M189.716 144.828C189.716 144.826 189.716 144.827 189.716 144.828C189.718 144.966 189.61 145.08 189.474 145.083C189.473 145.083 189.472 145.083 189.472 145.083L187.358 145.083C187.201 145.083 187.073 144.955 187.073 144.798C187.069 143.544 187.161 142.52 185.806 141.968C183.036 140.845 180.526 140.997 178.276 142.424C174.367 144.903 174.082 151.556 177.574 154.641C179.859 156.662 182.651 157.063 185.949 155.845C187.199 155.385 187.483 154.395 187.295 153.207C187.292 153.186 187.29 153.165 187.29 153.144C187.29 152.92 187.472 152.739 187.695 152.739C187.696 152.739 187.696 152.739 187.696 152.739L189.62 152.739C189.816 152.739 189.975 152.898 189.975 153.094L189.975 155.628C189.974 155.748 189.941 155.861 189.88 155.958C188.595 158.087 186.057 158.747 183.712 158.948C177.795 159.462 172.882 155.942 172.289 149.929C171.703 144.004 175.713 139.083 181.692 138.798C184.28 138.673 188.411 139.346 189.624 141.889C189.651 141.949 189.667 142.014 189.67 142.081L189.716 144.828Z" fill="#44372D"/>
<path d="M209.882 144.41C209.811 140.408 212.102 138.472 215.982 138.987C216.163 139.01 216.299 139.164 216.3 139.346V140.977C216.3 140.985 216.3 140.995 216.299 141.004C216.284 141.172 216.134 141.296 215.964 141.281C215.955 141.281 215.946 141.279 215.937 141.278C213.695 140.877 212.299 142.282 212.683 144.439C212.706 144.564 212.815 144.656 212.942 144.656L219.135 144.656C219.135 144.656 219.135 144.656 219.135 144.656C219.267 144.656 219.375 144.55 219.377 144.418C219.389 143.345 219.45 142.611 219.561 142.215C220.373 139.347 222.977 138.648 225.645 138.995C225.698 139.001 225.737 139.046 225.737 139.099C225.737 139.099 225.737 139.099 225.737 139.099L225.737 141.128C225.737 141.128 225.737 141.128 225.737 141.128C225.737 141.205 225.675 141.266 225.599 141.266C225.593 141.266 225.588 141.266 225.582 141.265C223.076 140.953 221.946 142.007 222.192 144.427C222.209 144.561 222.32 144.659 222.45 144.656L225.223 144.656C225.387 144.656 225.52 144.789 225.52 144.953V146.567C225.52 146.694 225.416 146.797 225.289 146.797L222.371 146.797C222.255 146.797 222.162 146.89 222.162 147.006L222.162 156.326C222.162 156.446 222.259 156.543 222.379 156.543L224.483 156.544C224.6 156.543 224.696 156.639 224.696 156.756V158.438C224.696 158.571 224.587 158.68 224.453 158.68L217.354 158.68C217.238 158.68 217.144 158.584 217.144 158.467L217.145 156.749C217.144 156.637 217.234 156.547 217.345 156.547L219.143 156.548C219.275 156.547 219.381 156.442 219.381 156.313V147.044C219.381 146.905 219.269 146.792 219.131 146.792L212.892 146.793C212.754 146.793 212.641 146.903 212.641 147.039L212.642 156.284C212.642 156.43 212.758 156.547 212.9 156.547L214.954 156.548C215.09 156.547 215.2 156.658 215.2 156.794V158.417C215.2 158.562 215.082 158.68 214.937 158.68L207.913 158.68C207.801 158.68 207.711 158.59 207.711 158.479L207.712 156.728C207.712 156.626 207.794 156.543 207.896 156.543L209.677 156.544C209.79 156.543 209.882 156.453 209.882 156.343L209.882 147.027C209.882 146.898 209.777 146.792 209.648 146.792L207.825 146.793C207.674 146.793 207.553 146.671 207.553 146.521L207.553 144.987C207.553 144.802 207.705 144.652 207.891 144.652H209.648C209.65 144.652 209.651 144.652 209.652 144.652C209.781 144.65 209.884 144.541 209.882 144.41C209.882 144.409 209.882 144.408 209.882 144.408V144.41Z" fill="#44372D"/>
<path d="M191.363 151.651C191.364 147.571 194.774 144.263 198.978 144.263C203.182 144.263 206.592 147.572 206.591 151.652C206.591 155.732 203.181 159.04 198.977 159.039C194.772 159.039 191.363 155.73 191.363 151.651V151.651ZM199.017 146.688C199.06 146.689 199.06 146.689 199.06 146.689C196.424 146.643 194.247 148.828 194.199 151.567C194.151 154.308 196.25 156.567 198.886 156.614C198.886 156.614 198.886 156.614 198.886 156.614C201.523 156.66 203.699 154.475 203.747 151.735C203.795 148.994 201.696 146.735 199.06 146.689L199.017 146.688Z" fill="#44372D"/>
<path d="M229.358 151.961C229.341 151.96 229.321 151.962 229.301 151.964C229.058 151.994 228.885 152.213 228.915 152.454C228.917 152.474 228.921 152.493 228.926 152.513C229.724 155.52 231.592 156.863 234.53 156.539C235.584 156.422 236.619 155.975 237.637 155.197C237.689 155.157 237.753 155.135 237.819 155.135C237.926 155.135 238.026 155.192 238.08 155.285L238.937 156.769C239.029 156.932 238.986 157.137 238.837 157.245C234.81 160.118 229.036 159.629 226.761 154.783C225.775 152.68 225.929 149.506 227.226 147.483C230.897 141.75 240.275 144.004 239.154 151.739C239.137 151.867 239.029 151.962 238.903 151.96L229.358 151.961ZM229.27 150.197L236.395 150.146C236.423 150.146 236.445 150.124 236.445 150.096V150.054C236.445 150.079 236.445 150.079 236.445 150.079C236.445 148.112 234.827 146.516 232.832 146.516H232.832C230.837 146.516 229.22 148.112 229.22 150.079L229.22 150.146C229.22 150.174 229.242 150.196 229.27 150.196L229.27 150.197Z" fill="#44372D"/>
<path d="M265.103 148.649C265.098 148.785 264.985 148.892 264.848 148.891L262.9 148.892C262.899 148.891 262.899 148.891 262.898 148.891C262.769 148.891 262.664 148.787 262.664 148.658C262.664 148.641 262.666 148.624 262.669 148.607C263.347 145.664 256.954 145.931 257.945 148.754C258.123 149.264 258.658 149.682 259.55 150.008C261.262 150.635 262.6 151.175 263.565 151.626C266.709 153.098 266.203 157.279 263.167 158.433C260.923 159.284 258.705 159.224 256.511 158.254C254.813 157.501 254.332 156.184 254.562 154.373C254.583 154.213 254.719 154.094 254.88 154.093L256.745 154.093C256.878 154.094 256.986 154.202 256.986 154.336C256.986 154.348 256.985 154.361 256.983 154.373C256.879 155.005 256.954 155.803 257.669 156.167C258.986 156.844 262.377 157.288 262.879 155.231C263.31 153.483 259.76 152.592 258.037 151.948C253.688 150.33 254.211 145.279 258.723 144.447C260.508 144.117 263.485 144.33 264.71 145.894C265.287 146.63 265.132 147.922 265.103 148.649Z" fill="#44372D"/>
<path d="M232.189 171.78C232.204 171.78 232.22 171.782 232.235 171.786C232.333 171.812 232.392 171.911 232.366 172.007C232.362 172.023 232.356 172.037 232.348 172.051C206.591 216.41 154.368 238.587 104.436 225.354C70.0541 216.243 41.8184 191.666 28.1123 158.768C28.1048 158.748 28.1006 158.726 28.1006 158.705C28.1006 158.613 28.175 158.538 28.2673 158.538L38.6659 158.538C38.7888 158.538 38.9013 158.609 38.9543 158.722C51.452 185.528 74.8 206.099 103.194 214.683C147.674 228.13 195.231 210.736 220.72 171.985C220.806 171.856 220.95 171.78 221.104 171.78L232.189 171.78Z" fill="#44372D"/>
</svg>
