<svg width="236" height="224" viewBox="0 0 236 224" fill="none" xmlns="http://www.w3.org/2000/svg">
<path d="M121.688 42.4056H141.768C141.933 42.4071 142.07 42.2718 142.074 42.1017C142.13 37.3799 142.132 33.5479 142.081 30.6051C142.008 26.7054 142.313 23.4675 142.993 20.8902C146.176 8.84111 157.001 0.0828041 169.745 0.0450088C179.99 0.0109931 189.56 0.0128703 198.456 0.0510435C198.633 0.0548231 198.775 0.199214 198.775 0.376474V27.5497C198.775 27.8706 198.515 28.1303 198.194 28.1303C198.192 28.1303 198.19 28.1303 198.188 28.1303C194.195 28.105 187.644 28.094 178.535 28.0982C174.906 28.0982 172.418 28.4493 170.836 31.5938C169.758 33.7436 170.217 38.6998 170.262 42.1123C170.266 42.2718 170.396 42.3995 170.555 42.3995H194.042C194.281 42.3995 194.476 42.5968 194.476 42.8399V65.5095C194.476 65.7313 194.299 65.9112 194.08 65.9112H170.555C170.376 65.9116 170.23 66.0571 170.23 66.2366V155.182C170.23 155.467 170.002 155.698 169.72 155.698L142.54 155.698C142.308 155.698 142.119 155.506 142.119 155.271V66.3069C142.119 66.0956 141.948 65.9241 141.737 65.9241H121.592C121.399 65.9241 121.242 65.7668 121.242 65.5733V42.8523C121.242 42.6055 121.441 42.4056 121.688 42.4056Z" fill="#860464"/>
<path d="M207.52 0H234.745C234.999 0 235.204 0.205603 235.204 0.459209V27.6839C235.204 27.9375 234.999 28.1431 234.745 28.1431H207.52C207.267 28.1431 207.061 27.9375 207.061 27.6839V0.459209C207.061 0.205603 207.267 0 207.52 0Z" fill="#EB8E35"/>
<path d="M61.1795 38.1132C80.9729 38.0364 98.8588 47.1198 110.5 62.5051C127.429 84.8882 126.842 115.761 109.62 137.621C109.533 137.73 109.4 137.794 109.26 137.794C109.152 137.794 109.046 137.755 108.963 137.684C101.674 131.425 93.3985 126.768 84.1367 123.715C84.1182 123.709 84.0955 123.699 84.0744 123.686C83.9262 123.597 83.8771 123.408 83.964 123.263C83.9776 123.241 83.9939 123.22 84.0124 123.202C90.7959 116.641 94.4322 107.724 94.1514 98.5765C93.6154 80.914 79.085 66.6388 61.3008 66.7151C43.5106 66.7854 29.1076 81.182 28.7119 98.8449C28.5081 107.998 32.2204 116.884 39.0519 123.384C39.0727 123.403 39.0889 123.423 39.1029 123.445C39.1925 123.588 39.1464 123.778 39.0001 123.87C38.9797 123.883 38.9582 123.893 38.9355 123.901C29.7002 127.03 21.4639 131.755 14.2261 138.074C14.1426 138.146 14.036 138.186 13.9256 138.186C13.7873 138.186 13.6565 138.123 13.5692 138.016C-3.83216 116.303 -4.6742 85.4366 12.0702 62.9133C23.5838 47.4323 41.3929 38.1959 61.1795 38.1132Z" fill="#860464"/>
<path d="M207.444 42.4055H234.872C235.109 42.4055 235.3 42.5971 235.3 42.833V155.264C235.3 155.5 235.109 155.692 234.872 155.692H207.444C207.208 155.692 207.017 155.5 207.017 155.264V42.833C207.017 42.5971 207.208 42.4055 207.444 42.4055Z" fill="#860464"/>
<path d="M61.5754 132.378C75.5192 132.32 88.8254 137.034 99.7328 145.594C100.277 146.024 100.55 146.334 100.55 146.526C100.55 146.713 100.279 147.023 99.7392 147.457C88.9082 156.113 75.6406 160.935 61.6964 160.999C47.7529 161.056 34.4467 156.342 23.5394 147.776C22.9948 147.351 22.7227 147.042 22.7227 146.851C22.7227 146.66 22.9925 146.349 23.5326 145.92C34.3636 137.264 47.6316 132.435 61.5754 132.378Z" fill="#EB8E35"/>
<path d="M152.497 199.316C152.051 202.595 150.073 215.365 145.608 215.077C143.025 214.912 141.009 210.338 140.467 208.214C139.179 203.158 138.819 197.864 139.389 192.331C139.482 191.426 139.793 190.658 140.32 190.029C140.885 189.376 141.8 189.227 142.481 189.663C144.757 191.085 145.906 193.105 145.927 195.725C145.927 195.724 145.927 195.724 145.927 195.724C145.927 195.975 145.861 196.222 145.736 196.439L144.211 199.08C144.123 199.234 144.075 199.41 144.071 199.59C143.999 203.09 144.732 206.43 146.272 209.611C146.298 209.668 146.337 209.727 146.384 209.779C146.648 210.073 147.102 210.094 147.398 209.828C147.449 209.781 147.494 209.727 147.531 209.668C148.184 208.558 148.587 207.442 148.74 206.319C149.804 198.58 150.935 189.85 152.134 180.128C152.136 180.108 152.137 180.087 152.137 180.067C152.137 179.788 151.912 179.563 151.634 179.563C151.611 179.563 151.588 179.564 151.566 179.567C148.024 180.027 144.892 180.337 142.17 180.498C140.886 180.579 139.997 180.18 139.504 179.3C139.088 178.532 139.406 177.568 140.209 177.115C141.066 176.615 142.083 176.331 143.261 176.263C147.977 175.995 150.981 175.806 152.274 175.695C152.559 175.674 152.791 175.455 152.829 175.172C153.142 172.876 153.467 168.743 156.771 169.61C157.363 169.766 157.811 170.251 157.919 170.854C158.17 172.274 158.196 173.639 157.996 174.949C157.993 174.968 157.991 174.988 157.991 175.007C157.991 175.219 158.163 175.39 158.374 175.39C158.382 175.39 158.39 175.39 158.397 175.389C163.399 175.057 169.299 174.662 176.099 174.203C177.215 174.126 178.771 174.311 179.167 175.67C180.111 178.93 173.4 178.789 170.983 178.859C167.223 178.961 162.929 179.085 158.098 179.229C157.818 179.232 157.581 179.454 157.556 179.741C157.037 186.974 156.888 194.234 157.109 201.523C157.32 208.482 158.614 214.095 160.426 219.823C161.047 221.767 160.528 223.074 158.87 223.746C158.367 223.959 157.761 223.782 157.433 223.315C156.511 221.948 155.799 220.37 155.298 218.579C153.66 212.716 152.808 206.277 152.739 199.265C152.739 199.224 152.706 199.191 152.662 199.188C152.58 199.18 152.506 199.237 152.497 199.317V199.316Z" fill="#EB8E35"/>
<path d="M233.494 174.79C235.721 175.479 235.242 179.708 235.038 181.653C234.655 185.37 234.506 189.146 234.592 192.982C234.753 200.47 234.964 207.519 235.223 214.127C235.222 214.104 235.223 214.12 235.224 214.136C235.271 215.506 234.202 216.655 232.837 216.703C232.818 216.703 232.799 216.703 232.781 216.704L232.582 216.704C231.195 216.701 230.056 215.6 230.005 214.21C230.005 214.198 230.075 212.454 230.216 208.979C230.42 203.704 229.808 198.455 229.661 193.148C229.524 188.219 229.652 183.535 230.043 179.095C230.184 177.513 231.121 174.049 233.494 174.79Z" fill="#EB8E35"/>
<path d="M40.8699 206.549C40.8722 206.65 40.9542 206.73 41.0551 206.73C41.1315 206.73 41.1995 206.684 41.2274 206.613C43.0983 202.157 45.3222 197.961 47.8995 194.028C50.0424 190.762 57.5758 182.023 57.8116 193.326C57.8328 194.236 57.9776 198.255 58.2455 205.382C58.2478 205.511 58.3529 205.614 58.4818 205.614C58.566 205.614 58.6439 205.569 58.6858 205.497C61.7816 200.394 65.715 196.161 70.4863 192.797C73.0379 190.998 76.0165 189.103 78.983 189.384C80.5988 189.533 81.4768 190.42 81.6174 192.044C81.8215 194.455 81.8956 197.857 81.8404 202.25C81.8211 203.921 82.2871 205.593 83.0653 207.009C83.0793 207.036 83.1027 207.061 83.1311 207.078C83.2184 207.13 83.3336 207.099 83.3881 207.009C83.4051 206.98 83.4149 206.948 83.4164 206.915C83.4032 198.983 83.9263 190.928 84.9853 182.75C85.4445 179.21 85.5273 177.43 88.4425 175.759C88.6038 175.667 88.786 175.618 88.9716 175.618C89.3896 175.618 89.7694 175.863 89.9418 176.244C90.4857 177.426 90.6898 178.617 90.5537 179.816C90.3923 181.257 89.8329 184.604 88.876 189.856C88.6465 191.132 88.5252 193.237 88.5574 194.117C88.56 194.171 88.5698 194.219 88.5879 194.265C88.6775 194.499 88.9368 194.617 89.167 194.528C89.2135 194.51 89.2562 194.485 89.294 194.453C94.2418 190.419 97.3791 187.732 98.7058 186.393C99.3736 185.725 100.137 185.26 100.996 184.996C101.092 184.966 101.192 184.951 101.293 184.951C101.692 184.951 102.053 185.186 102.214 185.55C103.273 187.974 102.131 189.614 100.134 191.278C98.5867 192.563 95.9629 194.872 92.2635 198.206C92.2511 198.217 92.2393 198.229 92.2291 198.242C92.1184 198.379 92.1415 198.582 92.2809 198.695C92.2938 198.705 92.307 198.714 92.321 198.722L100.811 203.628C100.912 203.685 101.027 203.716 101.143 203.716C101.434 203.716 101.692 203.528 101.78 203.251C103.885 196.624 106.807 191.189 113.262 188.038C114.576 187.394 116.285 186.928 117.689 187.286C121.86 188.357 120.521 193.55 119.016 196.35C116.485 201.036 112.926 204.155 108.338 205.707C107.721 205.915 107.306 206.494 107.306 207.145C107.306 207.616 107.525 208.061 107.898 208.348L108.701 208.967C108.978 209.181 109.317 209.353 109.678 209.457C111.94 210.079 114.429 209.473 117.147 207.64C118.805 206.524 119.96 204.667 121.427 203.181C122.454 202.142 124.329 202.397 124.482 203.915C124.504 204.111 124.481 204.318 124.416 204.511C122.199 210.638 112.516 216.551 106.226 213.368C104.906 212.705 104.058 212.96 102.801 212.635C102.423 212.532 102.084 212.358 101.796 212.121C97.8062 208.922 93.3925 205.854 88.7486 203.832C88.7081 203.814 88.6643 203.805 88.6205 203.805C88.4504 203.805 88.3087 203.936 88.2962 204.106C88.1299 206.581 88.0811 209.037 88.1492 211.474C88.2002 213.145 88.066 216.302 86.0375 216.698C83.0842 217.279 83.2501 213.904 83.2758 212.016C83.2785 211.798 83.1269 211.612 82.9149 211.569C81.024 211.161 79.9332 210.861 79.0722 208.833C78.4384 207.345 77.7728 205.684 77.0755 203.851C77.0309 203.736 76.9202 203.661 76.7966 203.661C76.7142 203.661 76.6348 203.695 76.5781 203.755C73.5798 206.977 70.142 210.491 65.7407 212.737C63.8865 213.685 62.2836 214.08 60.9309 213.923C60.9165 213.921 60.9014 213.92 60.8867 213.92C60.6788 213.92 60.5102 214.089 60.5102 214.297C60.5102 214.299 60.5102 214.303 60.5102 214.306C60.5526 216.113 59.6424 217.251 57.7799 217.719C57.0013 217.91 56.2 217.523 55.8716 216.797C54.0038 212.711 53.232 207.225 52.9897 203.022C52.8491 200.623 52.7452 198.055 52.6768 195.317C52.6704 195.039 52.444 194.819 52.1669 194.819C52.0396 194.819 51.9163 194.867 51.8222 194.953C50.9888 195.71 50.3127 196.639 49.7938 197.74C47.455 202.682 45.1521 207.991 42.8855 213.668C42.5922 214.395 42.082 214.993 41.3548 215.46C38.5353 217.272 36.6663 211.697 36.4494 209.86C36.1221 207.113 35.7902 204.415 35.4546 201.765C35.3949 201.302 35.2441 200.783 35.0014 200.209C34.9822 200.166 34.9557 200.132 34.9228 200.104C34.8015 200.002 34.6224 200.016 34.5226 200.134C34.4946 200.168 34.4746 200.208 34.4647 200.251C33.6873 203.178 32.8157 206.35 31.8504 209.764C31.2722 211.81 30.2132 213.243 28.6741 214.064C27.1132 214.893 25.7204 214.506 24.4959 212.903C24.096 212.375 23.76 211.327 23.4879 209.758C22.5906 204.527 22.2693 199.099 22.5248 193.473C22.5751 192.104 23.5929 190.927 24.9691 190.678L25.2038 190.641C25.2385 190.634 25.2884 190.627 25.338 190.622C26.4764 190.503 27.4972 191.331 27.6174 192.474C27.6223 192.523 27.6261 192.573 27.6276 192.623C27.7338 196.46 27.7807 199.235 27.7682 200.949C27.7595 202.297 27.8831 203.53 28.1382 204.649C28.1511 204.7 28.1733 204.746 28.2036 204.787C28.3264 204.95 28.5562 204.984 28.7165 204.863C28.7577 204.832 28.7917 204.793 28.8159 204.748C30.8171 201.242 33.0879 188.97 37.2147 188.899C40.0342 188.849 40.3978 195.482 40.487 197.619C40.7425 203.547 40.8699 206.524 40.8699 206.549ZM107.158 200.649C107.146 200.68 107.14 200.709 107.139 200.738C107.134 200.882 107.249 201.004 107.397 201.009C107.425 201.01 107.453 201.006 107.48 200.999C111.4 199.864 115.59 196.56 115.897 192.172C115.897 192.159 115.898 192.147 115.898 192.135C115.898 191.87 115.684 191.656 115.42 191.656C115.346 191.656 115.274 191.673 115.208 191.706C111.448 193.535 108.765 196.516 107.158 200.649ZM74.575 195.521C74.5916 195.489 74.5999 195.453 74.5999 195.417C74.5999 195.29 74.4971 195.187 74.3701 195.187C74.3327 195.187 74.2957 195.196 74.2628 195.214C69.6699 197.772 65.7407 202.977 63.4632 207.634C63.4299 207.702 63.4122 207.777 63.4122 207.854C63.4122 208.106 63.6015 208.319 63.8529 208.348C63.9715 208.365 64.2289 208.291 64.6242 208.125C68.6343 206.42 72.1659 203.568 75.2194 199.571C75.3517 199.399 75.4235 199.189 75.4235 198.972C75.4235 198.627 75.2417 198.307 74.9454 198.129C74.0311 197.576 73.9075 196.707 74.575 195.521Z" fill="#EB8E35"/>
<path d="M139.527 182.653C138.837 183.878 139.45 185.531 140.895 186.345C142.341 187.16 144.072 186.828 144.762 185.603C145.452 184.379 144.84 182.725 143.394 181.911C141.949 181.096 140.217 181.429 139.527 182.653Z" fill="#EB8E35"/>
<path d="M181.367 191.234C181.409 191.302 181.483 191.343 181.563 191.343C181.651 191.343 181.731 191.294 181.769 191.215C182.994 188.774 184.846 187.188 187.325 186.457C187.563 186.387 187.81 186.35 188.058 186.35C189.018 186.35 189.901 186.882 190.348 187.732L190.578 188.172C190.594 188.203 190.604 188.223 190.614 188.244C191.006 189.084 190.64 190.083 189.797 190.476C189.775 190.486 189.754 190.496 189.732 190.505C189.097 190.774 188.348 191.066 187.485 191.381C180.844 193.785 181.399 204.438 181.68 210.409C181.749 212.024 180.65 213.428 179.088 213.75L179.096 213.745C178.934 213.779 178.767 213.797 178.601 213.797C177.356 213.797 176.325 212.83 176.245 211.588C175.807 204.691 175.573 200.181 175.544 198.059C175.512 195.84 175.901 190.647 178.421 189.69C179.496 189.278 180.479 189.792 181.367 191.234Z" fill="#EB8E35"/>
<path d="M221.86 203.794C221.822 203.704 221.734 203.645 221.636 203.645C221.568 203.645 221.504 203.673 221.458 203.723C217.675 207.659 214.741 210.581 209.989 213.03C207.161 214.484 204.739 214.11 202.723 211.908C202.58 211.757 202.365 211.714 202.182 211.795C197.48 213.828 192.722 216.322 188.569 211.799C187.625 210.772 186.815 208.808 186.235 207.838C186.075 207.557 185.839 207.272 185.56 207.036L184.193 205.918C183.96 205.727 183.825 205.442 183.825 205.141C183.825 204.752 184.051 204.398 184.404 204.234C185.558 203.692 186.075 202.984 186.541 201.625C188.486 196.031 190.814 191.942 195.981 188.784C198.264 187.394 201.403 186.329 203.489 188.166C205.562 189.99 204.42 194.022 203.17 196.299C200.534 201.078 196.927 204.243 192.352 205.79C191.772 205.987 191.383 206.531 191.383 207.143C191.383 207.653 191.655 208.125 192.096 208.38L193.608 209.247C194.137 209.548 194.709 209.705 195.291 209.714C198.909 209.79 202.169 207.404 204.21 204.272C208.247 198.091 213.759 192.995 220.118 189.958C221.592 189.256 224.283 188.829 225.598 190.207C225.993 190.619 226.246 191.457 226.356 192.72C226.658 196.097 226.725 198.886 226.554 201.089C226.299 204.54 227.549 206.307 228.857 208.929C229.223 209.648 229.066 210.539 228.467 211.099C228.081 211.451 227.549 211.552 226.873 211.403C223.314 210.613 222.912 206.211 221.86 203.794ZM191.293 200.604C191.279 200.636 191.272 200.671 191.272 200.705C191.272 200.85 191.389 200.967 191.534 200.967C191.56 200.967 191.586 200.963 191.612 200.955C195.516 199.833 199.693 196.56 200.012 192.197C200.013 192.185 200.014 192.172 200.014 192.16C200.014 191.896 199.8 191.682 199.535 191.682C199.462 191.682 199.389 191.699 199.323 191.731C195.581 193.539 192.905 196.497 191.293 200.604ZM219.372 195.482C219.391 195.448 219.401 195.409 219.401 195.37C219.401 195.243 219.298 195.14 219.172 195.14C219.132 195.14 219.094 195.15 219.059 195.169C214.428 197.74 210.455 202.977 208.152 207.666C208.141 207.687 208.13 207.713 208.122 207.74C208.041 208.006 208.188 208.287 208.451 208.368C208.479 208.376 208.507 208.382 208.536 208.386C208.663 208.403 208.923 208.329 209.319 208.163C213.363 206.45 216.929 203.584 220.016 199.565C220.149 199.391 220.22 199.179 220.22 198.96C220.22 198.613 220.039 198.29 219.742 198.11C218.824 197.549 218.7 196.673 219.372 195.482Z" fill="#EB8E35"/>
</svg>
