<svg width="344" height="232" viewBox="0 0 344 232" fill="none" xmlns="http://www.w3.org/2000/svg">
<path fill-rule="evenodd" clip-rule="evenodd" d="M246.761 1.15186L249.314 1.23953L251.803 1.48029L254.229 1.87487L256.61 2.41988L258.908 3.09907L261.142 3.92981L263.333 4.91551L265.418 6.00779L267.461 7.25579L269.397 8.63419L271.269 10.1229L273.056 11.7413L274.757 13.4486L276.375 15.2858L277.907 17.2334L279.353 19.2906L280.694 21.4562L281.927 23.688L283.076 26.0298L284.119 28.4586L285.055 30.9754L285.885 33.5787L286.607 36.2463L287.203 38.9819L287.693 41.8044L288.076 44.6716L288.31 47.6026L288.439 50.6006L288.458 53.6631L288.332 56.748L288.076 59.8993L287.671 63.0941L287.161 66.2667L286.524 69.4169L285.757 72.5248L284.885 75.5658L283.905 78.5634L282.821 81.4959L281.63 84.3831L280.331 87.1841L278.949 89.9405L277.459 92.6107L275.907 95.1918L274.248 97.7082L272.524 100.137L270.695 102.479L268.822 104.731L266.865 106.877L264.844 108.933L262.759 110.88L260.632 112.719L258.419 114.447L256.185 116.065L253.888 117.554L251.549 118.909L249.165 120.157L246.74 121.274L244.293 122.235L241.825 123.068L239.315 123.767L236.784 124.315L234.23 124.708L231.677 124.948L229.103 125.015L226.55 124.948L224.061 124.708L221.635 124.315L219.254 123.767L216.956 123.068L214.722 122.235L212.531 121.274L210.445 120.157L208.403 118.909L206.466 117.554L204.594 116.065L202.808 114.447L201.106 112.719L199.49 110.88L197.957 108.933L196.51 106.877L195.171 104.731L193.937 102.479L192.787 100.137L191.745 97.7082L190.81 95.1918L189.979 92.6107L189.277 89.9405L188.661 87.1841L188.171 84.3831L187.809 81.4959L187.555 78.5634L187.427 75.5658L187.406 72.5248L187.532 69.4169L187.789 66.2667L188.192 63.0941L188.703 59.8993L189.342 56.748L190.107 53.6631L190.979 50.6006L191.958 47.6026L193.043 44.6716L194.234 41.8044L195.533 38.9819L196.915 36.2463L198.404 33.5787L199.958 30.9754L201.617 28.4586L203.34 26.0298L205.17 23.688L207.042 21.4562L208.999 19.2906L211.02 17.2334L213.104 15.2858L215.233 13.4486L217.445 11.7413L219.679 10.1229L221.976 8.63419L224.316 7.25579L226.698 6.00779L229.124 4.91551L231.571 3.92981L234.039 3.09907L236.549 2.41988L239.081 1.87487L241.633 1.48029L244.186 1.23953L246.761 1.15186Z" fill="#825F70" stroke="#825F70" stroke-width="0.755906" stroke-miterlimit="22.9256"/>
<path fill-rule="evenodd" clip-rule="evenodd" d="M71.8451 116.881L71.0159 117.493L70.1847 118.085L69.3347 118.675L68.4836 119.223L67.6116 119.77L66.7609 120.294L65.8882 120.82L64.9943 121.301L64.1228 121.783L63.2289 122.242L62.3354 122.68L61.4416 123.095L60.5273 123.49L59.6119 123.884L58.7191 124.255L57.7818 124.583L56.8676 124.912L55.9529 125.217L55.0167 125.502L54.0813 125.786L53.1443 126.027L52.2089 126.247L51.2731 126.464L50.3154 126.639L49.3799 126.816L48.4218 126.946L47.4649 127.076L46.5067 127.164L45.5706 127.253L44.6143 127.296L43.6347 127.341H42.6773L41.4018 127.318L40.1035 127.274L38.8479 127.164L37.5931 127.011L36.3595 126.837L35.1247 126.619L33.9342 126.355L32.7428 126.07L31.572 125.72L30.4022 125.35L29.2747 124.955L28.1477 124.496L27.0411 124.014L25.956 123.511L24.892 122.965L23.8496 122.372L63.1219 47.6738L62.6971 48.7907L62.2719 49.9076L61.8883 51.0433L61.4843 52.1824L61.1225 53.3189L60.7612 54.4789L60.4211 55.6392L60.1017 56.8207L59.8042 58.0029L59.5057 59.184L59.229 60.3655L58.9747 61.5689L58.7399 62.7719L58.5275 63.9753L58.3144 65.1999L58.1447 66.4256L57.8888 68.3747L57.6767 70.2996L57.5279 72.203L57.4209 74.1063L57.3574 75.9878V77.8473L57.4001 79.6853L57.4852 81.5014L57.6121 83.3171L57.7818 85.0889L57.995 86.8392L58.2717 88.5691L58.5695 90.2755L58.9104 91.9589L59.3144 93.6227L59.7396 95.2415L60.2079 96.8391L60.7185 98.414L61.2923 99.9462L61.8664 101.478L62.5051 102.944L63.1862 104.387L63.8884 105.809L64.6326 107.189L65.4206 108.523L66.2283 109.837L67.0802 111.105L67.9729 112.331L68.8884 113.535L69.8446 114.692L70.8446 115.81L71.8451 116.881Z" fill="#5CA47A" stroke="white" stroke-width="0.755906" stroke-miterlimit="22.9256"/>
<path fill-rule="evenodd" clip-rule="evenodd" d="M133.136 116.881L132.307 117.493L131.478 118.085L130.625 118.675L129.776 119.223L128.904 119.77L128.052 120.294L127.18 120.82L126.286 121.301L125.415 121.783L124.521 122.242L123.627 122.68L122.733 123.095L121.819 123.49L120.905 123.884L119.99 124.255L119.074 124.583L118.16 124.912L117.224 125.217L116.308 125.502L115.373 125.786L114.437 126.027L113.501 126.247L112.564 126.464L111.608 126.639L110.671 126.816L109.714 126.946L108.757 127.076L107.799 127.164L106.842 127.253L105.885 127.296L104.927 127.341H103.97L102.672 127.318L101.395 127.274L100.141 127.164L98.885 127.011L97.6517 126.837L96.4169 126.619L95.2268 126.355L94.034 126.07L92.8642 125.72L91.6948 125.35L90.5662 124.955L89.4396 124.496L88.3329 124.014L87.2486 123.511L86.1842 122.965L85.1411 122.372L124.414 47.6738L123.989 48.7907L123.563 49.9076L123.159 51.0433L122.777 52.1824L122.414 53.3189L122.053 54.4789L121.712 55.6392L121.394 56.8207L121.095 58.0029L120.798 59.184L120.522 60.3655L120.266 61.5689L120.033 62.7719L119.819 63.9753L119.607 65.1999L119.436 66.4256L119.181 68.3747L118.968 70.2996L118.819 72.203L118.714 74.1063L118.649 75.9878V77.8473L118.692 79.6853L118.777 81.5014L118.905 83.3171L119.074 85.0889L119.287 86.8392L119.543 88.5691L119.862 90.2755L120.202 91.9589L120.607 93.6227L121.032 95.2415L121.499 96.8391L122.011 98.414L122.564 99.9462L123.159 101.478L123.797 102.944L124.479 104.387L125.18 105.809L125.925 107.189L126.712 108.523L127.52 109.837L128.371 111.105L129.266 112.331L130.18 113.535L131.137 114.692L132.115 115.81L133.136 116.881Z" fill="#5CA47A" stroke="white" stroke-width="0.755906" stroke-miterlimit="22.9256"/>
<path fill-rule="evenodd" clip-rule="evenodd" d="M194.429 116.881L193.599 117.493L192.77 118.085L191.918 118.675L191.066 119.223L190.196 119.77L189.323 120.294L188.45 120.82L187.578 121.301L186.706 121.783L185.812 122.242L184.918 122.68L184.004 123.095L183.111 123.49L182.196 123.884L181.28 124.255L180.366 124.583L179.451 124.912L178.516 125.217L177.6 125.502L176.665 125.786L175.728 126.027L174.792 126.247L173.835 126.464L172.899 126.639L171.941 126.816L171.005 126.946L170.048 127.076L169.09 127.164L168.133 127.253L167.176 127.296L166.219 127.341H165.261L163.964 127.318L162.686 127.274L161.432 127.164L160.177 127.011L158.943 126.837L157.709 126.619L156.517 126.355L155.326 126.07L154.156 125.72L152.986 125.35L151.858 124.955L150.731 124.496L149.625 124.014L148.539 123.511L147.476 122.965L146.412 122.372L185.706 47.6738L185.28 48.7907L184.855 49.9076L184.451 51.0433L184.068 52.1824L183.706 53.3189L183.344 54.4789L183.004 55.6392L182.685 56.8207L182.387 58.0029L182.089 59.184L181.813 60.3655L181.558 61.5689L181.324 62.7719L181.11 63.9753L180.897 65.1999L180.728 66.4256L180.472 68.3747L180.259 70.2996L180.111 72.203L180.005 74.1063L179.941 75.9878V77.8473L179.982 79.6853L180.047 81.5014L180.195 83.3171L180.366 85.0889L180.579 86.8392L180.834 88.5691L181.153 90.2755L181.493 91.9589L181.897 93.6227L182.324 95.2415L182.791 96.8391L183.302 98.414L183.855 99.9462L184.451 101.478L185.089 102.944L185.748 104.387L186.471 105.809L187.216 107.189L188.003 108.523L188.812 109.837L189.662 111.105L190.557 112.331L191.47 113.535L192.429 114.692L193.406 115.81L194.429 116.881Z" fill="#5CA47A" stroke="white" stroke-width="0.755906" stroke-miterlimit="22.9256"/>
<path fill-rule="evenodd" clip-rule="evenodd" d="M60.3359 3.47705L61.6342 3.49859L62.9098 3.56473L64.1865 3.65091L65.4202 3.80549L66.6757 3.98011L67.8886 4.20007L69.1011 4.46085L70.2712 4.76851L71.4625 5.09583L72.6111 5.46811L73.7597 5.88347L74.8663 6.32115L75.9722 6.80265L77.0566 7.3057L78.1209 7.87453L79.1848 8.44298L20.4249 120.14L19.1058 119.157L17.8298 118.086L16.5955 116.968L15.4049 115.788L14.234 114.562L13.127 113.271L12.043 111.935L11.0222 110.536L10.0425 109.114L9.10707 107.625L8.21324 106.094L7.36247 104.52L6.57479 102.9L5.83099 101.238L5.12875 99.5307L4.49003 97.78L3.89476 95.9851L3.34219 94.1695L2.85236 92.3107L2.42716 90.4062L2.0443 88.482L1.72415 86.5341L1.44751 84.5426L1.25662 82.507L1.10772 80.4728L1.0015 78.3941L0.97998 76.2722L1.0015 74.1493L1.10772 72.0052L1.25662 69.8172L1.49132 67.6292L1.76763 65.4197L2.27823 62.2249L2.91621 59.0731L3.68271 55.9883L4.55466 52.9257L5.53317 49.9278L6.61753 46.9972L7.80882 44.13L9.10707 41.3075L10.4896 38.5719L11.9784 35.9039L13.5533 33.3005L15.191 30.7841L16.9356 28.3554L18.7445 26.0136L20.6161 23.7814L22.5732 21.6158L24.5945 19.5586L26.68 17.6114L28.8287 15.7737L31.0204 14.0665L33.2749 12.4485L35.5513 10.9594L37.892 9.58136L40.2742 8.33299L42.6984 7.24108L45.146 6.255L47.6356 5.42426L50.124 4.74546L52.6563 4.20007L55.2083 3.80549L57.7613 3.56473L60.3359 3.47705Z" fill="#5CA47A" stroke="white" stroke-width="0.755906" stroke-miterlimit="22.9256"/>
<path fill-rule="evenodd" clip-rule="evenodd" d="M121.628 3.47705L122.925 3.49859L124.202 3.56473L125.457 3.65091L126.712 3.80549L127.946 3.98011L129.18 4.20007L130.371 4.46085L131.564 4.76851L132.754 5.09583L133.902 5.46811L135.031 5.88347L136.157 6.32115L137.264 6.80265L138.349 7.3057L139.412 7.87453L140.477 8.44298L81.7162 120.14L80.398 119.157L79.1216 118.086L77.8868 116.968L76.674 115.788L75.5254 114.562L74.4195 113.271L73.3351 111.935L72.3128 110.536L71.335 109.114L70.3992 107.625L69.505 106.094L68.6538 104.52L67.8673 102.9L67.1224 101.238L66.4205 99.5307L65.7825 97.78L65.1865 95.9851L64.6332 94.1695L64.1433 92.3107L63.7185 90.4062L63.3356 88.482L63.0163 86.5341L62.7404 84.5426L62.5484 82.507L62.3995 80.4728L62.2925 78.3941L62.2725 76.2722L62.2925 74.1493L62.3995 72.0052L62.5484 69.8172L62.7608 67.6292L63.059 65.4197L63.5703 62.2249L64.2076 59.0731L64.9741 55.9883L65.8453 52.9257L66.8249 49.9278L67.91 46.9972L69.1013 44.13L70.3992 41.3075L71.7814 38.5719L73.2709 35.9039L74.8231 33.3005L76.4827 30.7841L78.2281 28.3554L80.0362 26.0136L81.9079 23.7814L83.8664 21.6158L85.8869 19.5586L87.971 17.6114L90.12 15.7737L92.311 14.0665L94.5455 12.4485L96.8427 10.9594L99.1826 9.58136L101.566 8.33299L103.991 7.24108L106.438 6.255L108.926 5.42426L111.415 4.74546L113.947 4.20007L116.501 3.80549L119.053 3.56473L121.628 3.47705Z" fill="#5CA47A" stroke="white" stroke-width="0.755906" stroke-miterlimit="22.9256"/>
<path fill-rule="evenodd" clip-rule="evenodd" d="M182.919 3.47705L184.217 3.49859L185.494 3.56473L186.749 3.65091L188.003 3.80549L189.238 3.98011L190.472 4.20007L191.663 4.46085L192.855 4.76851L194.024 5.09583L195.194 5.46811L196.322 5.88347L197.45 6.32115L198.556 6.80265L199.641 7.3057L200.704 7.87453L201.768 8.44298L143.008 120.14L141.689 119.157L140.412 118.086L139.179 116.968L137.966 115.788L136.818 114.562L135.69 113.271L134.626 111.935L133.606 110.536L132.627 109.114L131.669 107.625L130.797 106.094L129.946 104.52L129.159 102.9L128.393 101.238L127.712 99.5307L127.052 97.78L126.457 95.9851L125.925 94.1695L125.435 92.3107L125.01 90.4062L124.627 88.482L124.308 86.5341L124.031 84.5426L123.819 82.507L123.67 80.4728L123.584 78.3941L123.563 76.2722L123.584 74.1493L123.691 72.0052L123.84 69.8172L124.053 67.6292L124.35 65.4197L124.861 62.2249L125.5 59.0731L126.266 55.9883L127.138 52.9257L128.117 49.9278L129.2 46.9972L130.393 44.13L131.69 41.3075L133.073 38.5719L134.563 35.9039L136.115 33.3005L137.775 30.7841L139.498 28.3554L141.328 26.0136L143.2 23.7814L145.157 21.6158L147.178 19.5586L149.263 17.6114L151.39 15.7737L153.603 14.0665L155.837 12.4485L158.134 10.9594L160.475 9.58136L162.858 8.33299L165.282 7.24108L167.729 6.255L170.197 5.42426L172.707 4.74546L175.238 4.20007L177.792 3.80549L180.345 3.56473L182.919 3.47705Z" fill="#5CA47A" stroke="white" stroke-width="0.755906" stroke-miterlimit="22.9256"/>
<path fill-rule="evenodd" clip-rule="evenodd" d="M304.649 2.1582L305.947 2.17976L307.223 2.2459L308.499 2.33282L309.754 2.48664L310.988 2.6605L312.201 2.88048L313.414 3.14278L314.605 3.44966L315.775 3.77812L316.924 4.14888L318.074 4.56463L319.201 5.0023L320.285 5.48382L321.37 6.00917L322.456 6.55607L323.497 7.12413L291.373 68.2138L291.501 67.5784L291.608 66.9457L291.735 66.3104L291.842 65.6543L291.948 65.0189L292.055 64.384L292.16 63.7279L292.245 63.094L292.522 61.0807L292.734 59.0904L292.905 57.1197L293.011 55.1517L293.076 53.2037L293.117 51.2788L293.096 49.3751L293.033 47.4717L292.905 45.6114L292.756 43.7742L292.565 41.9351L292.309 40.1409L292.033 38.3475L291.692 36.5969L291.331 34.8696L290.927 33.1624L290.479 31.4779L289.991 29.8353L289.458 28.2162L288.884 26.6197L288.267 25.044L287.629 23.5133L286.948 22.0245L286.224 20.5592L285.458 19.1143L284.672 17.7144L283.843 16.3571L282.991 15.0233L282.097 13.7107L281.162 12.4623L280.205 11.2374L279.204 10.0559L279.949 9.59784L280.694 9.13785L281.438 8.7002L282.204 8.28482L282.97 7.86795L283.736 7.47486L284.502 7.08143L285.268 6.70989L286.054 6.33761L286.842 6.00917L287.607 5.65918L288.395 5.35229L289.182 5.04615L289.991 4.76229L290.777 4.47807L291.587 4.21389L292.374 3.97503L293.182 3.75505L293.99 3.5366L294.798 3.33969L295.607 3.14278L296.437 2.96816L297.245 2.81508L298.054 2.68355L298.884 2.57358L299.692 2.46359L300.521 2.37667L301.351 2.28973L302.181 2.22283L302.99 2.20205L303.819 2.1582H304.649Z" fill="#825F70" stroke="#825F70" stroke-width="0.755906" stroke-miterlimit="22.9256"/>
<path fill-rule="evenodd" clip-rule="evenodd" d="M305.276 49.9342L327.105 8.64697L327.829 9.16968L328.53 9.71808L329.21 10.2642L329.89 10.8557L330.55 11.4453L331.19 12.0368L331.805 12.6722L332.402 13.306L332.976 13.941L333.53 14.6194L334.083 15.2963L334.593 15.9978L335.082 16.6981L335.571 17.4196L336.018 18.1634L336.444 18.9069L336.868 19.673L337.251 20.4391L337.613 21.2267L337.954 22.0356L338.273 22.8455L338.57 23.677L338.848 24.5081L339.082 25.3612L339.316 26.2157L339.507 27.0907L339.677 27.9653L339.826 28.8637L339.932 29.7602L340.039 30.6778L340.103 31.5978L340.145 32.5173V33.3481V34.1788L340.103 35.0114L340.06 35.8214L339.975 36.6521L339.89 37.4609L339.762 38.2932L339.635 39.1032L339.486 39.9124L339.294 40.7227L339.103 41.5319L338.89 42.3188L338.656 43.1284L338.423 43.916L338.147 44.7044L337.847 45.4909L337.551 46.2801L337.23 47.0447L336.891 47.8108L336.529 48.5766L336.146 49.3426L335.762 50.1088L335.337 50.8514L334.912 51.596L334.487 52.3175L334.019 53.0629L333.551 53.7832L333.04 54.4847L332.551 55.2062L332.018 55.9077L331.487 56.6065L330.933 57.2842L331.636 57.8096L332.339 58.3572L332.997 58.9037L333.658 59.4737L334.296 60.0637L334.912 60.6552L335.508 61.2886L336.082 61.9239L336.656 62.5578L337.188 63.2154L337.72 63.8919L338.23 64.5934L338.699 65.2934L339.166 65.9933L339.614 66.7368L340.039 67.4591L340.422 68.2252L340.805 68.9913L341.166 69.7563L341.485 70.5662L341.805 71.3539L342.102 72.1634L342.358 72.9957L342.592 73.8264L342.804 74.6798L342.997 75.5329L343.167 76.4075L343.315 77.2824L343.421 78.1801L343.507 79.0769L343.571 79.9742L343.614 80.8934V82.8198L343.486 84.7013L343.252 86.6047L342.911 88.4857L342.485 90.323L341.933 92.1836L341.295 94.0001L340.549 95.7934L339.719 97.5434L338.806 99.2944L337.784 100.98L336.678 102.664L335.508 104.283L334.231 105.879L332.891 107.412L331.487 108.921L329.997 110.366L328.445 111.766L326.828 113.1L325.126 114.391L323.382 115.617L321.573 116.777L319.701 117.871L317.786 118.898L315.829 119.863L313.808 120.737L311.744 121.546L309.638 122.268L307.489 122.925L305.32 123.472L303.085 123.954L300.852 124.326L299.703 124.5L298.575 124.632L297.447 124.719L296.32 124.807L295.213 124.872L294.108 124.895L293.002 124.915L291.916 124.895L290.831 124.851L289.767 124.785L288.705 124.698L287.662 124.588L286.619 124.456L285.598 124.304L284.577 124.129L283.577 123.932L282.577 123.714L281.598 123.472L280.62 123.187L279.662 122.904L278.725 122.596L277.812 122.268L276.896 121.94L275.982 121.569L275.11 121.175L274.238 120.759L273.386 120.344L272.535 119.906L271.727 119.424L270.919 118.942L270.132 118.439L269.365 117.936L291.257 76.4967L305.276 49.9342Z" fill="#825F70" stroke="#825F70" stroke-width="0.755906" stroke-miterlimit="22.9256"/>
<path d="M33.022 208.651H47.0376C46.6827 217.796 40.9198 223.358 32.6664 223.358C23.1333 223.358 16.73 216.186 16.73 203.309C16.73 190.576 22.7054 183.333 32.8795 183.333C39.781 183.333 44.5477 187.064 45.8278 193.284H54.2951C52.8018 182.453 44.8327 175.795 32.3115 175.795C17.6537 175.795 7.97852 186.551 7.97852 203.528C7.97852 220.357 17.8684 231.187 31.7415 231.187C38.5711 231.187 44.0499 228.407 47.8204 223.138L49.2434 229.796H54.8647V201.406H33.022V208.651Z" fill="#825F70" stroke="#825F70" stroke-width="0.755906" stroke-miterlimit="22.9256"/>
<path d="M95.5015 209.894C95.5015 218.82 91.8727 223.21 83.763 223.21C75.6514 223.21 72.0949 218.82 72.0949 209.894V177.187H63.5562V210.406C63.5562 224.163 70.4579 231.26 83.763 231.26C96.4974 231.26 104.039 223.943 104.039 210.406V177.187H95.5015V209.894Z" fill="#825F70" stroke="#825F70" stroke-width="0.755906" stroke-miterlimit="22.9256"/>
<path d="M121.843 208.869L129.457 186.039L137.069 208.869H121.843ZM124.69 177.187L105.978 229.796H114.871L119.497 216.186H139.417L143.971 229.796H153.078L134.294 177.187H124.69Z" fill="#825F70" stroke="#825F70" stroke-width="0.755906" stroke-miterlimit="22.9256"/>
<path d="M200.774 177.187H190.886L179.36 196.21L167.905 177.187H157.874L174.166 202.868L157.304 229.796H167.408L179.218 209.821L191.171 229.796H201.273L184.341 202.795L200.774 177.187Z" fill="#825F70" stroke="#825F70" stroke-width="0.755906" stroke-miterlimit="22.9256"/>
<path d="M238.201 209.894C238.201 218.82 234.572 223.21 226.46 223.21C218.35 223.21 214.792 218.82 214.792 209.894V177.187H206.255V210.406C206.255 224.163 213.156 231.26 226.46 231.26C239.196 231.26 246.738 223.943 246.738 210.406V177.187H238.201V209.894Z" fill="#825F70" stroke="#825F70" stroke-width="0.755906" stroke-miterlimit="22.9256"/>
<path d="M275.708 201.406H264.679V184.796H276.205C282.324 184.796 285.311 187.21 285.311 193.138C285.311 199.43 282.11 201.406 275.708 201.406ZM286.734 179.088C283.462 177.259 279.905 177.187 275.636 177.187H256.142V229.796H264.679V209.089H276.276C281.257 209.089 284.956 208.651 288.015 206.309C291.787 203.456 293.85 198.991 293.85 193.356C293.85 186.552 291.359 181.649 286.734 179.088Z" fill="#825F70" stroke="#825F70" stroke-width="0.755906" stroke-miterlimit="22.9256"/>
<path d="M332.221 167.393H321.603L314.632 174.457H321.833L332.221 167.393Z" fill="#825F70" stroke="#825F70" stroke-width="0.755906" stroke-miterlimit="22.9256"/>
<path d="M309.936 221.894V206.015H336.046V198.626H309.936V184.868H338.252V177.187H301.54V229.796H339.177V221.894H309.936Z" fill="#825F70" stroke="#825F70" stroke-width="0.755906" stroke-miterlimit="22.9256"/>
<path d="M11.2858 151.523H21.5703V148.612H11.2858V143.194H22.4392V140.167H7.97949V160.89H22.8036V157.778H11.2858V151.523Z" fill="#825F70" stroke="#825F70" stroke-width="0.755906" stroke-miterlimit="22.9256"/>
<path d="M40.9935 140.167H37.0987L32.5587 147.662L28.0463 140.167H24.0952L30.5125 150.284L23.8711 160.89H27.8502L32.502 153.024L37.2094 160.89H41.1893L34.5203 150.256L40.9935 140.167Z" fill="#825F70" stroke="#825F70" stroke-width="0.755906" stroke-miterlimit="22.9256"/>
<path d="M50.9727 149.708H46.6296V143.165H51.1688C53.579 143.165 54.7556 144.116 54.7556 146.45C54.7556 148.93 53.4947 149.708 50.9727 149.708ZM55.3169 140.916C54.0281 140.197 52.6266 140.167 50.9447 140.167H43.2666V160.891H46.6296V152.734H51.1968C53.1584 152.734 54.6154 152.561 55.8206 151.639C57.3064 150.514 58.1194 148.757 58.1194 146.539C58.1194 143.856 57.1382 141.926 55.3169 140.916Z" fill="#825F70" stroke="#825F70" stroke-width="0.755906" stroke-miterlimit="22.9256"/>
<path d="M70.1718 158.47C66.3043 158.47 63.922 155.588 63.922 150.544C63.922 145.47 66.3322 142.617 70.1718 142.617C74.0394 142.617 76.4209 145.47 76.4209 150.544C76.4209 155.588 74.0394 158.47 70.1718 158.47ZM70.1718 139.621C64.2025 139.621 60.5034 143.714 60.5034 150.544C60.5034 157.375 64.2025 161.467 70.1718 161.467C76.1405 161.467 79.8395 157.347 79.8395 150.544C79.8395 143.742 76.1405 139.621 70.1718 139.621Z" fill="#825F70" stroke="#825F70" stroke-width="0.755906" stroke-miterlimit="22.9256"/>
<path d="M91.3333 149.45H86.5412V143.079H91.4168C93.9389 143.079 95.2844 143.829 95.2844 146.22C95.2844 148.641 93.9684 149.45 91.3333 149.45ZM98.3674 157.892L98.1992 154.924C98.0869 152.676 97.6946 151.408 95.789 150.774C97.6111 150.054 98.6758 148.325 98.6758 145.961C98.6758 142.359 96.5177 140.196 92.9865 140.196C92.875 140.196 92.5106 140.167 91.9214 140.167H83.2334V160.89H86.5692V152.358H91.6417C94.304 152.358 94.7239 153.511 94.8365 155.674L94.948 158.152C95.0047 159.247 95.0603 160.142 95.4526 160.89H99.2075V160.284C98.4513 159.853 98.4233 159.103 98.3674 157.892Z" fill="#825F70" stroke="#825F70" stroke-width="0.755906" stroke-miterlimit="22.9256"/>
<path d="M116.333 140.167H100.584V143.194H106.805V160.89H110.14V143.194H116.333V140.167Z" fill="#825F70" stroke="#825F70" stroke-width="0.755906" stroke-miterlimit="22.9256"/>
<path d="M121.772 152.647L124.772 143.656L127.769 152.647H121.772ZM122.894 140.167L115.522 160.89H119.026L120.848 155.53H128.695L130.488 160.89H134.076L126.677 140.167H122.894Z" fill="#825F70" stroke="#825F70" stroke-width="0.755906" stroke-miterlimit="22.9256"/>
<path d="M143.579 157.835H139.458V143.108H143.802C147.473 143.108 149.407 145.585 149.407 150.285C149.407 155.444 147.558 157.835 143.579 157.835ZM143.942 140.167H136.151V160.89H143.382C149.52 160.89 152.825 157.115 152.825 150.458C152.825 143.625 149.856 140.167 143.942 140.167Z" fill="#825F70" stroke="#825F70" stroke-width="0.755906" stroke-miterlimit="22.9256"/>
<path d="M165.019 158.47C161.152 158.47 158.77 155.588 158.77 150.544C158.77 145.47 161.18 142.617 165.019 142.617C168.886 142.617 171.269 145.47 171.269 150.544C171.269 155.588 168.886 158.47 165.019 158.47ZM165.019 139.621C159.051 139.621 155.352 143.714 155.352 150.544C155.352 157.375 159.051 161.467 165.019 161.467C170.988 161.467 174.688 157.347 174.688 150.544C174.688 143.742 170.988 139.621 165.019 139.621Z" fill="#825F70" stroke="#825F70" stroke-width="0.755906" stroke-miterlimit="22.9256"/>
<path d="M186.18 149.45H181.388V143.079H186.264C188.786 143.079 190.132 143.829 190.132 146.22C190.132 148.641 188.814 149.45 186.18 149.45ZM193.214 157.892L193.046 154.924C192.933 152.676 192.543 151.408 190.637 150.774C192.458 150.054 193.522 148.325 193.522 145.961C193.522 142.359 191.364 140.196 187.834 140.196C187.721 140.196 187.357 140.167 186.769 140.167H178.081V160.89H181.416V152.358H186.488C189.15 152.358 189.57 153.511 189.683 155.674L189.795 158.152C189.851 159.247 189.907 160.142 190.299 160.89H194.055V160.284C193.298 159.853 193.27 159.103 193.214 157.892Z" fill="#825F70" stroke="#825F70" stroke-width="0.755906" stroke-miterlimit="22.9256"/>
<path d="M201.372 152.647L204.372 143.656L207.369 152.647H201.372ZM202.493 140.167L195.123 160.89H198.626L200.448 155.53H208.293L210.088 160.89H213.674L206.277 140.167H202.493Z" fill="#825F70" stroke="#825F70" stroke-width="0.755906" stroke-miterlimit="22.9256"/>
<path d="M230.97 157.835H226.851V143.108H231.194C234.865 143.108 236.799 145.585 236.799 150.285C236.799 155.444 234.949 157.835 230.97 157.835ZM231.334 140.167H223.543V160.89H230.774C236.911 160.89 240.217 157.115 240.217 150.458C240.217 143.625 237.247 140.167 231.334 140.167Z" fill="#825F70" stroke="#825F70" stroke-width="0.755906" stroke-miterlimit="22.9256"/>
<path d="M246.917 151.523H257.203V148.612H246.917V143.194H258.071V140.167H243.61V160.89H258.435V157.778H246.917V151.523Z" fill="#825F70" stroke="#825F70" stroke-width="0.755906" stroke-miterlimit="22.9256"/>
<path d="M278.028 158.355C274.357 158.355 272.031 155.414 272.031 150.4C272.031 145.528 274.218 142.704 278.084 142.704C280.97 142.704 282.821 144.145 283.185 146.652H286.492C286.128 142.328 283.044 139.621 278.141 139.621C272.171 139.621 268.612 143.656 268.612 150.544C268.612 157.347 272.144 161.467 277.888 161.467C282.849 161.467 286.407 158.152 286.576 153.453H283.297C283.073 156.423 280.97 158.355 278.028 158.355Z" fill="#825F70" stroke="#825F70" stroke-width="0.755906" stroke-miterlimit="22.9256"/>
<path d="M293.893 152.647L296.892 143.656L299.891 152.647H293.893ZM295.015 140.167L287.644 160.89H291.146L292.969 155.53H300.814L302.609 160.89H306.195L298.798 140.167H295.015Z" fill="#825F70" stroke="#825F70" stroke-width="0.755906" stroke-miterlimit="22.9256"/>
<path d="M308.272 160.89H311.579V151.755H320.742V148.757H311.579V143.194H322.031V140.167H308.272V160.89Z" fill="#825F70" stroke="#825F70" stroke-width="0.755906" stroke-miterlimit="22.9256"/>
<path d="M328.116 157.777V151.523H338.4V148.612H328.116V143.194H339.269V140.167H324.808V160.891H339.633V157.777H328.116Z" fill="#825F70" stroke="#825F70" stroke-width="0.755906" stroke-miterlimit="22.9256"/>
<path d="M336.893 135.48H332.711L329.965 138.263H332.802L336.893 135.48Z" fill="#825F70" stroke="#825F70" stroke-width="0.755906" stroke-miterlimit="22.9256"/>
<path fill-rule="evenodd" clip-rule="evenodd" d="M246.761 1.15186L249.314 1.23953L251.803 1.48029L254.229 1.87487L256.61 2.41988L258.908 3.09907L261.142 3.92981L263.333 4.91551L265.418 6.00779L267.461 7.25579L269.397 8.63419L271.269 10.1229L273.056 11.7413L274.757 13.4486L276.375 15.2858L277.907 17.2334L279.353 19.2906L280.694 21.4562L281.927 23.688L283.076 26.0298L284.119 28.4586L285.055 30.9754L285.885 33.5787L286.607 36.2463L287.203 38.9819L287.693 41.8044L288.076 44.6716L288.31 47.6026L288.439 50.6006L288.458 53.6631L288.332 56.748L288.076 59.8993L287.671 63.0941L287.161 66.2667L286.524 69.4169L285.757 72.5248L284.885 75.5658L283.905 78.5634L282.821 81.4959L281.63 84.3831L280.331 87.1841L278.949 89.9405L277.459 92.6107L275.907 95.1918L274.248 97.7082L272.524 100.137L270.695 102.479L268.822 104.731L266.865 106.877L264.844 108.933L262.759 110.88L260.632 112.719L258.419 114.447L256.185 116.065L253.888 117.554L251.549 118.909L249.165 120.157L246.74 121.274L244.293 122.235L241.825 123.068L239.315 123.767L236.784 124.315L234.23 124.708L231.677 124.948L229.103 125.015L226.55 124.948L224.061 124.708L221.635 124.315L219.254 123.767L216.956 123.068L214.722 122.235L212.531 121.274L210.445 120.157L208.403 118.909L206.466 117.554L204.594 116.065L202.808 114.447L201.106 112.719L199.49 110.88L197.957 108.933L196.51 106.877L195.171 104.731L193.937 102.479L192.787 100.137L191.745 97.7082L190.81 95.1918L189.979 92.6107L189.277 89.9405L188.661 87.1841L188.171 84.3831L187.809 81.4959L187.555 78.5634L187.427 75.5658L187.406 72.5248L187.532 69.4169L187.789 66.2667L188.192 63.0941L188.703 59.8993L189.342 56.748L190.107 53.6631L190.979 50.6006L191.958 47.6026L193.043 44.6716L194.234 41.8044L195.533 38.9819L196.915 36.2463L198.404 33.5787L199.958 30.9754L201.617 28.4586L203.34 26.0298L205.17 23.688L207.042 21.4562L208.999 19.2906L211.02 17.2334L213.104 15.2858L215.233 13.4486L217.445 11.7413L219.679 10.1229L221.976 8.63419L224.316 7.25579L226.698 6.00779L229.124 4.91551L231.571 3.92981L234.039 3.09907L236.549 2.41988L239.081 1.87487L241.633 1.48029L244.186 1.23953L246.761 1.15186Z" fill="#825F70" stroke="#825F70" stroke-width="0.755906" stroke-miterlimit="22.9256"/>
<path fill-rule="evenodd" clip-rule="evenodd" d="M133.136 116.881L132.307 117.493L131.478 118.085L130.625 118.675L129.776 119.223L128.904 119.77L128.052 120.294L127.18 120.82L126.286 121.301L125.415 121.783L124.521 122.242L123.627 122.68L122.733 123.095L121.819 123.49L120.905 123.884L119.99 124.255L119.074 124.583L118.16 124.912L117.224 125.217L116.308 125.502L115.373 125.786L114.437 126.027L113.501 126.247L112.564 126.464L111.608 126.639L110.671 126.816L109.714 126.946L108.757 127.076L107.799 127.164L106.842 127.253L105.885 127.296L104.927 127.341H103.97L102.672 127.318L101.395 127.274L100.141 127.164L98.885 127.011L97.6517 126.837L96.4169 126.619L95.2268 126.355L94.034 126.07L92.8642 125.72L91.6948 125.35L90.5662 124.955L89.4396 124.496L88.3329 124.014L87.2486 123.511L86.1842 122.965L85.1411 122.372L124.414 47.6738L123.989 48.7907L123.563 49.9076L123.159 51.0433L122.777 52.1824L122.414 53.3189L122.053 54.4789L121.712 55.6392L121.394 56.8207L121.095 58.0029L120.798 59.184L120.522 60.3655L120.266 61.5689L120.033 62.7719L119.819 63.9753L119.607 65.1999L119.436 66.4256L119.181 68.3747L118.968 70.2996L118.819 72.203L118.714 74.1063L118.649 75.9878V77.8473L118.692 79.6853L118.777 81.5014L118.905 83.3171L119.074 85.0889L119.287 86.8392L119.543 88.5691L119.862 90.2755L120.202 91.9589L120.607 93.6227L121.032 95.2415L121.499 96.8391L122.011 98.414L122.564 99.9462L123.159 101.478L123.797 102.944L124.479 104.387L125.18 105.809L125.925 107.189L126.712 108.523L127.52 109.837L128.371 111.105L129.266 112.331L130.18 113.535L131.137 114.692L132.115 115.81L133.136 116.881Z" fill="#5CA47A" stroke="white" stroke-width="0.755906" stroke-miterlimit="22.9256"/>
<path fill-rule="evenodd" clip-rule="evenodd" d="M194.429 116.881L193.599 117.493L192.77 118.085L191.918 118.675L191.066 119.223L190.196 119.77L189.323 120.294L188.45 120.82L187.578 121.301L186.706 121.783L185.812 122.242L184.918 122.68L184.004 123.095L183.111 123.49L182.196 123.884L181.28 124.255L180.366 124.583L179.451 124.912L178.516 125.217L177.6 125.502L176.665 125.786L175.728 126.027L174.792 126.247L173.835 126.464L172.899 126.639L171.941 126.816L171.005 126.946L170.048 127.076L169.09 127.164L168.133 127.253L167.176 127.296L166.219 127.341H165.261L163.964 127.318L162.686 127.274L161.432 127.164L160.177 127.011L158.943 126.837L157.709 126.619L156.517 126.355L155.326 126.07L154.156 125.72L152.986 125.35L151.858 124.955L150.731 124.496L149.625 124.014L148.539 123.511L147.476 122.965L146.412 122.372L185.706 47.6738L185.28 48.7907L184.855 49.9076L184.451 51.0433L184.068 52.1824L183.706 53.3189L183.344 54.4789L183.004 55.6392L182.685 56.8207L182.387 58.0029L182.089 59.184L181.813 60.3655L181.558 61.5689L181.324 62.7719L181.11 63.9753L180.897 65.1999L180.728 66.4256L180.472 68.3747L180.259 70.2996L180.111 72.203L180.005 74.1063L179.941 75.9878V77.8473L179.982 79.6853L180.047 81.5014L180.195 83.3171L180.366 85.0889L180.579 86.8392L180.834 88.5691L181.153 90.2755L181.493 91.9589L181.897 93.6227L182.324 95.2415L182.791 96.8391L183.302 98.414L183.855 99.9462L184.451 101.478L185.089 102.944L185.748 104.387L186.471 105.809L187.216 107.189L188.003 108.523L188.812 109.837L189.662 111.105L190.557 112.331L191.47 113.535L192.429 114.692L193.406 115.81L194.429 116.881Z" fill="#5CA47A" stroke="white" stroke-width="0.755906" stroke-miterlimit="22.9256"/>
<path fill-rule="evenodd" clip-rule="evenodd" d="M60.3359 3.47705L61.6342 3.49859L62.9098 3.56473L64.1865 3.65091L65.4202 3.80549L66.6757 3.98011L67.8886 4.20007L69.1011 4.46085L70.2712 4.76851L71.4625 5.09583L72.6111 5.46811L73.7597 5.88347L74.8663 6.32115L75.9722 6.80265L77.0566 7.3057L78.1209 7.87453L79.1848 8.44298L20.4249 120.14L19.1058 119.157L17.8298 118.086L16.5955 116.968L15.4049 115.788L14.234 114.562L13.127 113.271L12.043 111.935L11.0222 110.536L10.0425 109.114L9.10707 107.625L8.21324 106.094L7.36247 104.52L6.57479 102.9L5.83099 101.238L5.12875 99.5307L4.49003 97.78L3.89476 95.9851L3.34219 94.1695L2.85236 92.3107L2.42716 90.4062L2.0443 88.482L1.72415 86.5341L1.44751 84.5426L1.25662 82.507L1.10772 80.4728L1.0015 78.3941L0.97998 76.2722L1.0015 74.1493L1.10772 72.0052L1.25662 69.8172L1.49132 67.6292L1.76763 65.4197L2.27823 62.2249L2.91621 59.0731L3.68271 55.9883L4.55466 52.9257L5.53317 49.9278L6.61753 46.9972L7.80882 44.13L9.10707 41.3075L10.4896 38.5719L11.9784 35.9039L13.5533 33.3005L15.191 30.7841L16.9356 28.3554L18.7445 26.0136L20.6161 23.7814L22.5732 21.6158L24.5945 19.5586L26.68 17.6114L28.8287 15.7737L31.0204 14.0665L33.2749 12.4485L35.5513 10.9594L37.892 9.58136L40.2742 8.33299L42.6984 7.24108L45.146 6.255L47.6356 5.42426L50.124 4.74546L52.6563 4.20007L55.2083 3.80549L57.7613 3.56473L60.3359 3.47705Z" fill="#5CA47A" stroke="white" stroke-width="0.755906" stroke-miterlimit="22.9256"/>
<path fill-rule="evenodd" clip-rule="evenodd" d="M121.628 3.47705L122.925 3.49859L124.202 3.56473L125.457 3.65091L126.712 3.80549L127.946 3.98011L129.18 4.20007L130.371 4.46085L131.564 4.76851L132.754 5.09583L133.902 5.46811L135.031 5.88347L136.157 6.32115L137.264 6.80265L138.349 7.3057L139.412 7.87453L140.477 8.44298L81.7162 120.14L80.398 119.157L79.1216 118.086L77.8868 116.968L76.674 115.788L75.5254 114.562L74.4195 113.271L73.3351 111.935L72.3128 110.536L71.335 109.114L70.3992 107.625L69.505 106.094L68.6538 104.52L67.8673 102.9L67.1224 101.238L66.4205 99.5307L65.7825 97.78L65.1865 95.9851L64.6332 94.1695L64.1433 92.3107L63.7185 90.4062L63.3356 88.482L63.0163 86.5341L62.7404 84.5426L62.5484 82.507L62.3995 80.4728L62.2925 78.3941L62.2725 76.2722L62.2925 74.1493L62.3995 72.0052L62.5484 69.8172L62.7608 67.6292L63.059 65.4197L63.5703 62.2249L64.2076 59.0731L64.9741 55.9883L65.8453 52.9257L66.8249 49.9278L67.91 46.9972L69.1013 44.13L70.3992 41.3075L71.7814 38.5719L73.2709 35.9039L74.8231 33.3005L76.4827 30.7841L78.2281 28.3554L80.0362 26.0136L81.9079 23.7814L83.8664 21.6158L85.8869 19.5586L87.971 17.6114L90.12 15.7737L92.311 14.0665L94.5455 12.4485L96.8427 10.9594L99.1826 9.58136L101.566 8.33299L103.991 7.24108L106.438 6.255L108.926 5.42426L111.415 4.74546L113.947 4.20007L116.501 3.80549L119.053 3.56473L121.628 3.47705Z" fill="#5CA47A" stroke="white" stroke-width="0.755906" stroke-miterlimit="22.9256"/>
<path fill-rule="evenodd" clip-rule="evenodd" d="M182.919 3.47705L184.217 3.49859L185.494 3.56473L186.749 3.65091L188.003 3.80549L189.238 3.98011L190.472 4.20007L191.663 4.46085L192.855 4.76851L194.024 5.09583L195.194 5.46811L196.322 5.88347L197.45 6.32115L198.556 6.80265L199.641 7.3057L200.704 7.87453L201.768 8.44298L143.008 120.14L141.689 119.157L140.412 118.086L139.179 116.968L137.966 115.788L136.818 114.562L135.69 113.271L134.626 111.935L133.606 110.536L132.627 109.114L131.669 107.625L130.797 106.094L129.946 104.52L129.159 102.9L128.393 101.238L127.712 99.5307L127.052 97.78L126.457 95.9851L125.925 94.1695L125.435 92.3107L125.01 90.4062L124.627 88.482L124.308 86.5341L124.031 84.5426L123.819 82.507L123.67 80.4728L123.584 78.3941L123.563 76.2722L123.584 74.1493L123.691 72.0052L123.84 69.8172L124.053 67.6292L124.35 65.4197L124.861 62.2249L125.5 59.0731L126.266 55.9883L127.138 52.9257L128.117 49.9278L129.2 46.9972L130.393 44.13L131.69 41.3075L133.073 38.5719L134.563 35.9039L136.115 33.3005L137.775 30.7841L139.498 28.3554L141.328 26.0136L143.2 23.7814L145.157 21.6158L147.178 19.5586L149.263 17.6114L151.39 15.7737L153.603 14.0665L155.837 12.4485L158.134 10.9594L160.475 9.58136L162.858 8.33299L165.282 7.24108L167.729 6.255L170.197 5.42426L172.707 4.74546L175.238 4.20007L177.792 3.80549L180.345 3.56473L182.919 3.47705Z" fill="#5CA47A" stroke="white" stroke-width="0.755906" stroke-miterlimit="22.9256"/>
<path fill-rule="evenodd" clip-rule="evenodd" d="M304.649 2.1582L305.947 2.17976L307.223 2.2459L308.499 2.33282L309.754 2.48664L310.988 2.6605L312.201 2.88048L313.414 3.14278L314.605 3.44966L315.775 3.77812L316.924 4.14888L318.074 4.56463L319.201 5.0023L320.285 5.48382L321.37 6.00917L322.456 6.55607L323.497 7.12413L291.373 68.2138L291.501 67.5784L291.608 66.9457L291.735 66.3104L291.842 65.6543L291.948 65.0189L292.055 64.384L292.16 63.7279L292.245 63.094L292.522 61.0807L292.734 59.0904L292.905 57.1197L293.011 55.1517L293.076 53.2037L293.117 51.2788L293.096 49.3751L293.033 47.4717L292.905 45.6114L292.756 43.7742L292.565 41.9351L292.309 40.1409L292.033 38.3475L291.692 36.5969L291.331 34.8696L290.927 33.1624L290.479 31.4779L289.991 29.8353L289.458 28.2162L288.884 26.6197L288.267 25.044L287.629 23.5133L286.948 22.0245L286.224 20.5592L285.458 19.1143L284.672 17.7144L283.843 16.3571L282.991 15.0233L282.097 13.7107L281.162 12.4623L280.205 11.2374L279.204 10.0559L279.949 9.59784L280.694 9.13785L281.438 8.7002L282.204 8.28482L282.97 7.86795L283.736 7.47486L284.502 7.08143L285.268 6.70989L286.054 6.33761L286.842 6.00917L287.607 5.65918L288.395 5.35229L289.182 5.04615L289.991 4.76229L290.777 4.47807L291.587 4.21389L292.374 3.97503L293.182 3.75505L293.99 3.5366L294.798 3.33969L295.607 3.14278L296.437 2.96816L297.245 2.81508L298.054 2.68355L298.884 2.57358L299.692 2.46359L300.521 2.37667L301.351 2.28973L302.181 2.22283L302.99 2.20205L303.819 2.1582H304.649Z" fill="#825F70" stroke="#825F70" stroke-width="0.755906" stroke-miterlimit="22.9256"/>
<path fill-rule="evenodd" clip-rule="evenodd" d="M305.276 49.9342L327.105 8.64697L327.829 9.16968L328.53 9.71808L329.21 10.2642L329.89 10.8557L330.55 11.4453L331.19 12.0368L331.805 12.6722L332.402 13.306L332.976 13.941L333.53 14.6194L334.083 15.2963L334.593 15.9978L335.082 16.6981L335.571 17.4196L336.018 18.1634L336.444 18.9069L336.868 19.673L337.251 20.4391L337.613 21.2267L337.954 22.0356L338.273 22.8455L338.57 23.677L338.848 24.5081L339.082 25.3612L339.316 26.2157L339.507 27.0907L339.677 27.9653L339.826 28.8637L339.932 29.7602L340.039 30.6778L340.103 31.5978L340.145 32.5173V33.3481V34.1788L340.103 35.0114L340.06 35.8214L339.975 36.6521L339.89 37.4609L339.762 38.2932L339.635 39.1032L339.486 39.9124L339.294 40.7227L339.103 41.5319L338.89 42.3188L338.656 43.1284L338.423 43.916L338.147 44.7044L337.847 45.4909L337.551 46.2801L337.23 47.0447L336.891 47.8108L336.529 48.5766L336.146 49.3426L335.762 50.1088L335.337 50.8514L334.912 51.596L334.487 52.3175L334.019 53.0629L333.551 53.7832L333.04 54.4847L332.551 55.2062L332.018 55.9077L331.487 56.6065L330.933 57.2842L331.636 57.8096L332.339 58.3572L332.997 58.9037L333.658 59.4737L334.296 60.0637L334.912 60.6552L335.508 61.2886L336.082 61.9239L336.656 62.5578L337.188 63.2154L337.72 63.8919L338.23 64.5934L338.699 65.2934L339.166 65.9934L339.614 66.7368L340.039 67.4591L340.422 68.2252L340.805 68.9913L341.166 69.7563L341.485 70.5662L341.805 71.3539L342.102 72.1634L342.358 72.9957L342.592 73.8264L342.804 74.6798L342.997 75.5329L343.167 76.4075L343.315 77.2824L343.421 78.1801L343.507 79.0769L343.571 79.9742L343.614 80.8934V82.8198L343.486 84.7013L343.252 86.6047L342.911 88.4857L342.485 90.323L341.933 92.1836L341.295 94.0001L340.549 95.7934L339.719 97.5434L338.806 99.2944L337.784 100.98L336.678 102.664L335.508 104.283L334.231 105.879L332.891 107.412L331.487 108.921L329.997 110.366L328.445 111.766L326.828 113.1L325.126 114.391L323.382 115.617L321.573 116.777L319.701 117.871L317.786 118.898L315.829 119.863L313.808 120.737L311.744 121.546L309.638 122.268L307.489 122.925L305.32 123.472L303.085 123.954L300.852 124.326L299.703 124.5L298.575 124.632L297.447 124.719L296.32 124.807L295.213 124.872L294.108 124.895L293.002 124.915L291.916 124.895L290.831 124.851L289.767 124.785L288.705 124.698L287.662 124.588L286.619 124.456L285.598 124.304L284.577 124.129L283.577 123.932L282.577 123.714L281.598 123.472L280.62 123.187L279.662 122.904L278.725 122.596L277.812 122.268L276.896 121.94L275.982 121.569L275.11 121.175L274.238 120.759L273.386 120.344L272.535 119.906L271.727 119.424L270.919 118.942L270.132 118.439L269.365 117.936L291.257 76.4967L305.276 49.9342Z" fill="#825F70" stroke="#825F70" stroke-width="0.755906" stroke-miterlimit="22.9256"/>
<path d="M33.022 208.651H47.0376C46.6827 217.796 40.9198 223.358 32.6664 223.358C23.1333 223.358 16.73 216.186 16.73 203.309C16.73 190.576 22.7054 183.333 32.8795 183.333C39.781 183.333 44.5477 187.064 45.8278 193.284H54.2951C52.8018 182.453 44.8327 175.795 32.3115 175.795C17.6537 175.795 7.97852 186.551 7.97852 203.528C7.97852 220.357 17.8684 231.187 31.7415 231.187C38.5711 231.187 44.0499 228.407 47.8204 223.138L49.2434 229.796H54.8647V201.406H33.022V208.651Z" fill="#825F70" stroke="#825F70" stroke-width="0.755906" stroke-miterlimit="22.9256"/>
<path d="M95.5015 209.894C95.5015 218.82 91.8727 223.21 83.763 223.21C75.6514 223.21 72.0949 218.82 72.0949 209.894V177.187H63.5562V210.406C63.5562 224.163 70.4579 231.26 83.763 231.26C96.4974 231.26 104.039 223.943 104.039 210.406V177.187H95.5015V209.894Z" fill="#825F70" stroke="#825F70" stroke-width="0.755906" stroke-miterlimit="22.9256"/>
<path d="M121.843 208.869L129.457 186.039L137.069 208.869H121.843ZM124.69 177.187L105.978 229.796H114.871L119.497 216.186H139.417L143.971 229.796H153.078L134.294 177.187H124.69Z" fill="#825F70" stroke="#825F70" stroke-width="0.755906" stroke-miterlimit="22.9256"/>
<path d="M200.774 177.187H190.886L179.36 196.21L167.905 177.187H157.874L174.166 202.868L157.304 229.796H167.408L179.218 209.821L191.171 229.796H201.273L184.341 202.795L200.774 177.187Z" fill="#825F70" stroke="#825F70" stroke-width="0.755906" stroke-miterlimit="22.9256"/>
<path d="M238.201 209.894C238.201 218.82 234.572 223.21 226.46 223.21C218.35 223.21 214.792 218.82 214.792 209.894V177.187H206.255V210.406C206.255 224.163 213.156 231.26 226.46 231.26C239.196 231.26 246.738 223.943 246.738 210.406V177.187H238.201V209.894Z" fill="#825F70" stroke="#825F70" stroke-width="0.755906" stroke-miterlimit="22.9256"/>
<path d="M275.708 201.406H264.679V184.796H276.205C282.324 184.796 285.311 187.21 285.311 193.138C285.311 199.43 282.11 201.406 275.708 201.406ZM286.734 179.088C283.462 177.259 279.905 177.187 275.636 177.187H256.142V229.796H264.679V209.089H276.276C281.257 209.089 284.956 208.651 288.015 206.309C291.787 203.456 293.85 198.991 293.85 193.356C293.85 186.552 291.359 181.649 286.734 179.088Z" fill="#825F70" stroke="#825F70" stroke-width="0.755906" stroke-miterlimit="22.9256"/>
<path d="M332.221 167.393H321.603L314.632 174.457H321.833L332.221 167.393Z" fill="#825F70" stroke="#825F70" stroke-width="0.755906" stroke-miterlimit="22.9256"/>
<path d="M309.936 221.894V206.015H336.046V198.626H309.936V184.868H338.252V177.187H301.54V229.796H339.177V221.894H309.936Z" fill="#825F70" stroke="#825F70" stroke-width="0.755906" stroke-miterlimit="22.9256"/>
<path d="M11.2858 151.523H21.5703V148.612H11.2858V143.194H22.4392V140.167H7.97949V160.89H22.8036V157.778H11.2858V151.523Z" fill="#825F70" stroke="#825F70" stroke-width="0.755906" stroke-miterlimit="22.9256"/>
<path d="M40.9935 140.167H37.0987L32.5587 147.662L28.0463 140.167H24.0952L30.5125 150.284L23.8711 160.89H27.8502L32.502 153.024L37.2094 160.89H41.1893L34.5203 150.256L40.9935 140.167Z" fill="#825F70" stroke="#825F70" stroke-width="0.755906" stroke-miterlimit="22.9256"/>
<path d="M50.9727 149.708H46.6296V143.165H51.1688C53.579 143.165 54.7556 144.116 54.7556 146.45C54.7556 148.93 53.4947 149.708 50.9727 149.708ZM55.3169 140.916C54.0281 140.197 52.6266 140.167 50.9447 140.167H43.2666V160.891H46.6296V152.734H51.1968C53.1584 152.734 54.6154 152.561 55.8206 151.639C57.3064 150.514 58.1194 148.757 58.1194 146.539C58.1194 143.856 57.1382 141.926 55.3169 140.916Z" fill="#825F70" stroke="#825F70" stroke-width="0.755906" stroke-miterlimit="22.9256"/>
<path d="M70.1718 158.47C66.3043 158.47 63.922 155.588 63.922 150.544C63.922 145.47 66.3322 142.617 70.1718 142.617C74.0394 142.617 76.4209 145.47 76.4209 150.544C76.4209 155.588 74.0394 158.47 70.1718 158.47ZM70.1718 139.621C64.2025 139.621 60.5034 143.714 60.5034 150.544C60.5034 157.375 64.2025 161.467 70.1718 161.467C76.1405 161.467 79.8395 157.347 79.8395 150.544C79.8395 143.742 76.1405 139.621 70.1718 139.621Z" fill="#825F70" stroke="#825F70" stroke-width="0.755906" stroke-miterlimit="22.9256"/>
<path d="M91.3333 149.45H86.5412V143.079H91.4168C93.9389 143.079 95.2844 143.829 95.2844 146.22C95.2844 148.641 93.9684 149.45 91.3333 149.45ZM98.3674 157.892L98.1992 154.924C98.0869 152.676 97.6946 151.408 95.789 150.774C97.6111 150.054 98.6758 148.325 98.6758 145.961C98.6758 142.359 96.5177 140.196 92.9865 140.196C92.875 140.196 92.5106 140.167 91.9214 140.167H83.2334V160.89H86.5692V152.358H91.6417C94.304 152.358 94.7239 153.511 94.8365 155.674L94.948 158.152C95.0047 159.247 95.0603 160.142 95.4526 160.89H99.2075V160.284C98.4513 159.853 98.4233 159.103 98.3674 157.892Z" fill="#825F70" stroke="#825F70" stroke-width="0.755906" stroke-miterlimit="22.9256"/>
<path d="M116.333 140.167H100.584V143.194H106.805V160.89H110.14V143.194H116.333V140.167Z" fill="#825F70" stroke="#825F70" stroke-width="0.755906" stroke-miterlimit="22.9256"/>
<path d="M121.772 152.647L124.772 143.656L127.769 152.647H121.772ZM122.894 140.167L115.522 160.89H119.026L120.848 155.53H128.695L130.488 160.89H134.076L126.677 140.167H122.894Z" fill="#825F70" stroke="#825F70" stroke-width="0.755906" stroke-miterlimit="22.9256"/>
<path d="M143.579 157.835H139.458V143.108H143.802C147.473 143.108 149.407 145.585 149.407 150.285C149.407 155.444 147.558 157.835 143.579 157.835ZM143.942 140.167H136.151V160.89H143.382C149.52 160.89 152.825 157.115 152.825 150.458C152.825 143.625 149.856 140.167 143.942 140.167Z" fill="#825F70" stroke="#825F70" stroke-width="0.755906" stroke-miterlimit="22.9256"/>
<path d="M165.019 158.47C161.152 158.47 158.77 155.588 158.77 150.544C158.77 145.47 161.18 142.617 165.019 142.617C168.886 142.617 171.269 145.47 171.269 150.544C171.269 155.588 168.886 158.47 165.019 158.47ZM165.019 139.621C159.051 139.621 155.352 143.714 155.352 150.544C155.352 157.375 159.051 161.467 165.019 161.467C170.988 161.467 174.688 157.347 174.688 150.544C174.688 143.742 170.988 139.621 165.019 139.621Z" fill="#825F70" stroke="#825F70" stroke-width="0.755906" stroke-miterlimit="22.9256"/>
<path d="M186.18 149.45H181.388V143.079H186.264C188.786 143.079 190.132 143.829 190.132 146.22C190.132 148.641 188.814 149.45 186.18 149.45ZM193.214 157.892L193.046 154.924C192.933 152.676 192.543 151.408 190.637 150.774C192.458 150.054 193.522 148.325 193.522 145.961C193.522 142.359 191.364 140.196 187.834 140.196C187.721 140.196 187.357 140.167 186.769 140.167H178.081V160.89H181.416V152.358H186.488C189.15 152.358 189.57 153.511 189.683 155.674L189.795 158.152C189.851 159.247 189.907 160.142 190.299 160.89H194.055V160.284C193.298 159.853 193.27 159.103 193.214 157.892Z" fill="#825F70" stroke="#825F70" stroke-width="0.755906" stroke-miterlimit="22.9256"/>
<path d="M201.372 152.647L204.372 143.656L207.369 152.647H201.372ZM202.493 140.167L195.123 160.89H198.626L200.448 155.53H208.293L210.088 160.89H213.674L206.277 140.167H202.493Z" fill="#825F70" stroke="#825F70" stroke-width="0.755906" stroke-miterlimit="22.9256"/>
<path d="M230.97 157.835H226.851V143.108H231.194C234.865 143.108 236.799 145.585 236.799 150.285C236.799 155.444 234.949 157.835 230.97 157.835ZM231.334 140.167H223.543V160.89H230.774C236.911 160.89 240.217 157.115 240.217 150.458C240.217 143.625 237.247 140.167 231.334 140.167Z" fill="#825F70" stroke="#825F70" stroke-width="0.755906" stroke-miterlimit="22.9256"/>
<path d="M246.917 151.523H257.203V148.612H246.917V143.194H258.071V140.167H243.61V160.89H258.435V157.778H246.917V151.523Z" fill="#825F70" stroke="#825F70" stroke-width="0.755906" stroke-miterlimit="22.9256"/>
<path d="M278.028 158.355C274.357 158.355 272.031 155.414 272.031 150.4C272.031 145.528 274.218 142.704 278.084 142.704C280.97 142.704 282.821 144.145 283.185 146.652H286.492C286.128 142.328 283.044 139.621 278.141 139.621C272.171 139.621 268.612 143.656 268.612 150.544C268.612 157.347 272.144 161.467 277.888 161.467C282.849 161.467 286.407 158.152 286.576 153.453H283.297C283.073 156.423 280.97 158.355 278.028 158.355Z" fill="#825F70" stroke="#825F70" stroke-width="0.755906" stroke-miterlimit="22.9256"/>
<path d="M293.893 152.647L296.892 143.656L299.891 152.647H293.893ZM295.015 140.167L287.644 160.89H291.146L292.969 155.53H300.814L302.609 160.89H306.195L298.798 140.167H295.015Z" fill="#825F70" stroke="#825F70" stroke-width="0.755906" stroke-miterlimit="22.9256"/>
<path d="M308.272 160.89H311.579V151.755H320.742V148.757H311.579V143.194H322.031V140.167H308.272V160.89Z" fill="#825F70" stroke="#825F70" stroke-width="0.755906" stroke-miterlimit="22.9256"/>
<path d="M328.116 157.777V151.523H338.4V148.612H328.116V143.194H339.269V140.167H324.808V160.891H339.633V157.777H328.116Z" fill="#825F70" stroke="#825F70" stroke-width="0.755906" stroke-miterlimit="22.9256"/>
<path d="M336.893 135.48H332.711L329.965 138.263H332.802L336.893 135.48Z" fill="#825F70" stroke="#825F70" stroke-width="0.755906" stroke-miterlimit="22.9256"/>
</svg>
