<svg width="196" height="246" viewBox="0 0 196 246" fill="none" xmlns="http://www.w3.org/2000/svg">
<path d="M92.5606 0C84.5178 8.11011 76.9255 16.4651 69.7837 25.0658C56.9869 40.4814 45.9568 56.6582 36.6924 73.5965C25.912 93.3044 17.291 113.676 10.8284 134.711C10.8212 134.732 10.8102 134.751 10.7955 134.768C10.7388 134.83 10.6431 134.837 10.5819 134.782C10.5653 134.767 10.5524 134.749 10.5445 134.728C-8.13583 91.7911 6.54424 41.9815 45.5157 15.9443C58.1072 7.52957 72.1107 2.42002 87.5263 0.615299C88.9561 0.448622 90.381 0.243402 91.8009 0H92.5606Z" fill="#402E2D"/>
<path d="M195.7 92.8824V99.2729C195.203 112.678 192.11 125.424 186.42 137.509C186.399 137.556 186.352 137.587 186.3 137.587C186.241 137.587 186.189 137.547 186.175 137.49C177.044 105.12 162.926 73.7501 144.226 46.4339C132.949 29.9605 120.215 14.5948 106.024 0.336169C106.002 0.313114 105.989 0.28212 105.989 0.249616C105.989 0.180451 106.045 0.124512 106.114 0.124512C106.116 0.124512 106.118 0.124521 106.12 0.124899C155.569 3.69731 193.627 43.4961 195.7 92.8824Z" fill="#402E2D"/>
<path d="M132.384 62.7827C132.715 61.4073 133.826 60.84 135.191 61.2535C147.967 65.1196 155.05 78.3906 156.719 90.7527C157.975 100.1 156.714 108.879 152.934 117.088C149.52 124.503 143.626 130.898 135.874 133.47C133.442 134.278 130.734 134.451 131.633 130.778C133.262 124.097 133.786 117.288 133.206 110.351C131.864 94.3304 130.662 84.882 131.21 72.2217C131.335 69.3557 131.72 65.5425 132.384 62.7827Z" fill="#402E2D"/>
<path d="M123.627 61.2196C124.902 60.859 126.291 61.4169 126.075 63.0035C124.979 71.0623 124.706 79.073 125.258 87.0357C125.773 94.4727 126.338 101.323 126.95 107.587C127.768 116.006 127.402 124.19 124.964 132.152C124.248 134.494 121.108 132.951 119.43 132.076C115.878 130.219 112.85 127.708 110.347 124.541C102.139 114.159 99.8644 100.043 102.557 87.2711C104.913 76.1015 112.005 64.5565 123.627 61.2196Z" fill="#402E2D"/>
<path d="M71.4278 64.1287C71.6251 62.8017 72.5533 61.7339 73.9763 62.1092C84.8481 64.9798 92.0655 75.6063 94.7486 85.9248C97.1301 95.0962 96.9139 104.153 94.0993 113.097C91.0269 122.853 84.1508 131.777 73.9956 134.73C72.0242 135.302 69.7644 135.009 70.2501 132.47C71.997 123.34 72.5915 114.164 72.034 104.942C71.989 104.198 71.5884 98.9891 70.8317 89.3147C70.1586 80.7654 70.168 72.5434 71.4278 64.1287Z" fill="#402E2D"/>
<path d="M63.9076 132.859C63.3497 134.028 61.9505 134.436 60.7774 133.975C49.7854 129.647 43.3424 118.025 41.4383 106.942C39.6623 96.6075 40.9749 86.9123 45.3762 77.8565C48.819 70.7688 54.9017 64.494 62.5855 62.2388C63.6657 61.9217 64.5263 62.215 65.1677 63.1186C65.2705 63.2615 65.3313 63.4267 65.346 63.5998C65.3615 63.7472 65.2859 64.409 65.1193 65.5856C64.6355 68.9996 64.3853 72.702 64.3694 76.6928C64.3467 82.7707 64.5747 88.3001 65.052 93.2816C65.6386 99.3851 65.9977 104.673 66.1292 109.144C66.3665 117.136 65.6564 124.956 63.999 132.605C63.9798 132.692 63.9491 132.778 63.9076 132.861V132.859Z" fill="#402E2D"/>
<path d="M174.62 155.867C174.627 155.865 174.635 155.865 174.642 155.865C174.701 155.865 174.748 155.912 174.748 155.97C174.748 155.994 174.74 156.017 174.726 156.035C153.41 182.361 120.781 195.834 87.0743 191.665C61.5659 188.511 38.4621 175.283 22.681 155.03C22.6685 155.015 22.6614 154.995 22.6614 154.975C22.6614 154.927 22.7003 154.889 22.7479 154.889C22.7547 154.889 22.7615 154.889 22.7676 154.891C36.6929 157.866 50.4991 160.145 64.1866 161.729C101.371 166.024 138.183 164.07 174.62 155.867Z" fill="#402E2D"/>
<path d="M184.924 203.408H184.236C184.236 203.407 184.236 203.407 184.235 203.407C184.153 203.407 184.086 203.34 184.086 203.258C184.086 203.243 184.088 203.229 184.092 203.215L187.011 193.613C187.03 193.55 187.088 193.507 187.154 193.507C187.154 193.507 187.155 193.507 187.155 193.507L193.142 193.507C193.223 193.509 193.287 193.575 193.287 193.656C193.287 193.691 193.275 193.725 193.252 193.752L185.035 203.355C185.007 203.387 184.967 203.407 184.924 203.407V203.408Z" fill="#402E2D"/>
<path d="M0 221.064V219.549C0.147402 217.562 0.48264 215.88 1.00497 214.505C3.34677 208.326 10.4821 204.355 16.9497 207.125C18.9834 207.999 21.7051 210.351 21.4549 212.846C21.1661 215.673 17.3726 215.606 16.0792 213.688C15.9749 213.53 15.9092 213.364 15.8793 213.189C15.6608 212.077 15.6416 210.163 14.3769 209.014C12.8288 207.605 9.70806 208.125 8.27525 209.163C1.62025 213.976 4.57736 231.613 14.7617 229.555C18.113 228.877 20.027 226.391 21.2145 223.401C21.2836 223.204 21.4692 223.073 21.6771 223.073C21.9481 223.073 22.1677 223.293 22.1677 223.563C22.1677 223.597 22.1643 223.632 22.1571 223.665C21.7496 226.085 20.7719 228.246 19.2238 230.147C15.6223 234.566 9.66462 235.623 5.06796 231.984C1.35118 229.041 0.557858 225.665 0 221.064Z" fill="#402E2D"/>
<path d="M40.1538 206.235C47.3315 206.988 52.3355 213.841 51.5241 221.556C50.7126 229.272 44.3929 234.934 37.4113 234.2C30.4294 233.466 25.4257 226.613 26.2372 218.898C27.0482 211.182 33.368 205.52 40.3499 206.254L40.1538 206.235ZM31.716 221.064C32.3555 226.059 34.8462 232.796 40.4622 232.075C46.0785 231.353 46.7804 224.203 46.1409 219.208C45.4969 214.217 43.0058 207.475 37.3943 208.196C31.7783 208.918 31.0715 216.068 31.716 221.064Z" fill="#402E2D"/>
<path d="M69.5515 206.233C69.7722 206.254 69.7722 206.254 69.7722 206.254C76.7511 206.988 81.753 213.84 80.9415 221.556C80.13 229.271 73.8125 234.933 66.8333 234.2C59.8544 233.466 54.8525 226.614 55.6636 218.898C56.4751 211.182 62.793 205.52 69.7719 206.254L69.5515 206.233ZM61.1428 221.064C61.7872 226.059 64.2779 232.796 69.8894 232.07C75.5054 231.349 76.2072 224.198 75.5632 219.208C74.9188 214.217 72.4281 207.48 66.8117 208.201C61.2006 208.922 60.4984 216.072 61.1428 221.064Z" fill="#402E2D"/>
<path d="M150.948 212.246C150.948 212.246 150.948 212.247 150.948 212.248C150.948 212.287 150.981 212.32 151.02 212.32C151.047 212.32 151.07 212.306 151.083 212.284C153.617 208.192 156.93 205.11 162.037 206.682C163.678 207.189 165.106 208.213 166.321 209.755C172.408 217.467 169.076 233.883 157.339 234.21C154.944 234.274 152.865 233.546 151.102 232.027C151.096 232.02 151.087 232.014 151.078 232.011C151.036 231.994 150.987 232.016 150.969 232.06C150.966 232.069 150.963 232.079 150.963 232.088C150.902 235.823 150.923 239.138 151.025 242.033C151.112 244.543 153.064 244.98 155.161 244.908C155.158 244.908 155.16 244.908 155.162 244.908C155.297 244.904 155.41 245.012 155.415 245.15C155.415 245.151 155.415 245.153 155.415 245.155V245.793C155.416 245.913 155.319 246.01 155.199 246.01H141.841C141.696 246.01 141.577 245.889 141.577 245.74V245.211C141.577 245.211 141.577 245.211 141.577 245.21C141.577 245.051 141.706 244.922 141.866 244.922C141.874 244.922 141.882 244.922 141.889 244.923C142.717 244.997 143.548 244.904 144.385 244.644C146.404 244.009 146.188 241.836 146.188 239.816C146.195 230.43 146.195 222.016 146.188 214.573C146.183 212.043 146.188 209.264 142.51 210.447C142.461 210.463 142.41 210.471 142.359 210.471C142.159 210.471 141.979 210.349 141.904 210.163L141.827 209.961C141.812 209.923 141.804 209.883 141.804 209.842C141.804 209.708 141.886 209.588 142.01 209.538L150.141 206.312C150.209 206.285 150.283 206.271 150.357 206.271C150.683 206.271 150.947 206.534 150.948 206.86V212.246ZM150.953 214.587C150.95 216.751 150.948 220.057 150.948 224.507C150.948 226.84 151.158 228.425 151.578 229.262C153.203 232.508 157.671 233.431 160.522 231.445C164.979 228.334 164.773 219.246 162.96 215.116C161.743 212.342 159.757 210.192 156.574 210.442C154.334 210.62 152.42 212.418 151.136 214.058C151.014 214.215 150.951 214.403 150.953 214.596V214.587Z" fill="#402E2D"/>
<path d="M195.7 215.669V216.977L177.712 216.972C177.587 216.972 177.486 217.073 177.486 217.198C177.529 220.958 178.486 224.583 181.299 227.122C183.563 229.171 186.439 229.959 189.223 229.2C192.243 228.377 193.502 226.213 194.724 223.468C194.726 223.464 194.727 223.46 194.729 223.457C194.788 223.341 194.928 223.295 195.041 223.352C195.045 223.354 195.048 223.356 195.051 223.358L195.7 223.728V224.122C194.507 229.397 190.704 234.147 185.001 234.181C178.996 234.215 174.495 229.406 173.692 223.684C172.716 216.698 174.649 209.404 181.741 206.894C184.948 205.759 188.911 206.143 191.68 208.196C193.994 209.915 195.334 212.406 195.7 215.669ZM177.846 215.375L189.646 215.356C189.721 215.356 189.781 215.296 189.781 215.221V215.029C189.78 214.934 189.78 214.933 189.78 214.933C189.715 211.25 186.967 208.308 183.642 208.366L183.727 208.365C183.622 208.366 183.62 208.366 183.62 208.366C180.294 208.424 177.648 211.459 177.713 215.143L177.712 215.241C177.712 215.315 177.772 215.375 177.846 215.375Z" fill="#402E2D"/>
<path d="M95.8543 222.064C95.6714 222.24 94.2722 224.091 91.6568 227.617C90.8967 228.64 90.3374 229.528 89.9787 230.281C89.8849 230.474 89.8744 230.703 89.9526 230.906C90.3223 231.829 91.0748 232.312 92.2094 232.353C92.3757 232.358 92.5076 232.495 92.5076 232.661V233.142C92.5079 233.288 92.3874 233.406 92.2385 233.406H84.3143C84.0376 233.404 83.8143 233.179 83.8143 232.901C83.8143 232.682 83.9564 232.488 84.1654 232.421C85.3321 232.059 86.3787 231.285 87.305 230.099C89.4337 227.374 91.921 224.069 94.7677 220.184C94.8199 220.113 94.8222 220.016 94.7734 219.944C92.1761 216.023 89.9609 212.83 88.1271 210.365C87.0469 208.913 85.6878 208.166 84.0497 208.124C83.8411 208.119 83.6748 207.948 83.6748 207.74V207.739V207.408C83.6748 207.211 83.8343 207.052 84.0308 207.052L95.7965 207.052C95.9587 207.052 96.0902 207.185 96.0902 207.35L96.0898 207.793C96.0906 207.946 95.9764 208.079 95.8237 208.1C94.383 208.288 93.2672 209.057 94.2529 210.615C95.3142 212.298 96.478 214.103 97.7441 216.029C97.7664 216.063 97.8042 216.083 97.8446 216.083C97.8824 216.083 97.9183 216.065 97.941 216.034C99.5088 213.894 101.206 211.894 101.975 210.038C102.452 208.898 101.326 208.095 100.283 208.124C100.279 208.124 100.276 208.124 100.273 208.124C100.119 208.124 99.9941 207.999 99.9941 207.845V207.845V207.321C99.9941 207.172 100.115 207.052 100.264 207.052L108.62 207.052C108.772 207.052 108.894 207.175 108.894 207.326V207.783C108.894 207.973 108.751 208.132 108.561 208.153C107.219 208.326 106.138 208.874 105.317 209.798C103.48 211.865 101.402 214.536 99.0806 217.808C99.0257 217.884 99.0227 217.987 99.0745 218.066C102.15 222.581 104.735 226.314 106.832 229.267C108.048 230.978 109.265 232.334 111.371 232.325C111.511 232.325 111.626 232.437 111.626 232.575V233.195C111.626 233.309 111.531 233.401 111.414 233.401L99.3787 233.402C99.2461 233.401 99.1384 233.294 99.1384 233.161V232.661C99.1384 232.661 99.1384 232.661 99.1384 232.661C99.1384 232.517 99.2502 232.4 99.3931 232.392C100.846 232.301 102.485 231.526 101.398 229.772C99.9589 227.451 98.2358 224.893 96.2293 222.097C96.1824 222.032 96.1072 221.994 96.0274 221.994C95.9632 221.994 95.9012 222.019 95.8543 222.064Z" fill="#402E2D"/>
<path d="M132.614 228.954C132.614 228.875 132.549 228.811 132.47 228.811C132.43 228.811 132.392 228.828 132.364 228.858C130.759 230.666 128.364 233.142 126.123 233.786C124.572 234.229 123.281 234.315 122.252 234.046C118.266 232.998 117.117 229.627 116.973 225.747C116.912 224.051 116.896 219.294 116.925 211.476C116.934 208.591 115.165 208.134 112.694 208.119C112.56 208.116 112.453 208.008 112.453 207.874V207.307C112.453 207.166 112.567 207.052 112.708 207.052L121.502 207.052C121.614 207.052 121.704 207.142 121.704 207.254C121.704 213.524 121.704 219.48 121.704 225.122C121.704 227.059 121.993 229.19 123.854 230.166C126.936 231.772 130.364 229.416 132.417 227.098C132.553 226.943 132.627 226.744 132.624 226.54C132.621 226.415 132.618 221.546 132.614 211.933C132.614 210.177 132.22 208.619 130.306 208.317C129.396 208.169 128.809 208.102 128.546 208.115C128.543 208.115 128.54 208.115 128.537 208.115C128.428 208.115 128.34 208.027 128.34 207.918V207.917V207.263C128.34 207.147 128.435 207.052 128.551 207.052L137.062 207.052C137.235 207.052 137.375 207.192 137.375 207.364C137.359 217.892 137.367 224.018 137.399 225.742C137.418 226.918 137.482 227.858 137.591 228.56C137.875 230.454 139.447 230.786 141.063 229.988C141.105 229.967 141.152 229.956 141.199 229.956C141.326 229.956 141.439 230.034 141.486 230.151L141.683 230.642C141.698 230.68 141.706 230.721 141.706 230.763C141.706 230.897 141.625 231.018 141.5 231.07C139.663 231.804 137.168 232.825 134.013 234.132C133.889 234.184 133.506 234.192 132.864 234.157C132.727 234.151 132.616 234.038 132.614 233.9V228.954Z" fill="#402E2D"/>
</svg>
