<svg width="376" height="146" viewBox="0 0 376 146" fill="none" xmlns="http://www.w3.org/2000/svg">
<path d="M351.09 0.863395C351.201 0.90119 351.276 1.00519 351.276 1.12235C351.276 1.19567 351.246 1.26554 351.195 1.31694C343.749 8.65073 338.111 17.536 335.534 27.7317C335.502 27.8621 335.384 27.954 335.25 27.954C335.134 27.954 335.029 27.8852 334.983 27.7787C331.804 20.5817 333.337 12.323 338.586 6.74248C341.608 3.52875 345.375 1.55203 349.888 0.812755C350.353 0.736031 350.754 0.753033 351.09 0.863395Z" fill="#282829"/>
<path d="M355.126 0.787707C355.325 0.758605 355.58 0.77569 355.893 0.838052C363.853 2.42205 369.663 7.81881 371.658 15.743C371.759 16.1508 371.929 17.4771 372.169 19.7214C372.209 20.1005 372.192 20.4912 372.116 20.8703C371.845 22.2124 371.759 23.9944 371.269 25.5463C370.988 26.4416 370.712 27.1942 370.441 27.8038C370.362 27.9777 370.189 28.0899 369.998 28.0899C369.736 28.0899 369.521 27.8821 369.512 27.6201C369.505 27.3703 369.452 27.0872 369.354 26.7705C366.506 17.5537 361.106 8.77274 354.881 1.43215C354.855 1.40229 354.836 1.371 354.821 1.33736C354.733 1.13932 354.823 0.906497 355.023 0.817678C355.056 0.802938 355.092 0.792703 355.127 0.787412L355.126 0.787707Z" fill="#282829"/>
<path d="M345.5 13.3851C345.442 15.9699 345.524 19.0337 345.748 22.5766C345.841 24.0718 345.812 25.3712 345.661 26.4756C345.661 26.4744 345.66 26.4824 345.659 26.4896C345.592 26.9118 345.194 27.1997 344.77 27.1324C344.762 27.1313 344.755 27.1298 344.747 27.1287C342.579 26.6842 340.905 23.8653 340.635 21.968C340.106 18.238 341.309 14.5659 345.046 13.0718C345.084 13.0563 345.126 13.0483 345.168 13.0483C345.351 13.0483 345.5 13.1966 345.5 13.3795C345.5 13.3814 345.5 13.3833 345.5 13.3848V13.3851Z" fill="#282829"/>
<path d="M346.924 27.0547C346.751 27.0215 346.631 26.8681 346.64 26.6942C346.734 24.6465 346.903 23.2961 346.734 21.3413C346.543 19.1598 346.24 16.2362 346.572 13.8925C346.643 13.3562 347.27 12.9167 347.875 13.1329C348.23 13.2603 348.535 13.4176 348.789 13.6046C351.975 15.9589 352.67 19.7248 351.252 23.3573C350.69 24.7905 348.717 27.3968 346.924 27.0547Z" fill="#282829"/>
<path d="M357.869 13.3634C357.807 15.9531 357.886 19.0218 358.107 22.5689C358.2 24.069 358.17 25.371 358.017 26.4754C358.017 26.4754 358.015 26.4845 358.014 26.4928C357.947 26.9154 357.549 27.203 357.125 27.1361C357.118 27.1346 357.11 27.1335 357.103 27.132C354.931 26.6841 353.254 23.8581 352.987 21.957C352.458 18.2198 353.668 14.5409 357.412 13.0464C357.452 13.0302 357.495 13.0215 357.538 13.0215C357.721 13.0215 357.869 13.17 357.869 13.3529C357.869 13.3563 357.869 13.3596 357.869 13.3634Z" fill="#282829"/>
<path d="M359.288 27.0477C359.114 27.014 358.994 26.8601 359.003 26.6862C359.093 24.6393 359.259 23.2889 359.086 21.3341C358.888 19.1488 358.579 16.2253 358.906 13.8816C358.978 13.3453 359.601 12.9023 360.209 13.1185C360.565 13.2458 360.869 13.4027 361.124 13.5902C364.317 15.9373 365.019 19.7033 363.608 23.3396C363.05 24.7762 361.081 27.3863 359.288 27.0477Z" fill="#282829"/>
<path d="M323.437 83.1967C323.468 83.2027 323.497 83.211 323.525 83.2212C323.833 83.3334 323.992 83.6759 323.879 83.9858C323.869 84.0134 323.857 84.0402 323.843 84.0659C322.711 86.1458 321.836 87.6859 321.219 88.6867C315.556 97.9069 306.534 103.674 296.169 106.472C288.004 108.675 279.626 109.251 271.403 108.585C266.601 108.2 261.528 107.156 256.617 105.363C240.812 99.6028 231.394 86.3828 229.616 69.5952C229.296 66.5731 229.254 62.9864 229.489 58.8342C229.551 57.754 229.806 56.6919 229.939 55.3418C230.023 54.4824 230.363 52.8758 230.958 50.5212C232.798 43.2486 236.647 36.7682 242.252 31.8072C244.518 29.8055 246.544 28.2178 248.329 27.0442C254.147 23.2352 260.757 21.1686 267.706 20.1425C268.923 19.9626 270.018 19.8533 270.993 19.8147C272.256 19.7678 273.801 19.5052 275.385 19.498C277.689 19.4837 279.305 19.4477 281.476 19.6204C284.105 19.8291 285.785 19.9829 286.517 20.0812C291.228 20.7173 295.553 21.7589 299.492 23.2061C309.702 26.9614 316.985 33.9672 322.234 43.461C322.282 43.5475 322.307 43.6447 322.307 43.7437C322.307 44.0132 322.123 44.2479 321.86 44.3106L310.703 46.9461C310.409 47.016 310.107 46.8818 309.964 46.6198C309.336 45.4932 308.825 44.6057 308.431 43.9579C305.745 39.526 301.821 36.2284 297.033 34.1331C291.867 31.8684 286.373 30.648 280.767 30.3634C275.211 30.0826 269.86 30.6253 264.714 31.9908C261.56 32.8261 258.54 34.1282 255.652 35.897C249.052 39.9411 244.763 45.7389 242.785 53.2897C242.228 55.4088 241.884 57.3601 241.752 59.1437C241.668 60.2786 241.63 62.2243 241.64 64.9796C241.665 72.6551 244.232 80.3415 248.725 86.1956C254.245 93.3816 264.008 97.1295 272.836 97.907C277.281 98.2985 281.664 98.2732 285.984 97.8314C287.796 97.6443 289.919 97.2398 292.353 96.6181C301.103 94.3837 307.571 89.2715 311.754 81.2812C312.075 80.6693 312.582 80.8242 313.155 80.95C318.879 82.2245 322.307 82.9733 323.437 83.1967Z" fill="#282829"/>
<path d="M24.947 88.8562C24.9451 88.8584 24.9466 88.8566 24.9477 88.8547C25.0615 88.6797 25.297 88.6306 25.4739 88.7455C25.4754 88.7466 25.4772 88.7477 25.4791 88.7488C31.0115 92.5526 37.0134 95.2274 43.4844 96.7733C44.1828 96.9388 45.853 97.234 48.4956 97.6588C49.7629 97.8629 50.8262 97.9732 51.6856 97.9898C53.8351 98.0367 55.8404 98.4437 57.8851 98.3394C59.4222 98.2634 61.9104 98.4007 64.2862 98.1807C65.4288 98.0752 66.5569 97.9578 67.6704 97.8281C76.0016 96.8451 85.9991 93.0039 87.4214 83.4129C87.8103 80.7869 87.5174 78.424 86.5431 76.3241C85.0524 73.116 81.7797 71.2405 78.4677 70.1638C76.7685 69.6093 74.7017 69.0983 72.8331 68.8031C69.4777 68.2653 67.145 67.9453 65.8342 67.8417C64.3678 67.7242 63.5746 67.6558 63.4547 67.6365C61.4637 67.3198 60.3623 67.3953 58.2344 67.1432C56.4992 66.9369 54.9054 66.7966 53.4533 66.7222C51.6785 66.6284 50.2816 66.3118 48.4636 66.2434C46.5912 66.1716 44.4599 65.7825 42.7032 65.5811C39.9022 65.2591 37.1707 64.7516 34.5087 64.058C27.1069 62.1282 21.4188 56.9619 19.6401 49.4267C19.5751 49.1485 19.4315 47.9508 19.2081 45.8339C19.0173 44.0228 19.3124 42.6583 19.4708 40.9303C19.526 40.3324 19.639 39.6868 19.8095 38.9933C21.9585 30.2342 29.2492 24.9236 37.5728 22.4971C39.7664 21.8561 41.4635 21.4257 42.6635 21.2046C49.3359 19.9732 55.7096 19.5737 61.7841 20.0057C67.4942 20.4113 73.0626 21.3138 78.4893 22.713C83.5078 24.0056 88.5159 25.7302 92.9584 28.4484C93.2611 28.6336 93.3602 29.0259 93.1818 29.3305C91.744 31.7978 90.1911 34.445 88.5232 37.2724C88.2469 37.743 87.8894 37.8557 87.4502 37.6108C81.3443 34.1835 74.6262 32.1636 67.5267 30.9504C61.9606 29.9999 56.2686 29.8173 50.4508 30.4031C43.848 31.0691 34.6638 32.9339 31.7729 39.9113C30.8537 42.1337 30.6832 44.3289 31.2614 46.4961C32.5359 51.2519 36.3918 53.5238 41.0795 54.3413C44.706 54.9724 47.3955 55.3421 49.1473 55.4502C50.1965 55.5148 50.9451 55.5881 51.3938 55.6697C53.0428 55.9645 55.2425 55.9754 56.4738 56.1376C58.1947 56.3655 59.4812 56.4989 60.3331 56.5371C62.4644 56.627 63.7642 56.9657 65.7443 57.0303C67.667 57.0954 69.791 57.5489 71.5481 57.6498C72.4265 57.7001 73.0902 57.7878 73.5389 57.9125C74.2736 58.1177 75.195 58.0818 76.1996 58.2761C80.6636 59.1511 84.4908 60.0112 88.2817 62.1788C96.3366 66.7845 99.9331 74.0224 99.0718 83.8919C97.851 97.8999 86.4059 105.414 73.5713 107.635C72.196 107.873 71.4964 107.993 71.4722 107.995C62.7358 109.231 53.7425 109.115 44.4924 107.646C36.4806 106.374 29.075 103.726 22.2756 99.7039C21.3443 99.1517 20.4776 98.5613 19.676 97.9324C19.5188 97.8088 19.4262 97.6195 19.4262 97.4192C19.4262 97.2903 19.4643 97.1644 19.5357 97.0575L24.947 88.8562Z" fill="#282829"/>
<path d="M193.491 54.089C193.354 54.0792 193.215 54.1575 193.073 54.323C191.463 56.1928 182.07 66.8711 164.894 86.3579C164.438 86.8738 163.981 86.8712 163.523 86.3504C154.911 76.5486 145.495 65.8041 135.275 54.1178C135.232 54.0683 135.169 54.0399 135.103 54.0399C134.976 54.0399 134.873 54.1424 134.872 54.269V105.767C134.872 106.124 134.582 106.414 134.224 106.414H122.621C122.265 106.414 121.976 106.126 121.976 105.77V23.5553C121.976 23.5553 121.976 23.5553 121.976 23.5553C121.976 23.3028 122.181 23.0981 122.433 23.0981C122.438 23.0981 122.443 23.0984 122.448 23.0984C122.745 23.1078 123.066 23.3025 123.409 23.6815C135.89 37.4126 149.505 52.3573 164.253 68.5152C164.325 68.5923 164.425 68.6361 164.531 68.6361C164.638 68.6361 164.74 68.5907 164.811 68.5113C168.469 64.4457 181.854 49.5756 204.965 23.9012C205.321 23.5051 205.483 23.199 206.059 23.0947C206.085 23.0901 206.112 23.0879 206.138 23.0879C206.385 23.0879 206.585 23.2873 206.585 23.5338V105.9C206.585 106.182 206.356 106.411 206.074 106.411L194.254 106.411C193.91 106.411 193.631 106.132 193.631 105.788V54.2364C193.631 54.1574 193.569 54.0928 193.491 54.089Z" fill="#282829"/>
<path d="M352.66 32.97C357.559 32.9939 362.548 32.3902 367.63 31.1588C367.795 31.118 367.906 31.1063 367.961 31.1229C367.98 31.1294 368 31.1378 368.018 31.1476C368.194 31.241 368.261 31.4574 368.169 31.6313C368.159 31.6498 368.147 31.6676 368.134 31.6843C364.335 36.4982 358.827 39.2993 352.628 39.2668C346.428 39.2343 340.948 36.3795 337.197 31.53C337.182 31.5103 337.17 31.4918 337.161 31.4725C337.071 31.2972 337.142 31.0821 337.32 30.9914C337.339 30.9819 337.359 30.9736 337.38 30.9672C337.434 30.9513 337.543 30.9634 337.708 31.0042C342.777 32.2908 347.761 32.9459 352.66 32.97Z" fill="#282829"/>
<path d="M0.116211 138.629C0.116211 138.488 0.230796 138.373 0.371772 138.373L1.53471 138.374C1.7218 138.37 1.89219 138.5 1.94397 138.689C2.65263 141.462 4.51336 143.008 7.52527 143.327C9.1361 143.498 10.3924 143.048 11.2949 141.977C11.3573 141.904 11.4056 141.825 11.4408 141.739C12.1192 140.04 10.6649 139.356 9.31109 139.061C5.88117 138.31 4.11728 137.916 4.01902 137.88C3.28087 137.617 2.32314 137.268 1.70406 136.76C-0.319504 135.108 0.130579 131.951 2.07817 130.435C2.54985 130.068 3.65492 129.521 4.36774 129.348C6.55457 128.81 8.58724 129.096 10.4668 130.205C10.5896 130.276 10.7416 130.25 10.8293 130.144L11.5074 129.359C11.6022 129.249 11.736 129.188 11.8751 129.189H13.0301C13.1854 129.189 13.3109 129.315 13.3109 129.47V135.245C13.3109 135.35 13.2274 135.435 13.1238 135.435L11.8169 135.425C11.7274 135.424 11.651 135.359 11.637 135.27C11.6272 135.191 11.4208 134.706 11.0175 133.815C9.92672 131.396 7.38502 130.403 4.86483 130.997C3.4426 131.332 2.13947 133.135 3.73821 134.262C4.29229 134.651 5.38343 134.921 6.05657 135.036C9.58135 135.641 15.5322 136.411 14.1678 141.315C13.5377 143.58 11.0715 144.796 8.86803 145.005C6.81121 145.197 4.9094 144.812 3.16213 143.849C3.04156 143.785 2.89604 143.805 2.80041 143.898L1.78304 144.872C1.7237 144.928 1.64729 144.959 1.56867 144.958H0.328662C0.213386 144.958 0.12005 144.865 0.12005 144.749L0.116211 138.629Z" fill="#373435"/>
<path d="M79.0976 145.164H77.9491C75.6572 145.039 73.7308 144.32 72.1706 143.007C71.0284 142.045 70.2494 140.931 69.8341 139.666C69.0279 137.225 69.5819 134.64 71.1228 132.523C73.2148 129.657 76.8511 128.588 80.2818 129.315C80.9768 129.463 81.715 129.798 82.5034 130.194C82.6146 130.253 82.7563 130.218 82.8296 130.11L83.4215 129.215C83.4755 129.131 83.571 129.078 83.6742 129.078L84.8112 129.078C84.8112 129.078 84.8111 129.078 84.8115 129.078C84.9105 129.078 84.9926 129.155 84.9982 129.254L85.3943 135.652C85.3947 135.657 85.3951 135.662 85.3951 135.666C85.3951 135.78 85.3029 135.871 85.1899 135.871C85.1895 135.871 85.1895 135.871 85.1891 135.871L83.9324 135.872C83.7983 135.872 83.6746 135.789 83.6236 135.66C83.2248 134.627 82.8907 133.883 82.622 133.427C81.3714 131.312 79.549 130.475 77.1535 130.914C73.6397 131.559 73.2688 136.015 73.6502 138.878C74.0573 141.938 76.0336 143.522 79.0326 143.342C81.8552 143.169 83.5224 141.722 84.0477 138.932C84.0598 138.872 84.1124 138.828 84.174 138.827H85.8048C85.8052 138.827 85.8051 138.827 85.8055 138.827C85.8512 138.827 85.8883 138.864 85.8883 138.91C85.8883 138.914 85.8883 138.917 85.8879 138.921C85.5035 142.075 83.796 144.061 80.7644 144.879C80.5267 144.944 79.971 145.039 79.0976 145.164Z" fill="#373435"/>
<path d="M121.95 142.996C121.987 142.995 122.017 142.965 122.017 142.928C122.017 142.917 122.014 142.905 122.008 142.895L120.637 140.123C120.609 140.063 120.548 140.023 120.479 140.022L114.127 140.023C114.043 140.023 113.968 140.066 113.929 140.136L112.896 141.927C112.839 142.025 112.809 142.137 112.809 142.251C112.809 142.54 113.001 142.794 113.278 142.874C114.039 143.09 114.784 143.16 115.514 143.086C115.516 143.086 115.519 143.086 115.522 143.086C115.627 143.08 115.716 143.159 115.722 143.263C115.722 143.266 115.722 143.27 115.722 143.273V144.627C115.722 144.724 115.642 144.803 115.542 144.803H108.212C108.131 144.803 108.065 144.736 108.065 144.652L108.064 143.259C108.065 143.259 108.065 143.259 108.065 143.259C108.065 143.171 108.135 143.099 108.223 143.097C109.623 143.054 110.286 142.917 110.959 141.6C112.543 138.501 114.628 134.403 117.213 129.305C117.294 129.146 117.454 129.048 117.626 129.049L118.581 129.049C118.711 129.049 118.83 129.123 118.887 129.24C120.987 133.394 123.138 137.71 125.338 142.186C125.763 143.043 126.645 143.259 127.484 143.094C127.502 143.09 127.52 143.088 127.538 143.088C127.687 143.088 127.808 143.209 127.808 143.358C127.808 143.358 127.808 143.359 127.808 143.36V144.545C127.808 144.687 127.692 144.803 127.549 144.803H119.632C119.551 144.803 119.485 144.737 119.485 144.656L119.484 143.263C119.485 143.263 119.485 143.262 119.485 143.262C119.485 143.198 119.535 143.144 119.6 143.14L121.95 142.996ZM114.887 138.122C114.878 138.138 114.874 138.157 114.874 138.175C114.874 138.24 114.927 138.294 114.992 138.294L119.546 138.312C119.546 138.312 119.547 138.312 119.548 138.312C119.613 138.312 119.667 138.259 119.667 138.193C119.667 138.175 119.662 138.156 119.654 138.139L117.389 133.596C117.369 133.556 117.328 133.531 117.283 133.531C117.238 133.531 117.197 133.556 117.177 133.596L114.887 138.122Z" fill="#373435"/>
<path d="M226.526 145.164H225.345C222.986 145.032 221.097 144.364 219.679 143.162C217.206 141.069 216.358 138.456 217.133 135.324C217.486 133.891 218.276 132.587 219.502 131.411C222.238 128.783 226.558 128.401 229.878 130.194C229.915 130.214 229.957 130.225 229.998 130.225C230.083 130.225 230.163 130.182 230.209 130.111L230.818 129.189C230.864 129.118 230.945 129.074 231.032 129.074H232.149C232.271 129.074 232.372 129.17 232.38 129.293L232.773 135.677C232.773 135.682 232.773 135.687 232.773 135.691C232.773 135.791 232.693 135.871 232.593 135.871C232.593 135.871 232.593 135.871 232.592 135.871L231.275 135.872C231.169 135.872 231.071 135.804 231.031 135.701C229.889 132.595 228.233 130.287 224.585 130.903C222.861 131.191 221.608 132.624 221.23 134.428C220.254 139.094 221.338 144.404 227.566 143.151C229.775 142.705 231.049 141.298 231.39 138.932C231.399 138.871 231.449 138.826 231.509 138.827H233.176C233.176 138.827 233.176 138.827 233.176 138.827C233.224 138.827 233.263 138.866 233.263 138.913C233.263 138.917 233.263 138.921 233.262 138.924C232.794 142.91 230.292 144.627 226.526 145.164Z" fill="#373435"/>
<path d="M250.111 145.164H249.308C246.865 144.979 244.827 144.15 243.195 142.676C241.895 141.502 240.906 139.547 240.801 137.704C240.65 135.047 241.582 132.887 243.598 131.224C247.08 128.354 252.311 128.423 255.889 131.177C259.616 134.05 259.652 139.663 256.278 142.733C254.67 144.195 252.615 145.005 250.111 145.164ZM244.823 137.081C244.801 140.318 245.856 143.407 249.708 143.432C253.564 143.461 254.662 140.386 254.683 137.15C254.705 133.913 253.65 130.824 249.798 130.795C245.942 130.77 244.844 133.845 244.823 137.081Z" fill="#373435"/>
<path d="M361.462 138.374H362.625C362.812 138.37 362.983 138.5 363.034 138.689C363.741 141.462 365.601 143.008 368.616 143.327C370.226 143.498 371.483 143.048 372.385 141.977C372.448 141.904 372.496 141.825 372.531 141.739C373.21 140.04 371.755 139.356 370.402 139.061C366.972 138.31 365.207 137.916 365.109 137.88C364.371 137.617 363.414 137.268 362.794 136.76C360.771 135.108 361.221 131.951 363.169 130.435C363.64 130.068 364.746 129.521 365.459 129.348C367.645 128.81 369.678 129.096 371.557 130.205C371.68 130.276 371.832 130.25 371.92 130.144L372.598 129.359C372.693 129.249 372.826 129.188 372.966 129.189H374.121C374.276 129.189 374.402 129.315 374.402 129.47V135.245C374.402 135.35 374.318 135.435 374.214 135.435L372.908 135.425C372.818 135.424 372.742 135.359 372.728 135.27C372.718 135.191 372.511 134.706 372.108 133.815C371.017 131.396 368.476 130.403 365.955 130.997C364.533 131.332 363.23 133.135 364.828 134.262C365.383 134.651 366.474 134.921 367.147 135.036C370.672 135.641 376.623 136.411 375.258 141.315C374.628 143.58 372.162 144.796 369.959 145.005C367.899 145.197 365.996 144.812 364.249 143.849C364.128 143.785 363.983 143.805 363.887 143.898L362.87 144.872C362.811 144.928 362.735 144.959 362.656 144.958H361.415C361.3 144.958 361.207 144.865 361.207 144.749V138.629C361.207 138.488 361.321 138.373 361.462 138.373V138.374Z" fill="#373435"/>
<path d="M21.5159 144.803C21.458 144.803 21.4116 144.757 21.4116 144.699V143.212C21.4116 143.15 21.4615 143.1 21.5231 143.1H24.0973C24.2224 143.1 24.3241 142.999 24.3241 142.874V131.425C24.3241 131.228 24.1642 131.068 23.9677 131.068L21.5662 131.069C21.4849 131.068 21.4187 131.001 21.4187 130.917V129.499C21.4187 129.421 21.4815 129.358 21.5594 129.358C26.8587 129.358 30.0917 129.247 33.5008 129.603C33.6202 129.615 33.7393 129.643 33.8538 129.686C35.0874 130.149 35.7764 130.429 35.9204 130.525C38.7426 132.404 38.3144 135.972 35.3048 137.337C33.0295 138.366 31.0384 138.312 28.1833 138.269C28.1811 138.269 28.1803 138.269 28.1799 138.269C28.0544 138.269 27.9532 138.368 27.9532 138.492C27.9532 138.492 27.9532 138.493 27.9532 138.494V142.762C27.9532 142.947 28.1047 143.097 28.2914 143.097H31.103C31.1809 143.097 31.2437 143.159 31.2437 143.237V144.656C31.2437 144.737 31.1775 144.803 31.0962 144.803H21.5159ZM27.9456 131.09L27.9672 136.454C27.9676 136.498 28.0031 136.533 28.0469 136.533L31.1318 136.523C32.6878 136.521 33.9546 135.472 33.9546 134.179C33.9546 134.179 33.9546 134.178 33.9546 134.178V133.333C33.9543 132.049 32.6855 131 31.1212 131C31.1208 131 31.1193 131 31.1185 131L28.0251 131.011C27.9816 131.011 27.9461 131.046 27.9461 131.09H27.9456Z" fill="#373435"/>
<path d="M60.9452 135.029C60.9455 135.033 60.9455 135.036 60.9455 135.04C60.9455 135.137 60.8665 135.216 60.769 135.216L59.4114 135.216C59.4114 135.216 59.411 135.216 59.4106 135.216C59.3025 135.216 59.2118 135.133 59.2027 135.025C59.1736 134.752 58.9745 134.148 58.6048 133.215C58.0504 131.825 56.9442 131.113 55.2853 131.08C53.9077 131.051 52.614 131.05 51.4045 131.076C51.2987 131.078 51.2139 131.164 51.2139 131.27L51.2136 135.828C51.214 135.914 51.2744 135.987 51.3576 136.001C51.6709 136.062 52.2506 135.972 52.5024 135.965C54.1332 135.904 54.659 134.799 54.7705 133.305C54.7803 133.179 54.8851 133.081 55.0113 133.081C55.0117 133.081 55.0117 133.081 55.012 133.081H56.3798C56.4935 133.081 56.5854 133.173 56.5854 133.286L56.5851 140.602C56.5851 140.697 56.5065 140.775 56.409 140.775H54.9542C54.8487 140.774 54.7644 140.694 54.7599 140.592C54.6121 138.269 53.7553 137.531 51.3934 137.668C51.2925 137.674 51.2139 137.757 51.2139 137.859L51.2136 142.863C51.2129 142.965 51.2914 143.051 51.3927 143.057C53.1611 143.158 55.9516 143.324 57.3806 142.482C58.9181 141.574 59.3536 140.253 59.6851 138.543C59.6976 138.485 59.7459 138.445 59.8011 138.445H61.4383C61.4421 138.445 61.4441 138.445 61.446 138.445C61.5193 138.45 61.5759 138.514 61.5717 138.589C61.5717 138.591 61.5718 138.593 61.5714 138.595L61.0997 144.631C61.0926 144.728 61.0113 144.803 60.9134 144.803C60.9134 144.803 60.9131 144.803 60.9127 144.803H45.1332C45.0538 144.803 44.9891 144.737 44.9891 144.656L44.9888 143.234C44.9891 143.156 45.0518 143.093 45.1293 143.093L47.2893 143.094C47.4586 143.093 47.5955 142.955 47.5955 142.784V131.353C47.5958 131.192 47.4665 131.061 47.3074 131.061H45.1652C45.0681 131.061 44.9891 130.982 44.9891 130.885L44.9888 129.535C44.9891 129.435 45.0681 129.355 45.1656 129.355H60.3438C60.3442 129.355 60.3441 129.355 60.3441 129.355C60.4859 129.355 60.6028 129.466 60.6103 129.607L60.9452 135.029Z" fill="#373435"/>
<path d="M97.6566 129.359C99.219 129.359 100.737 129.358 102.211 129.355C102.314 129.356 102.398 129.44 102.398 129.542C102.398 129.543 102.398 129.544 102.398 129.545V130.878C102.398 130.972 102.323 131.049 102.229 131.051L99.7697 131.083C99.6015 131.084 99.4597 131.216 99.4461 131.387C99.4434 131.432 99.4424 133.33 99.4424 137.081C99.4424 140.83 99.4446 142.728 99.4495 142.773C99.4635 142.946 99.6052 143.078 99.7753 143.079L102.232 143.112C102.327 143.113 102.402 143.19 102.402 143.284L102.401 144.616C102.401 144.72 102.316 144.803 102.211 144.803C102.211 144.803 102.21 144.803 102.21 144.803C100.737 144.803 99.219 144.803 97.6566 144.803C96.0941 144.803 94.5769 144.803 93.1059 144.803C93.1063 144.803 93.1063 144.803 93.1059 144.803C93.0009 144.803 92.9154 144.72 92.915 144.617V143.284C92.915 143.284 92.915 143.284 92.915 143.284C92.915 143.19 92.9903 143.113 93.0844 143.111L95.543 143.079C95.7116 143.078 95.8534 142.946 95.8674 142.775C95.8696 142.728 95.8707 140.83 95.8707 137.081C95.8707 133.33 95.8696 131.433 95.8674 131.389C95.8534 131.216 95.7116 131.084 95.5415 131.083L93.0841 131.051C92.9904 131.049 92.915 130.972 92.915 130.878V129.546C92.9154 129.443 92.999 129.36 93.103 129.358C94.5762 129.359 96.0941 129.359 97.6566 129.359Z" fill="#373435"/>
<path d="M133.446 129.359H142.774C142.828 129.358 142.872 129.402 142.872 129.456V130.957C142.872 131.013 142.826 131.058 142.771 131.058L140.15 131.058C140.001 131.058 139.88 131.179 139.88 131.328V142.856V142.856C139.88 142.954 139.955 143.035 140.052 143.043C141.766 143.173 144.661 143.338 146.09 142.391C147.469 141.477 147.94 139.871 148.337 138.467C148.368 138.351 148.477 138.267 148.602 138.266H149.924C149.925 138.265 149.925 138.265 149.925 138.265C150.037 138.265 150.127 138.356 150.127 138.467C150.127 138.473 150.126 138.479 150.126 138.485L149.643 144.678C149.64 144.748 149.582 144.803 149.51 144.803H133.489C133.414 144.803 133.353 144.742 133.353 144.667V143.241C133.353 143.162 133.419 143.097 133.5 143.097H135.826C136.069 143.097 136.265 142.9 136.265 142.658L136.265 131.296C136.266 131.166 136.16 131.061 136.031 131.061H133.464C133.405 131.061 133.356 131.013 133.356 130.953L133.356 129.449C133.356 129.399 133.397 129.358 133.446 129.358V129.359Z" fill="#373435"/>
<path d="M163.169 129.358C168.118 129.361 170.688 129.366 170.877 129.373C171.005 129.376 171.108 129.475 171.115 129.6L171.547 135.68C171.547 135.683 171.548 135.685 171.548 135.687C171.548 135.745 171.501 135.792 171.443 135.792H169.833C169.756 135.793 169.688 135.736 169.675 135.656C169.114 132.254 167.596 130.712 165.124 131.029C165.025 131.043 164.952 131.128 164.952 131.229V142.938C164.952 143.028 165.024 143.1 165.114 143.1H167.742C167.849 143.1 167.936 143.187 167.936 143.295V144.548C167.936 144.677 167.834 144.783 167.706 144.789C167.487 144.798 165.973 144.803 163.162 144.803C160.349 144.801 158.834 144.795 158.615 144.785C158.486 144.779 158.385 144.673 158.385 144.544C158.385 144.544 158.385 144.544 158.385 144.544L158.388 143.291C158.388 143.184 158.475 143.097 158.583 143.097H161.211C161.299 143.097 161.371 143.026 161.373 142.938L161.384 131.227C161.385 131.126 161.312 131.039 161.212 131.025C158.739 130.708 157.22 132.249 156.657 135.648C156.643 135.73 156.573 135.788 156.494 135.785H154.885C154.829 135.783 154.784 135.736 154.784 135.68C154.784 135.678 154.785 135.675 154.785 135.673L155.22 129.592C155.227 129.468 155.33 129.369 155.457 129.366C155.647 129.358 158.218 129.356 163.169 129.358Z" fill="#373435"/>
<path d="M183.388 131.069C183.314 131.07 183.253 131.131 183.253 131.205C183.253 131.237 183.264 131.267 183.284 131.292L187.414 136.318C187.44 136.351 187.479 136.369 187.52 136.369C187.565 136.369 187.607 136.347 187.633 136.31C189.016 134.32 190.632 132.203 190.675 131.828C190.712 131.477 190.435 131.159 190.056 131.119C189.434 131.052 188.869 131.034 188.36 131.065C188.358 131.065 188.357 131.065 188.356 131.065C188.262 131.067 188.186 130.994 188.184 130.903C188.184 130.901 188.184 130.9 188.184 130.899V129.517C188.184 129.429 188.256 129.358 188.346 129.358L195.921 129.359C195.919 129.358 195.92 129.358 195.921 129.358C196.07 129.358 196.191 129.478 196.191 129.625C196.191 129.626 196.191 129.626 196.191 129.627L196.173 130.907C196.171 131.001 196.094 131.076 196 131.076C195.979 131.076 195.958 131.072 195.939 131.065C195.874 131.041 195.556 131.056 194.985 131.108C194.13 131.185 193.446 131.586 192.933 132.311C191.905 133.756 190.519 135.742 188.774 138.269C188.698 138.377 188.658 138.505 188.659 138.636L188.659 142.838C188.659 142.979 188.775 143.094 188.918 143.094H191.392C191.499 143.093 191.586 143.181 191.586 143.288V144.591C191.586 144.708 191.491 144.803 191.374 144.803H182.301C182.233 144.803 182.178 144.747 182.178 144.678L182.179 143.23C182.179 143.157 182.238 143.097 182.312 143.097H184.778C184.957 143.097 185.102 142.952 185.102 142.773V138.763C185.104 138.65 185.064 138.532 184.989 138.438L179.378 131.609C179.276 131.486 179.145 131.389 178.996 131.328C178.42 131.095 177.756 131.012 177.005 131.08C176.999 131.08 176.993 131.081 176.987 131.081C176.894 131.081 176.818 131.005 176.818 130.911C176.818 130.911 176.818 130.911 176.818 130.91V129.528C176.818 129.434 176.895 129.358 176.991 129.358L185.675 129.359C185.774 129.358 185.854 129.437 185.854 129.535V130.903C185.854 130.995 185.78 131.069 185.689 131.069L183.388 131.069Z" fill="#373435"/>
<path d="M266.557 131.065C266.466 131.065 266.392 130.991 266.392 130.899V129.521C266.392 129.431 266.464 129.358 266.554 129.358L282.103 129.355C282.215 129.355 282.306 129.442 282.312 129.553L282.654 135.094C282.654 135.098 282.654 135.103 282.654 135.108C282.654 135.231 282.554 135.331 282.431 135.331C282.431 135.331 282.431 135.331 282.431 135.331L281.016 135.324C280.91 135.324 280.825 135.237 280.825 135.13C280.825 135.027 280.633 134.413 280.249 133.29C279.899 132.26 279.183 131.6 278.103 131.31C277.261 131.085 275.636 131.004 273.228 131.069C273.087 131.073 272.976 131.19 272.976 131.332L272.98 135.76C272.98 135.761 272.98 135.762 272.98 135.764C272.982 135.883 273.079 135.978 273.196 135.976C273.197 135.976 273.199 135.976 273.2 135.976C275.389 135.929 276.418 135.67 276.577 133.319C276.583 133.221 276.662 133.145 276.757 133.146L278.251 133.146C278.342 133.146 278.416 133.22 278.416 133.311L278.42 140.491C278.42 140.592 278.338 140.674 278.236 140.674H276.778H276.778C276.67 140.674 276.58 140.59 276.573 140.483C276.393 138.19 275.507 137.459 273.196 137.675C273.069 137.686 272.975 137.793 272.976 137.919V142.751C272.976 142.94 273.129 143.094 273.318 143.094H276.048C276.147 143.094 276.228 143.176 276.228 143.277V144.62C276.228 144.72 276.147 144.8 276.048 144.8L266.593 144.803C266.482 144.803 266.392 144.715 266.392 144.605V143.281C266.392 143.181 266.474 143.1 266.575 143.1L269.074 143.101C269.231 143.1 269.358 142.973 269.358 142.816V131.36C269.356 131.197 269.223 131.065 269.059 131.065L266.557 131.065Z" fill="#373435"/>
<path d="M289.465 131.061C289.374 131.061 289.299 130.987 289.299 130.896V129.517C289.299 129.428 289.372 129.355 289.462 129.355H305.015C305.126 129.355 305.218 129.442 305.223 129.553L305.565 135.098C305.566 135.102 305.566 135.107 305.566 135.112C305.566 135.235 305.466 135.335 305.343 135.335C305.342 135.335 305.342 135.335 305.342 135.335L303.927 135.324C303.822 135.324 303.736 135.237 303.736 135.13C303.736 135.027 303.544 134.413 303.16 133.29C302.81 132.26 302.095 131.6 301.014 131.31C300.172 131.085 298.547 131.004 296.14 131.069C295.999 131.073 295.887 131.19 295.888 131.332V135.76C295.888 135.761 295.888 135.762 295.888 135.764C295.89 135.883 295.987 135.978 296.104 135.976C296.105 135.976 296.107 135.976 296.108 135.976C298.296 135.929 299.33 135.67 299.488 133.319C299.494 133.221 299.574 133.145 299.669 133.146L301.162 133.146C301.254 133.146 301.328 133.22 301.328 133.311V140.494C301.328 140.595 301.246 140.678 301.144 140.678H299.686C299.686 140.678 299.686 140.678 299.685 140.678C299.578 140.678 299.489 140.594 299.481 140.487C299.301 138.19 298.415 137.459 296.104 137.675C295.977 137.686 295.882 137.793 295.884 137.919L295.884 142.755C295.884 142.944 296.037 143.097 296.226 143.097H298.955C299.055 143.097 299.135 143.179 299.135 143.281V144.624C299.135 144.723 299.055 144.803 298.955 144.803H289.497C289.386 144.803 289.296 144.715 289.296 144.605V143.281C289.296 143.181 289.378 143.1 289.48 143.1L291.982 143.101C292.139 143.1 292.266 142.973 292.266 142.816V131.36C292.266 131.195 292.132 131.061 291.967 131.061H289.465Z" fill="#373435"/>
<path d="M328.351 135.216H326.994C326.993 135.216 326.993 135.216 326.993 135.216C326.884 135.216 326.794 135.133 326.785 135.025C326.756 134.752 326.557 134.148 326.187 133.215C325.633 131.825 324.526 131.113 322.868 131.08C321.49 131.051 320.196 131.05 318.987 131.076C318.881 131.078 318.796 131.164 318.796 131.27V135.828C318.796 135.914 318.857 135.987 318.939 136.001C319.253 136.062 319.833 135.972 320.085 135.965C321.716 135.904 322.241 134.799 322.353 133.305C322.362 133.179 322.467 133.081 322.593 133.081C322.594 133.081 322.594 133.081 322.594 133.081H323.962C324.075 133.081 324.167 133.173 324.167 133.286V140.602C324.167 140.697 324.088 140.775 323.991 140.775H322.536C322.431 140.774 322.346 140.694 322.342 140.592C322.194 138.269 321.338 137.531 318.976 137.668C318.875 137.674 318.796 137.757 318.796 137.859V142.863C318.795 142.965 318.874 143.051 318.975 143.057C320.744 143.158 323.534 143.324 324.963 142.482C326.5 141.574 326.936 140.253 327.267 138.543C327.279 138.485 327.328 138.445 327.383 138.445H329.021C329.024 138.445 329.026 138.445 329.028 138.445C329.102 138.45 329.158 138.514 329.154 138.589C329.154 138.591 329.154 138.593 329.154 138.595L328.682 144.631C328.675 144.728 328.593 144.803 328.496 144.803C328.495 144.803 328.495 144.803 328.495 144.803H312.715C312.635 144.803 312.571 144.737 312.571 144.656V143.234C312.571 143.156 312.634 143.093 312.712 143.093L314.872 143.094C315.041 143.093 315.178 142.955 315.178 142.784V131.353C315.178 131.192 315.049 131.061 314.89 131.061H312.747C312.65 131.061 312.571 130.982 312.571 130.885V129.535C312.571 129.435 312.65 129.355 312.747 129.355H327.926H327.926C328.068 129.355 328.185 129.466 328.192 129.607L328.527 135.029C328.527 135.033 328.528 135.036 328.528 135.04C328.528 135.137 328.449 135.216 328.351 135.216H328.351V135.216Z" fill="#373435"/>
<path d="M352.843 135.029C352.843 135.033 352.843 135.036 352.843 135.04C352.843 135.137 352.765 135.216 352.667 135.216C352.667 135.216 352.667 135.216 352.667 135.216L351.309 135.216C351.309 135.216 351.309 135.216 351.309 135.216C351.2 135.216 351.11 135.133 351.1 135.025C351.072 134.752 350.873 134.148 350.503 133.215C349.948 131.825 348.842 131.113 347.183 131.08C345.806 131.051 344.512 131.05 343.302 131.076C343.196 131.078 343.112 131.164 343.112 131.27L343.115 135.828C343.115 135.914 343.176 135.987 343.259 136.001C343.572 136.062 344.152 135.972 344.404 135.965C346.031 135.904 346.557 134.799 346.669 133.305C346.678 133.179 346.783 133.081 346.909 133.081H346.91H348.278C348.391 133.081 348.483 133.173 348.483 133.286L348.487 140.602C348.487 140.697 348.408 140.775 348.31 140.775H346.856C346.75 140.774 346.666 140.694 346.661 140.592C346.514 138.269 345.657 137.531 343.295 137.668C343.194 137.674 343.115 137.757 343.115 137.859V142.863C343.114 142.965 343.193 143.051 343.294 143.057C345.063 143.158 347.853 143.324 349.283 142.482C350.82 141.574 351.255 140.253 351.583 138.543C351.596 138.485 351.644 138.445 351.699 138.445H353.336C353.34 138.445 353.342 138.445 353.344 138.445C353.417 138.45 353.474 138.514 353.47 138.589C353.47 138.591 353.469 138.593 353.469 138.595L353.002 144.631C352.994 144.728 352.913 144.803 352.815 144.803C352.815 144.803 352.814 144.803 352.814 144.803H337.035C336.955 144.803 336.891 144.737 336.891 144.656V143.234C336.891 143.156 336.953 143.093 337.031 143.093L339.191 143.094C339.36 143.093 339.497 142.955 339.497 142.784L339.494 131.357C339.494 131.196 339.364 131.065 339.206 131.065L337.063 131.065C336.966 131.065 336.887 130.986 336.887 130.889L336.887 129.539C336.887 129.439 336.966 129.358 337.063 129.358L352.242 129.355C352.242 129.355 352.242 129.355 352.242 129.355C352.384 129.355 352.501 129.466 352.508 129.607L352.843 135.029Z" fill="#373435"/>
<path d="M351.09 0.863395C351.201 0.90119 351.276 1.00519 351.276 1.12235C351.276 1.19567 351.246 1.26554 351.195 1.31694C343.749 8.65073 338.111 17.536 335.534 27.7317C335.502 27.8621 335.384 27.954 335.25 27.954C335.134 27.954 335.029 27.8852 334.983 27.7787C331.804 20.5817 333.337 12.323 338.586 6.74248C341.608 3.52875 345.375 1.55203 349.888 0.812755C350.353 0.736031 350.754 0.753033 351.09 0.863395Z" fill="#282829"/>
<path d="M355.126 0.787707C355.325 0.758605 355.58 0.77569 355.893 0.838052C363.853 2.42205 369.663 7.81881 371.658 15.743C371.759 16.1508 371.929 17.4771 372.169 19.7214C372.209 20.1005 372.192 20.4912 372.116 20.8703C371.845 22.2124 371.759 23.9944 371.269 25.5463C370.988 26.4416 370.712 27.1942 370.441 27.8038C370.362 27.9777 370.189 28.0899 369.998 28.0899C369.736 28.0899 369.521 27.8821 369.512 27.6201C369.505 27.3703 369.452 27.0872 369.354 26.7705C366.506 17.5537 361.106 8.77274 354.881 1.43215C354.855 1.40229 354.836 1.371 354.821 1.33736C354.733 1.13932 354.823 0.906497 355.023 0.817678C355.056 0.802938 355.092 0.792703 355.127 0.787412L355.126 0.787707Z" fill="#282829"/>
<path d="M345.5 13.3851C345.442 15.9699 345.524 19.0337 345.748 22.5766C345.841 24.0718 345.812 25.3712 345.661 26.4756C345.661 26.4744 345.66 26.4824 345.659 26.4896C345.592 26.9118 345.194 27.1997 344.77 27.1324C344.762 27.1313 344.755 27.1298 344.747 27.1287C342.579 26.6842 340.905 23.8653 340.635 21.968C340.106 18.238 341.309 14.5659 345.046 13.0718C345.084 13.0563 345.126 13.0483 345.168 13.0483C345.351 13.0483 345.5 13.1966 345.5 13.3795C345.5 13.3814 345.5 13.3833 345.5 13.3848V13.3851Z" fill="#282829"/>
<path d="M346.924 27.0547C346.751 27.0215 346.631 26.8681 346.64 26.6942C346.734 24.6465 346.903 23.2961 346.734 21.3413C346.543 19.1598 346.24 16.2362 346.572 13.8925C346.643 13.3562 347.27 12.9167 347.875 13.1329C348.23 13.2603 348.535 13.4176 348.789 13.6046C351.975 15.9589 352.67 19.7248 351.252 23.3573C350.69 24.7905 348.717 27.3968 346.924 27.0547Z" fill="#282829"/>
<path d="M357.869 13.3634C357.807 15.9531 357.886 19.0218 358.107 22.5689C358.2 24.069 358.17 25.371 358.017 26.4754C358.017 26.4754 358.015 26.4845 358.014 26.4928C357.947 26.9154 357.549 27.203 357.125 27.1361C357.118 27.1346 357.11 27.1335 357.103 27.132C354.931 26.6841 353.254 23.8581 352.987 21.957C352.458 18.2198 353.668 14.5409 357.412 13.0464C357.452 13.0302 357.495 13.0215 357.538 13.0215C357.721 13.0215 357.869 13.17 357.869 13.3529C357.869 13.3563 357.869 13.3596 357.869 13.3634Z" fill="#282829"/>
<path d="M359.288 27.0477C359.114 27.014 358.994 26.8601 359.003 26.6862C359.093 24.6393 359.259 23.2889 359.086 21.3341C358.888 19.1488 358.579 16.2253 358.906 13.8816C358.978 13.3453 359.601 12.9023 360.209 13.1185C360.565 13.2458 360.869 13.4027 361.124 13.5902C364.317 15.9373 365.019 19.7033 363.608 23.3396C363.05 24.7762 361.081 27.3863 359.288 27.0477Z" fill="#282829"/>
<path d="M323.437 83.1967C323.468 83.2027 323.497 83.211 323.525 83.2212C323.833 83.3334 323.992 83.6759 323.879 83.9858C323.869 84.0134 323.857 84.0402 323.843 84.0659C322.711 86.1458 321.836 87.6859 321.219 88.6867C315.556 97.9069 306.534 103.674 296.169 106.472C288.004 108.675 279.626 109.251 271.403 108.585C266.601 108.2 261.528 107.156 256.617 105.363C240.812 99.6028 231.394 86.3828 229.616 69.5952C229.296 66.5731 229.254 62.9864 229.489 58.8342C229.551 57.754 229.806 56.6919 229.939 55.3418C230.023 54.4824 230.363 52.8758 230.958 50.5212C232.798 43.2486 236.647 36.7682 242.252 31.8072C244.518 29.8055 246.544 28.2178 248.329 27.0442C254.147 23.2352 260.757 21.1686 267.706 20.1425C268.923 19.9626 270.018 19.8533 270.993 19.8147C272.256 19.7678 273.801 19.5052 275.385 19.498C277.689 19.4837 279.305 19.4477 281.476 19.6204C284.105 19.8291 285.785 19.9829 286.517 20.0812C291.228 20.7173 295.553 21.7589 299.492 23.2061C309.702 26.9614 316.985 33.9672 322.234 43.461C322.282 43.5475 322.307 43.6447 322.307 43.7437C322.307 44.0132 322.123 44.2479 321.86 44.3106L310.703 46.9461C310.409 47.016 310.107 46.8818 309.964 46.6198C309.336 45.4932 308.825 44.6057 308.431 43.9579C305.745 39.526 301.821 36.2284 297.033 34.1331C291.867 31.8684 286.373 30.648 280.767 30.3634C275.211 30.0826 269.86 30.6253 264.714 31.9908C261.56 32.8261 258.54 34.1282 255.652 35.897C249.052 39.9411 244.763 45.7389 242.785 53.2897C242.228 55.4088 241.884 57.3601 241.752 59.1437C241.668 60.2786 241.63 62.2243 241.64 64.9796C241.665 72.6551 244.232 80.3415 248.725 86.1956C254.245 93.3816 264.008 97.1295 272.836 97.907C277.281 98.2985 281.664 98.2732 285.984 97.8314C287.796 97.6443 289.919 97.2398 292.353 96.6181C301.103 94.3837 307.571 89.2715 311.754 81.2812C312.075 80.6693 312.582 80.8242 313.155 80.95C318.879 82.2245 322.307 82.9733 323.437 83.1967Z" fill="#282829"/>
<path d="M24.947 88.8562C24.9451 88.8584 24.9466 88.8566 24.9477 88.8547C25.0615 88.6797 25.297 88.6306 25.4739 88.7455C25.4754 88.7466 25.4772 88.7477 25.4791 88.7488C31.0115 92.5526 37.0134 95.2274 43.4844 96.7733C44.1828 96.9388 45.853 97.234 48.4956 97.6588C49.7629 97.8629 50.8262 97.9732 51.6856 97.9898C53.8351 98.0367 55.8404 98.4437 57.8851 98.3394C59.4222 98.2634 61.9104 98.4007 64.2862 98.1807C65.4288 98.0752 66.5569 97.9578 67.6704 97.8281C76.0016 96.8451 85.9991 93.0039 87.4214 83.4129C87.8103 80.7869 87.5174 78.424 86.5431 76.3241C85.0524 73.116 81.7797 71.2405 78.4677 70.1638C76.7685 69.6093 74.7017 69.0983 72.8331 68.8031C69.4777 68.2653 67.145 67.9453 65.8342 67.8417C64.3678 67.7242 63.5746 67.6558 63.4547 67.6365C61.4637 67.3198 60.3623 67.3953 58.2344 67.1432C56.4992 66.9369 54.9054 66.7966 53.4533 66.7222C51.6785 66.6284 50.2816 66.3118 48.4636 66.2434C46.5912 66.1716 44.4599 65.7825 42.7032 65.5811C39.9022 65.2591 37.1707 64.7516 34.5087 64.058C27.1069 62.1282 21.4188 56.9619 19.6401 49.4267C19.5751 49.1485 19.4315 47.9508 19.2081 45.8339C19.0173 44.0228 19.3124 42.6583 19.4708 40.9303C19.526 40.3324 19.639 39.6868 19.8095 38.9933C21.9585 30.2342 29.2492 24.9236 37.5728 22.4971C39.7664 21.8561 41.4635 21.4257 42.6635 21.2046C49.3359 19.9732 55.7096 19.5737 61.7841 20.0057C67.4942 20.4113 73.0626 21.3138 78.4893 22.713C83.5078 24.0056 88.5159 25.7302 92.9584 28.4484C93.2611 28.6336 93.3602 29.0259 93.1818 29.3305C91.744 31.7978 90.1911 34.445 88.5232 37.2724C88.2469 37.743 87.8894 37.8557 87.4502 37.6108C81.3443 34.1835 74.6262 32.1636 67.5267 30.9504C61.9606 29.9999 56.2686 29.8173 50.4508 30.4031C43.848 31.0691 34.6638 32.9339 31.7729 39.9113C30.8537 42.1337 30.6832 44.3289 31.2614 46.4961C32.5359 51.2519 36.3918 53.5238 41.0795 54.3413C44.706 54.9724 47.3955 55.3421 49.1473 55.4502C50.1965 55.5148 50.9451 55.5881 51.3938 55.6697C53.0428 55.9645 55.2425 55.9754 56.4738 56.1376C58.1947 56.3655 59.4812 56.4989 60.3331 56.5371C62.4644 56.627 63.7642 56.9657 65.7443 57.0303C67.667 57.0954 69.791 57.5489 71.5481 57.6498C72.4265 57.7001 73.0902 57.7878 73.5389 57.9125C74.2736 58.1177 75.195 58.0818 76.1996 58.2761C80.6636 59.1511 84.4908 60.0112 88.2817 62.1788C96.3366 66.7845 99.9331 74.0224 99.0718 83.8919C97.851 97.8999 86.4059 105.414 73.5713 107.635C72.196 107.873 71.4964 107.993 71.4722 107.995C62.7358 109.231 53.7425 109.115 44.4924 107.646C36.4806 106.374 29.075 103.726 22.2756 99.7039C21.3443 99.1517 20.4776 98.5613 19.676 97.9324C19.5188 97.8088 19.4262 97.6195 19.4262 97.4192C19.4262 97.2903 19.4643 97.1644 19.5357 97.0575L24.947 88.8562Z" fill="#282829"/>
<path d="M193.491 54.089C193.354 54.0792 193.215 54.1575 193.073 54.323C191.463 56.1928 182.07 66.8711 164.894 86.3579C164.438 86.8738 163.981 86.8712 163.523 86.3504C154.911 76.5486 145.495 65.8041 135.275 54.1178C135.232 54.0683 135.169 54.0399 135.103 54.0399C134.976 54.0399 134.873 54.1424 134.872 54.269V105.767C134.872 106.124 134.582 106.414 134.224 106.414H122.621C122.265 106.414 121.976 106.126 121.976 105.77V23.5553C121.976 23.5553 121.976 23.5553 121.976 23.5553C121.976 23.3028 122.181 23.0981 122.433 23.0981C122.438 23.0981 122.443 23.0984 122.448 23.0984C122.745 23.1078 123.066 23.3025 123.409 23.6815C135.89 37.4126 149.505 52.3573 164.253 68.5152C164.325 68.5923 164.425 68.6361 164.531 68.6361C164.638 68.6361 164.74 68.5907 164.811 68.5113C168.469 64.4457 181.854 49.5756 204.965 23.9012C205.321 23.5051 205.483 23.199 206.059 23.0947C206.085 23.0901 206.112 23.0879 206.138 23.0879C206.385 23.0879 206.585 23.2873 206.585 23.5338V105.9C206.585 106.182 206.356 106.411 206.074 106.411L194.254 106.411C193.91 106.411 193.631 106.132 193.631 105.788V54.2364C193.631 54.1574 193.569 54.0928 193.491 54.089Z" fill="#282829"/>
<path d="M352.66 32.97C357.559 32.9939 362.548 32.3902 367.63 31.1588C367.795 31.118 367.906 31.1063 367.961 31.1229C367.98 31.1294 368 31.1378 368.018 31.1476C368.194 31.241 368.261 31.4574 368.169 31.6313C368.159 31.6498 368.147 31.6676 368.134 31.6843C364.335 36.4982 358.827 39.2993 352.628 39.2668C346.428 39.2343 340.948 36.3795 337.197 31.53C337.182 31.5103 337.17 31.4918 337.161 31.4725C337.071 31.2972 337.142 31.0821 337.32 30.9914C337.339 30.9819 337.359 30.9736 337.38 30.9672C337.434 30.9513 337.543 30.9634 337.708 31.0042C342.777 32.2908 347.761 32.9459 352.66 32.97Z" fill="#282829"/>
<path d="M0.116211 138.629C0.116211 138.488 0.230796 138.373 0.371772 138.373L1.53471 138.374C1.7218 138.37 1.89219 138.5 1.94397 138.689C2.65263 141.462 4.51336 143.008 7.52527 143.327C9.1361 143.498 10.3924 143.048 11.2949 141.977C11.3573 141.904 11.4056 141.825 11.4408 141.739C12.1192 140.04 10.6649 139.356 9.31109 139.061C5.88117 138.31 4.11728 137.916 4.01902 137.88C3.28087 137.617 2.32314 137.268 1.70406 136.76C-0.319504 135.108 0.130579 131.951 2.07817 130.435C2.54985 130.068 3.65492 129.521 4.36774 129.348C6.55457 128.81 8.58724 129.096 10.4668 130.205C10.5896 130.276 10.7416 130.25 10.8293 130.144L11.5074 129.359C11.6022 129.249 11.736 129.188 11.8751 129.189H13.0301C13.1854 129.189 13.3109 129.315 13.3109 129.47V135.245C13.3109 135.35 13.2274 135.435 13.1238 135.435L11.8169 135.425C11.7274 135.424 11.651 135.359 11.637 135.27C11.6272 135.191 11.4208 134.706 11.0175 133.815C9.92672 131.396 7.38502 130.403 4.86483 130.997C3.4426 131.332 2.13947 133.135 3.73821 134.262C4.29229 134.651 5.38343 134.921 6.05657 135.036C9.58135 135.641 15.5322 136.411 14.1678 141.315C13.5377 143.58 11.0715 144.796 8.86803 145.005C6.81121 145.197 4.9094 144.812 3.16213 143.849C3.04156 143.785 2.89604 143.805 2.80041 143.898L1.78304 144.872C1.7237 144.928 1.64729 144.959 1.56867 144.958H0.328662C0.213386 144.958 0.12005 144.865 0.12005 144.749L0.116211 138.629Z" fill="#373435"/>
<path d="M79.0976 145.164H77.9491C75.6572 145.039 73.7308 144.32 72.1706 143.007C71.0284 142.045 70.2494 140.931 69.8341 139.666C69.0279 137.225 69.5819 134.64 71.1228 132.523C73.2148 129.657 76.8511 128.588 80.2818 129.315C80.9768 129.463 81.715 129.798 82.5034 130.194C82.6146 130.253 82.7563 130.218 82.8296 130.11L83.4215 129.215C83.4755 129.131 83.571 129.078 83.6742 129.078L84.8112 129.078C84.8112 129.078 84.8111 129.078 84.8115 129.078C84.9105 129.078 84.9926 129.155 84.9982 129.254L85.3943 135.652C85.3947 135.657 85.3951 135.662 85.3951 135.666C85.3951 135.78 85.3029 135.871 85.1899 135.871C85.1895 135.871 85.1895 135.871 85.1891 135.871L83.9324 135.872C83.7983 135.872 83.6746 135.789 83.6236 135.66C83.2248 134.627 82.8907 133.883 82.622 133.427C81.3714 131.312 79.549 130.475 77.1535 130.914C73.6397 131.559 73.2688 136.015 73.6502 138.878C74.0573 141.938 76.0336 143.522 79.0326 143.342C81.8552 143.169 83.5224 141.722 84.0477 138.932C84.0598 138.872 84.1124 138.828 84.174 138.827H85.8048C85.8052 138.827 85.8051 138.827 85.8055 138.827C85.8512 138.827 85.8883 138.864 85.8883 138.91C85.8883 138.914 85.8883 138.917 85.8879 138.921C85.5035 142.075 83.796 144.061 80.7644 144.879C80.5267 144.944 79.971 145.039 79.0976 145.164Z" fill="#373435"/>
<path d="M121.95 142.996C121.987 142.995 122.017 142.965 122.017 142.928C122.017 142.917 122.014 142.905 122.008 142.895L120.637 140.123C120.609 140.063 120.548 140.023 120.479 140.022L114.127 140.023C114.043 140.023 113.968 140.066 113.929 140.136L112.896 141.927C112.839 142.025 112.809 142.137 112.809 142.251C112.809 142.54 113.001 142.794 113.278 142.874C114.039 143.09 114.784 143.16 115.514 143.086C115.516 143.086 115.519 143.086 115.522 143.086C115.627 143.08 115.716 143.159 115.722 143.263C115.722 143.266 115.722 143.27 115.722 143.273V144.627C115.722 144.724 115.642 144.803 115.542 144.803H108.212C108.131 144.803 108.065 144.736 108.065 144.652L108.064 143.259C108.065 143.259 108.065 143.259 108.065 143.259C108.065 143.171 108.135 143.099 108.223 143.097C109.623 143.054 110.286 142.917 110.959 141.6C112.543 138.501 114.628 134.403 117.213 129.305C117.294 129.146 117.454 129.048 117.626 129.049L118.581 129.049C118.711 129.049 118.83 129.123 118.887 129.24C120.987 133.394 123.138 137.71 125.338 142.186C125.763 143.043 126.645 143.259 127.484 143.094C127.502 143.09 127.52 143.088 127.538 143.088C127.687 143.088 127.808 143.209 127.808 143.358C127.808 143.358 127.808 143.359 127.808 143.36V144.545C127.808 144.687 127.692 144.803 127.549 144.803H119.632C119.551 144.803 119.485 144.737 119.485 144.656L119.484 143.263C119.485 143.263 119.485 143.262 119.485 143.262C119.485 143.198 119.535 143.144 119.6 143.14L121.95 142.996ZM114.887 138.122C114.878 138.138 114.874 138.157 114.874 138.175C114.874 138.24 114.927 138.294 114.992 138.294L119.546 138.312C119.546 138.312 119.547 138.312 119.548 138.312C119.613 138.312 119.667 138.259 119.667 138.193C119.667 138.175 119.662 138.156 119.654 138.139L117.389 133.596C117.369 133.556 117.328 133.531 117.283 133.531C117.238 133.531 117.197 133.556 117.177 133.596L114.887 138.122Z" fill="#373435"/>
<path d="M226.526 145.164H225.345C222.986 145.032 221.097 144.364 219.679 143.162C217.206 141.069 216.358 138.456 217.133 135.324C217.486 133.891 218.276 132.587 219.502 131.411C222.238 128.783 226.558 128.401 229.878 130.194C229.915 130.214 229.957 130.225 229.998 130.225C230.083 130.225 230.163 130.182 230.209 130.111L230.818 129.189C230.864 129.118 230.945 129.074 231.032 129.074H232.149C232.271 129.074 232.372 129.17 232.38 129.293L232.773 135.677C232.773 135.682 232.773 135.687 232.773 135.691C232.773 135.791 232.693 135.871 232.593 135.871C232.593 135.871 232.593 135.871 232.592 135.871L231.275 135.872C231.169 135.872 231.071 135.804 231.031 135.701C229.889 132.595 228.233 130.287 224.585 130.903C222.861 131.191 221.608 132.624 221.23 134.428C220.254 139.094 221.338 144.404 227.566 143.151C229.775 142.705 231.049 141.298 231.39 138.932C231.399 138.871 231.449 138.826 231.509 138.827H233.176C233.176 138.827 233.176 138.827 233.176 138.827C233.224 138.827 233.263 138.866 233.263 138.913C233.263 138.917 233.263 138.921 233.262 138.924C232.794 142.91 230.292 144.627 226.526 145.164Z" fill="#373435"/>
<path d="M250.111 145.164H249.308C246.865 144.979 244.827 144.15 243.195 142.676C241.895 141.502 240.906 139.547 240.801 137.704C240.65 135.047 241.582 132.887 243.598 131.224C247.08 128.354 252.311 128.423 255.889 131.177C259.616 134.05 259.652 139.663 256.278 142.733C254.67 144.195 252.615 145.005 250.111 145.164ZM244.823 137.081C244.801 140.318 245.856 143.407 249.708 143.432C253.564 143.461 254.662 140.386 254.683 137.15C254.705 133.913 253.65 130.824 249.798 130.795C245.942 130.77 244.844 133.845 244.823 137.081Z" fill="#373435"/>
<path d="M361.462 138.374H362.625C362.812 138.37 362.983 138.5 363.034 138.689C363.741 141.462 365.601 143.008 368.616 143.327C370.226 143.498 371.483 143.048 372.385 141.977C372.448 141.904 372.496 141.825 372.531 141.739C373.21 140.04 371.755 139.356 370.402 139.061C366.972 138.31 365.207 137.916 365.109 137.88C364.371 137.617 363.414 137.268 362.794 136.76C360.771 135.108 361.221 131.951 363.169 130.435C363.64 130.068 364.746 129.521 365.459 129.348C367.645 128.81 369.678 129.096 371.557 130.205C371.68 130.276 371.832 130.25 371.92 130.144L372.598 129.359C372.693 129.249 372.826 129.188 372.966 129.189H374.121C374.276 129.189 374.402 129.315 374.402 129.47V135.245C374.402 135.35 374.318 135.435 374.214 135.435L372.908 135.425C372.818 135.424 372.742 135.359 372.728 135.27C372.718 135.191 372.511 134.706 372.108 133.815C371.017 131.396 368.476 130.403 365.955 130.997C364.533 131.332 363.23 133.135 364.828 134.262C365.383 134.651 366.474 134.921 367.147 135.036C370.672 135.641 376.623 136.411 375.258 141.315C374.628 143.58 372.162 144.796 369.959 145.005C367.899 145.197 365.996 144.812 364.249 143.849C364.128 143.785 363.983 143.805 363.887 143.898L362.87 144.872C362.811 144.928 362.735 144.959 362.656 144.958H361.415C361.3 144.958 361.207 144.865 361.207 144.749V138.629C361.207 138.488 361.321 138.373 361.462 138.373V138.374Z" fill="#373435"/>
<path d="M21.5159 144.803C21.458 144.803 21.4116 144.757 21.4116 144.699V143.212C21.4116 143.15 21.4615 143.1 21.5231 143.1H24.0973C24.2224 143.1 24.3241 142.999 24.3241 142.874V131.425C24.3241 131.228 24.1642 131.068 23.9677 131.068L21.5662 131.069C21.4849 131.068 21.4187 131.001 21.4187 130.917V129.499C21.4187 129.421 21.4815 129.358 21.5594 129.358C26.8587 129.358 30.0917 129.247 33.5008 129.603C33.6202 129.615 33.7393 129.643 33.8538 129.686C35.0874 130.149 35.7764 130.429 35.9204 130.525C38.7426 132.404 38.3144 135.972 35.3048 137.337C33.0295 138.366 31.0384 138.312 28.1833 138.269C28.1811 138.269 28.1803 138.269 28.1799 138.269C28.0544 138.269 27.9532 138.368 27.9532 138.492C27.9532 138.492 27.9532 138.493 27.9532 138.494V142.762C27.9532 142.947 28.1047 143.097 28.2914 143.097H31.103C31.1809 143.097 31.2437 143.159 31.2437 143.237V144.656C31.2437 144.737 31.1775 144.803 31.0962 144.803H21.5159ZM27.9456 131.09L27.9672 136.454C27.9676 136.498 28.0031 136.533 28.0469 136.533L31.1318 136.523C32.6878 136.521 33.9546 135.472 33.9546 134.179C33.9546 134.179 33.9546 134.178 33.9546 134.178V133.333C33.9543 132.049 32.6855 131 31.1212 131C31.1208 131 31.1193 131 31.1185 131L28.0251 131.011C27.9816 131.011 27.9461 131.046 27.9461 131.09H27.9456Z" fill="#373435"/>
<path d="M60.9452 135.029C60.9455 135.033 60.9455 135.036 60.9455 135.04C60.9455 135.137 60.8665 135.216 60.769 135.216L59.4114 135.216C59.4114 135.216 59.411 135.216 59.4106 135.216C59.3025 135.216 59.2118 135.133 59.2027 135.025C59.1736 134.752 58.9745 134.148 58.6048 133.215C58.0504 131.825 56.9442 131.113 55.2853 131.08C53.9077 131.051 52.614 131.05 51.4045 131.076C51.2987 131.078 51.2139 131.164 51.2139 131.27L51.2136 135.828C51.214 135.914 51.2744 135.987 51.3576 136.001C51.6709 136.062 52.2506 135.972 52.5024 135.965C54.1332 135.904 54.659 134.799 54.7705 133.305C54.7803 133.179 54.8851 133.081 55.0113 133.081C55.0117 133.081 55.0117 133.081 55.012 133.081H56.3798C56.4935 133.081 56.5854 133.173 56.5854 133.286L56.5851 140.602C56.5851 140.697 56.5065 140.775 56.409 140.775H54.9542C54.8487 140.774 54.7644 140.694 54.7599 140.592C54.6121 138.269 53.7553 137.531 51.3934 137.668C51.2925 137.674 51.2139 137.757 51.2139 137.859L51.2136 142.863C51.2129 142.965 51.2914 143.051 51.3927 143.057C53.1611 143.158 55.9516 143.324 57.3806 142.482C58.9181 141.574 59.3536 140.253 59.6851 138.543C59.6976 138.485 59.7459 138.445 59.8011 138.445H61.4383C61.4421 138.445 61.4441 138.445 61.446 138.445C61.5193 138.45 61.5759 138.514 61.5717 138.589C61.5717 138.591 61.5718 138.593 61.5714 138.595L61.0997 144.631C61.0926 144.728 61.0113 144.803 60.9134 144.803C60.9134 144.803 60.9131 144.803 60.9127 144.803H45.1332C45.0538 144.803 44.9891 144.737 44.9891 144.656L44.9888 143.234C44.9891 143.156 45.0518 143.093 45.1293 143.093L47.2893 143.094C47.4586 143.093 47.5955 142.955 47.5955 142.784V131.353C47.5958 131.192 47.4665 131.061 47.3074 131.061H45.1652C45.0681 131.061 44.9891 130.982 44.9891 130.885L44.9888 129.535C44.9891 129.435 45.0681 129.355 45.1656 129.355H60.3438C60.3442 129.355 60.3441 129.355 60.3441 129.355C60.4859 129.355 60.6028 129.466 60.6103 129.607L60.9452 135.029Z" fill="#373435"/>
<path d="M97.6566 129.359C99.219 129.359 100.737 129.358 102.211 129.355C102.314 129.356 102.398 129.44 102.398 129.542C102.398 129.543 102.398 129.544 102.398 129.545V130.878C102.398 130.972 102.323 131.049 102.229 131.051L99.7697 131.083C99.6015 131.084 99.4597 131.216 99.4461 131.387C99.4434 131.432 99.4424 133.33 99.4424 137.081C99.4424 140.83 99.4446 142.728 99.4495 142.773C99.4635 142.946 99.6052 143.078 99.7753 143.079L102.232 143.112C102.327 143.113 102.402 143.19 102.402 143.284L102.401 144.616C102.401 144.72 102.316 144.803 102.211 144.803C102.211 144.803 102.21 144.803 102.21 144.803C100.737 144.803 99.219 144.803 97.6566 144.803C96.0941 144.803 94.5769 144.803 93.1059 144.803C93.1063 144.803 93.1063 144.803 93.1059 144.803C93.0009 144.803 92.9154 144.72 92.915 144.617V143.284C92.915 143.284 92.915 143.284 92.915 143.284C92.915 143.19 92.9903 143.113 93.0844 143.111L95.543 143.079C95.7116 143.078 95.8534 142.946 95.8674 142.775C95.8696 142.728 95.8707 140.83 95.8707 137.081C95.8707 133.33 95.8696 131.433 95.8674 131.389C95.8534 131.216 95.7116 131.084 95.5415 131.083L93.0841 131.051C92.9904 131.049 92.915 130.972 92.915 130.878V129.546C92.9154 129.443 92.999 129.36 93.103 129.358C94.5762 129.359 96.0941 129.359 97.6566 129.359Z" fill="#373435"/>
<path d="M133.446 129.359H142.774C142.828 129.358 142.872 129.402 142.872 129.456V130.957C142.872 131.013 142.826 131.058 142.771 131.058L140.15 131.058C140.001 131.058 139.88 131.179 139.88 131.328V142.856V142.856C139.88 142.954 139.955 143.035 140.052 143.043C141.766 143.173 144.661 143.338 146.09 142.391C147.469 141.477 147.94 139.871 148.337 138.467C148.368 138.351 148.477 138.267 148.602 138.266H149.924C149.925 138.265 149.925 138.265 149.925 138.265C150.037 138.265 150.127 138.356 150.127 138.467C150.127 138.473 150.126 138.479 150.126 138.485L149.643 144.678C149.64 144.748 149.582 144.803 149.51 144.803H133.489C133.414 144.803 133.353 144.742 133.353 144.667V143.241C133.353 143.162 133.419 143.097 133.5 143.097H135.826C136.069 143.097 136.265 142.9 136.265 142.658L136.265 131.296C136.266 131.166 136.16 131.061 136.031 131.061H133.464C133.405 131.061 133.356 131.013 133.356 130.953L133.356 129.449C133.356 129.399 133.397 129.358 133.446 129.358V129.359Z" fill="#373435"/>
<path d="M163.169 129.358C168.118 129.361 170.688 129.366 170.877 129.373C171.005 129.376 171.108 129.475 171.115 129.6L171.547 135.68C171.547 135.683 171.548 135.685 171.548 135.687C171.548 135.745 171.501 135.792 171.443 135.792H169.833C169.756 135.793 169.688 135.736 169.675 135.656C169.114 132.254 167.596 130.712 165.124 131.029C165.025 131.043 164.952 131.128 164.952 131.229V142.938C164.952 143.028 165.024 143.1 165.114 143.1H167.742C167.849 143.1 167.936 143.187 167.936 143.295V144.548C167.936 144.677 167.834 144.783 167.706 144.789C167.487 144.798 165.973 144.803 163.162 144.803C160.349 144.801 158.834 144.795 158.615 144.785C158.486 144.779 158.385 144.673 158.385 144.544C158.385 144.544 158.385 144.544 158.385 144.544L158.388 143.291C158.388 143.184 158.475 143.097 158.583 143.097H161.211C161.299 143.097 161.371 143.026 161.373 142.938L161.384 131.227C161.385 131.126 161.312 131.039 161.212 131.025C158.739 130.708 157.22 132.249 156.657 135.648C156.643 135.73 156.573 135.788 156.494 135.785H154.885C154.829 135.783 154.784 135.736 154.784 135.68C154.784 135.678 154.785 135.675 154.785 135.673L155.22 129.592C155.227 129.468 155.33 129.369 155.457 129.366C155.647 129.358 158.218 129.356 163.169 129.358Z" fill="#373435"/>
<path d="M183.388 131.069C183.314 131.07 183.253 131.131 183.253 131.205C183.253 131.237 183.264 131.267 183.284 131.292L187.414 136.318C187.44 136.351 187.479 136.369 187.52 136.369C187.565 136.369 187.607 136.347 187.633 136.31C189.016 134.32 190.632 132.203 190.675 131.828C190.712 131.477 190.435 131.159 190.056 131.119C189.434 131.052 188.869 131.034 188.36 131.065C188.358 131.065 188.357 131.065 188.356 131.065C188.262 131.067 188.186 130.994 188.184 130.903C188.184 130.901 188.184 130.9 188.184 130.899V129.517C188.184 129.429 188.256 129.358 188.346 129.358L195.921 129.359C195.919 129.358 195.92 129.358 195.921 129.358C196.07 129.358 196.191 129.478 196.191 129.625C196.191 129.626 196.191 129.626 196.191 129.627L196.173 130.907C196.171 131.001 196.094 131.076 196 131.076C195.979 131.076 195.958 131.072 195.939 131.065C195.874 131.041 195.556 131.056 194.985 131.108C194.13 131.185 193.446 131.586 192.933 132.311C191.905 133.756 190.519 135.742 188.774 138.269C188.698 138.377 188.658 138.505 188.659 138.636L188.659 142.838C188.659 142.979 188.775 143.094 188.918 143.094H191.392C191.499 143.093 191.586 143.181 191.586 143.288V144.591C191.586 144.708 191.491 144.803 191.374 144.803H182.301C182.233 144.803 182.178 144.747 182.178 144.678L182.179 143.23C182.179 143.157 182.238 143.097 182.312 143.097H184.778C184.957 143.097 185.102 142.952 185.102 142.773V138.763C185.104 138.65 185.064 138.532 184.989 138.438L179.378 131.609C179.276 131.486 179.145 131.389 178.996 131.328C178.42 131.095 177.756 131.012 177.005 131.08C176.999 131.08 176.993 131.081 176.987 131.081C176.894 131.081 176.818 131.005 176.818 130.911C176.818 130.911 176.818 130.911 176.818 130.91V129.528C176.818 129.434 176.895 129.358 176.991 129.358L185.675 129.359C185.774 129.358 185.854 129.437 185.854 129.535V130.903C185.854 130.995 185.78 131.069 185.689 131.069L183.388 131.069Z" fill="#373435"/>
<path d="M266.557 131.065C266.466 131.065 266.392 130.991 266.392 130.899V129.521C266.392 129.431 266.464 129.358 266.554 129.358L282.103 129.355C282.215 129.355 282.306 129.442 282.312 129.553L282.654 135.094C282.654 135.098 282.654 135.103 282.654 135.108C282.654 135.231 282.554 135.331 282.431 135.331C282.431 135.331 282.431 135.331 282.431 135.331L281.016 135.324C280.91 135.324 280.825 135.237 280.825 135.13C280.825 135.027 280.633 134.413 280.249 133.29C279.899 132.26 279.183 131.6 278.103 131.31C277.261 131.085 275.636 131.004 273.228 131.069C273.087 131.073 272.976 131.19 272.976 131.332L272.98 135.76C272.98 135.761 272.98 135.762 272.98 135.764C272.982 135.883 273.079 135.978 273.196 135.976C273.197 135.976 273.199 135.976 273.2 135.976C275.389 135.929 276.418 135.67 276.577 133.319C276.583 133.221 276.662 133.145 276.757 133.146L278.251 133.146C278.342 133.146 278.416 133.22 278.416 133.311L278.42 140.491C278.42 140.592 278.338 140.674 278.236 140.674H276.778H276.778C276.67 140.674 276.58 140.59 276.573 140.483C276.393 138.19 275.507 137.459 273.196 137.675C273.069 137.686 272.975 137.793 272.976 137.919V142.751C272.976 142.94 273.129 143.094 273.318 143.094H276.048C276.147 143.094 276.228 143.176 276.228 143.277V144.62C276.228 144.72 276.147 144.8 276.048 144.8L266.593 144.803C266.482 144.803 266.392 144.715 266.392 144.605V143.281C266.392 143.181 266.474 143.1 266.575 143.1L269.074 143.101C269.231 143.1 269.358 142.973 269.358 142.816V131.36C269.356 131.197 269.223 131.065 269.059 131.065L266.557 131.065Z" fill="#373435"/>
<path d="M289.465 131.061C289.374 131.061 289.299 130.987 289.299 130.896V129.517C289.299 129.428 289.372 129.355 289.462 129.355H305.015C305.126 129.355 305.218 129.442 305.223 129.553L305.565 135.098C305.566 135.102 305.566 135.107 305.566 135.112C305.566 135.235 305.466 135.335 305.343 135.335C305.342 135.335 305.342 135.335 305.342 135.335L303.927 135.324C303.822 135.324 303.736 135.237 303.736 135.13C303.736 135.027 303.544 134.413 303.16 133.29C302.81 132.26 302.095 131.6 301.014 131.31C300.172 131.085 298.547 131.004 296.14 131.069C295.999 131.073 295.887 131.19 295.888 131.332V135.76C295.888 135.761 295.888 135.762 295.888 135.764C295.89 135.883 295.987 135.978 296.104 135.976C296.105 135.976 296.107 135.976 296.108 135.976C298.296 135.929 299.33 135.67 299.488 133.319C299.494 133.221 299.574 133.145 299.669 133.146L301.162 133.146C301.254 133.146 301.328 133.22 301.328 133.311V140.494C301.328 140.595 301.246 140.678 301.144 140.678H299.686C299.686 140.678 299.686 140.678 299.685 140.678C299.578 140.678 299.489 140.594 299.481 140.487C299.301 138.19 298.415 137.459 296.104 137.675C295.977 137.686 295.882 137.793 295.884 137.919L295.884 142.755C295.884 142.944 296.037 143.097 296.226 143.097H298.955C299.055 143.097 299.135 143.179 299.135 143.281V144.624C299.135 144.723 299.055 144.803 298.955 144.803H289.497C289.386 144.803 289.296 144.715 289.296 144.605V143.281C289.296 143.181 289.378 143.1 289.48 143.1L291.982 143.101C292.139 143.1 292.266 142.973 292.266 142.816V131.36C292.266 131.195 292.132 131.061 291.967 131.061H289.465Z" fill="#373435"/>
<path d="M328.351 135.216H326.994C326.993 135.216 326.993 135.216 326.993 135.216C326.884 135.216 326.794 135.133 326.785 135.025C326.756 134.752 326.557 134.148 326.187 133.215C325.633 131.825 324.526 131.113 322.868 131.08C321.49 131.051 320.196 131.05 318.987 131.076C318.881 131.078 318.796 131.164 318.796 131.27V135.828C318.796 135.914 318.857 135.987 318.939 136.001C319.253 136.062 319.833 135.972 320.085 135.965C321.716 135.904 322.241 134.799 322.353 133.305C322.362 133.179 322.467 133.081 322.593 133.081C322.594 133.081 322.594 133.081 322.594 133.081H323.962C324.075 133.081 324.167 133.173 324.167 133.286V140.602C324.167 140.697 324.088 140.775 323.991 140.775H322.536C322.431 140.774 322.346 140.694 322.342 140.592C322.194 138.269 321.338 137.531 318.976 137.668C318.875 137.674 318.796 137.757 318.796 137.859V142.863C318.795 142.965 318.874 143.051 318.975 143.057C320.744 143.158 323.534 143.324 324.963 142.482C326.5 141.574 326.936 140.253 327.267 138.543C327.279 138.485 327.328 138.445 327.383 138.445H329.021C329.024 138.445 329.026 138.445 329.028 138.445C329.102 138.45 329.158 138.514 329.154 138.589C329.154 138.591 329.154 138.593 329.154 138.595L328.682 144.631C328.675 144.728 328.593 144.803 328.496 144.803C328.495 144.803 328.495 144.803 328.495 144.803H312.715C312.635 144.803 312.571 144.737 312.571 144.656V143.234C312.571 143.156 312.634 143.093 312.712 143.093L314.872 143.094C315.041 143.093 315.178 142.955 315.178 142.784V131.353C315.178 131.192 315.049 131.061 314.89 131.061H312.747C312.65 131.061 312.571 130.982 312.571 130.885V129.535C312.571 129.435 312.65 129.355 312.747 129.355H327.926H327.926C328.068 129.355 328.185 129.466 328.192 129.607L328.527 135.029C328.527 135.033 328.528 135.036 328.528 135.04C328.528 135.137 328.449 135.216 328.351 135.216H328.351V135.216Z" fill="#373435"/>
<path d="M352.843 135.029C352.843 135.033 352.843 135.036 352.843 135.04C352.843 135.137 352.765 135.216 352.667 135.216C352.667 135.216 352.667 135.216 352.667 135.216L351.309 135.216C351.309 135.216 351.309 135.216 351.309 135.216C351.2 135.216 351.11 135.133 351.1 135.025C351.072 134.752 350.873 134.148 350.503 133.215C349.948 131.825 348.842 131.113 347.183 131.08C345.806 131.051 344.512 131.05 343.302 131.076C343.196 131.078 343.112 131.164 343.112 131.27L343.115 135.828C343.115 135.914 343.176 135.987 343.259 136.001C343.572 136.062 344.152 135.972 344.404 135.965C346.031 135.904 346.557 134.799 346.669 133.305C346.678 133.179 346.783 133.081 346.909 133.081H346.91H348.278C348.391 133.081 348.483 133.173 348.483 133.286L348.487 140.602C348.487 140.697 348.408 140.775 348.31 140.775H346.856C346.75 140.774 346.666 140.694 346.661 140.592C346.514 138.269 345.657 137.531 343.295 137.668C343.194 137.674 343.115 137.757 343.115 137.859V142.863C343.114 142.965 343.193 143.051 343.294 143.057C345.063 143.158 347.853 143.324 349.283 142.482C350.82 141.574 351.255 140.253 351.583 138.543C351.596 138.485 351.644 138.445 351.699 138.445H353.336C353.34 138.445 353.342 138.445 353.344 138.445C353.417 138.45 353.474 138.514 353.47 138.589C353.47 138.591 353.469 138.593 353.469 138.595L353.002 144.631C352.994 144.728 352.913 144.803 352.815 144.803C352.815 144.803 352.814 144.803 352.814 144.803H337.035C336.955 144.803 336.891 144.737 336.891 144.656V143.234C336.891 143.156 336.953 143.093 337.031 143.093L339.191 143.094C339.36 143.093 339.497 142.955 339.497 142.784L339.494 131.357C339.494 131.196 339.364 131.065 339.206 131.065L337.063 131.065C336.966 131.065 336.887 130.986 336.887 130.889L336.887 129.539C336.887 129.439 336.966 129.358 337.063 129.358L352.242 129.355C352.242 129.355 352.242 129.355 352.242 129.355C352.384 129.355 352.501 129.466 352.508 129.607L352.843 135.029Z" fill="#373435"/>
</svg>
