<svg width="359" height="160" viewBox="0 0 359 160" fill="none" xmlns="http://www.w3.org/2000/svg">
<path d="M193.695 3.40669V8.39833C201.179 12.9663 205.995 21.3776 205.995 31.4312C205.995 45.7805 196.194 56.8035 182.811 58.0538V35.1933V4.80925V1.59222V0.437844C181.969 0.370569 181.123 0.3125 180.259 0.3125C163.107 0.3125 150.172 13.6904 150.172 31.4312C150.172 43.8288 156.504 54.0674 166.168 59.1184V54.0513C159.059 49.3987 154.525 41.188 154.525 31.4312C154.525 17.0807 164.324 6.05839 177.708 4.80925V13.82H177.794V62.432C178.608 62.4947 179.423 62.55 180.259 62.55C197.411 62.55 210.347 49.1707 210.347 31.4312C210.347 18.7527 203.729 8.33104 193.695 3.40669Z" fill="#3E4095"/>
<path d="M193.695 3.40669V8.39833C201.179 12.9663 205.995 21.3776 205.995 31.4312C205.995 45.7805 196.194 56.8035 182.811 58.0538V35.1933V4.80925V1.59222V0.437844C181.969 0.370569 181.123 0.3125 180.259 0.3125C163.107 0.3125 150.172 13.6904 150.172 31.4312C150.172 43.8288 156.504 54.0674 166.168 59.1184V54.0513C159.059 49.3987 154.525 41.188 154.525 31.4312C154.525 17.0807 164.324 6.05839 177.708 4.80925V13.82H177.794V62.432C178.608 62.4947 179.423 62.55 180.259 62.55C197.411 62.55 210.347 49.1707 210.347 31.4312C210.347 18.7527 203.729 8.33104 193.695 3.40669Z" fill="#3E4095"/>
<path d="M2.1543 127.243H24.6221V124.341H5.43038V119.266H2.1543V127.243Z" fill="#3E4095"/>
<path d="M2.1543 127.243H24.6221V124.341H5.43038V119.266H2.1543V127.243Z" fill="#3E4095"/>
<path d="M5.4315 94.0088H2.15527V111.327H5.4315V94.0088Z" fill="#3E4095"/>
<path d="M5.4315 94.0088H2.15527V111.327H5.4315V94.0088Z" fill="#3E4095"/>
<path d="M66.8906 127.243H70.355L67.0403 119.266H63.585L66.8906 127.243Z" fill="#3E4095"/>
<path d="M66.8906 127.243H70.355L67.0403 119.266H63.585L66.8906 127.243Z" fill="#3E4095"/>
<path d="M39.8818 127.243H43.3927L46.6627 119.266H43.2192L39.8818 127.243Z" fill="#3E4095"/>
<path d="M39.8818 127.243H43.3927L46.6627 119.266H43.2192L39.8818 127.243Z" fill="#3E4095"/>
<path d="M55.1412 97.8474L60.633 111.328H63.7417L56.5449 94.0088H53.7847L46.5391 111.328H49.5729L55.1412 97.8474Z" fill="#3E4095"/>
<path d="M55.1412 97.8474L60.633 111.328H63.7417L56.5449 94.0088H53.7847L46.5391 111.328H49.5729L55.1412 97.8474Z" fill="#3E4095"/>
<path d="M94.3682 127.243H97.6442V119.266H94.3682V127.243Z" fill="#3E4095"/>
<path d="M94.3682 127.243H97.6442V119.266H94.3682V127.243Z" fill="#3E4095"/>
<path d="M97.6436 96.9111H109.487V94.0088H82.5249V96.9111H94.3675V111.328H97.6436V96.9111Z" fill="#3E4095"/>
<path d="M97.6436 96.9111H109.487V94.0088H82.5249V96.9111H94.3675V111.328H97.6436V96.9111Z" fill="#3E4095"/>
<path d="M131.768 94.0088H128.491V111.327H131.768V94.0088Z" fill="#3E4095"/>
<path d="M131.768 94.0088H128.491V111.327H131.768V94.0088Z" fill="#3E4095"/>
<path d="M128.49 127.243H131.766V119.266H128.49V127.243Z" fill="#3E4095"/>
<path d="M128.49 127.243H131.766V119.266H128.49V127.243Z" fill="#3E4095"/>
<path d="M165.889 96.9111H177.732V94.0088H150.77V96.9111H162.613V111.328H165.889V96.9111Z" fill="#3E4095"/>
<path d="M165.889 96.9111H177.732V94.0088H150.77V96.9111H162.613V111.328H165.889V96.9111Z" fill="#3E4095"/>
<path d="M162.613 127.243H165.89V119.266H162.613V127.243Z" fill="#3E4095"/>
<path d="M162.613 127.243H165.89V119.266H162.613V127.243Z" fill="#3E4095"/>
<path d="M199.498 110.767V94.0088H196.268V110.767C196.268 110.955 196.28 111.141 196.284 111.327H199.511C199.508 111.141 199.498 110.955 199.498 110.767Z" fill="#3E4095"/>
<path d="M199.498 110.767V94.0088H196.268V110.767C196.268 110.955 196.28 111.141 196.284 111.327H199.511C199.508 111.141 199.498 110.955 199.498 110.767Z" fill="#3E4095"/>
<path d="M224.26 110.767V94.0088H220.983V110.767C220.983 110.954 220.974 111.141 220.97 111.327H224.244C224.247 111.14 224.26 110.956 224.26 110.767Z" fill="#3E4095"/>
<path d="M224.26 110.767V94.0088H220.983V110.767C220.983 110.954 220.974 111.141 220.97 111.327H224.244C224.247 111.14 224.26 110.956 224.26 110.767Z" fill="#3E4095"/>
<path d="M218.76 120.198C217.933 121.494 216.825 122.54 215.436 123.335C214.047 124.13 212.307 124.528 210.217 124.528C208.157 124.528 206.441 124.139 205.067 123.358C203.695 122.579 202.594 121.549 201.768 120.269C201.559 119.947 201.367 119.612 201.19 119.266H197.71C198.139 120.345 198.663 121.357 199.312 122.281C200.402 123.842 201.846 125.098 203.641 126.05C205.435 127.001 207.642 127.477 210.264 127.477C212.823 127.477 214.991 127.026 216.77 126.12C218.55 125.214 219.992 123.998 221.101 122.469C221.799 121.502 222.366 120.427 222.822 119.266H219.291C219.127 119.586 218.952 119.899 218.76 120.198Z" fill="#3E4095"/>
<path d="M218.76 120.198C217.933 121.494 216.825 122.54 215.436 123.335C214.047 124.13 212.307 124.528 210.217 124.528C208.157 124.528 206.441 124.139 205.067 123.358C203.695 122.579 202.594 121.549 201.768 120.269C201.559 119.947 201.367 119.612 201.19 119.266H197.71C198.139 120.345 198.663 121.357 199.312 122.281C200.402 123.842 201.846 125.098 203.641 126.05C205.435 127.001 207.642 127.477 210.264 127.477C212.823 127.477 214.991 127.026 216.77 126.12C218.55 125.214 219.992 123.998 221.101 122.469C221.799 121.502 222.366 120.427 222.822 119.266H219.291C219.127 119.586 218.952 119.899 218.76 120.198Z" fill="#3E4095"/>
<path d="M266.808 120.386C265.747 121.618 264.429 122.586 262.852 123.288C261.277 123.99 259.459 124.342 257.4 124.342H249.395V119.266H246.119V127.243H257.4C259.834 127.243 262.026 126.846 263.976 126.05C265.926 125.253 267.597 124.13 268.986 122.679C269.937 121.685 270.726 120.541 271.379 119.266H267.651C267.389 119.655 267.112 120.032 266.808 120.386Z" fill="#3E4095"/>
<path d="M266.808 120.386C265.747 121.618 264.429 122.586 262.852 123.288C261.277 123.99 259.459 124.342 257.4 124.342H249.395V119.266H246.119V127.243H257.4C259.834 127.243 262.026 126.846 263.976 126.05C265.926 125.253 267.597 124.13 268.986 122.679C269.937 121.685 270.726 120.541 271.379 119.266H267.651C267.389 119.655 267.112 120.032 266.808 120.386Z" fill="#3E4095"/>
<path d="M249.396 96.9111H257.399C259.428 96.9111 261.222 97.2477 262.783 97.9182C264.343 98.5899 265.662 99.5325 266.738 100.749C267.815 101.966 268.634 103.411 269.196 105.08C269.758 106.749 270.037 108.583 270.037 110.58C270.037 110.834 270.022 111.079 270.012 111.328H273.301C273.308 111.08 273.315 110.832 273.315 110.58C273.315 108.302 272.979 106.156 272.307 104.143C271.637 102.131 270.638 100.376 269.312 98.8769C267.986 97.3798 266.332 96.1945 264.351 95.3203C262.37 94.4464 260.052 94.0088 257.399 94.0088H246.119V111.328H249.396V96.9111Z" fill="#3E4095"/>
<path d="M249.396 96.9111H257.399C259.428 96.9111 261.222 97.2477 262.783 97.9182C264.343 98.5899 265.662 99.5325 266.738 100.749C267.815 101.966 268.634 103.411 269.196 105.08C269.758 106.749 270.037 108.583 270.037 110.58C270.037 110.834 270.022 111.079 270.012 111.328H273.301C273.308 111.08 273.315 110.832 273.315 110.58C273.315 108.302 272.979 106.156 272.307 104.143C271.637 102.131 270.638 100.376 269.312 98.8769C267.986 97.3798 266.332 96.1945 264.351 95.3203C262.37 94.4464 260.052 94.0088 257.399 94.0088H246.119V111.328H249.396V96.9111Z" fill="#3E4095"/>
<path d="M313.149 108.894H296.907V96.9104H315.535V94.0093H293.629V111.327H313.149V108.894Z" fill="#3E4095"/>
<path d="M313.149 108.894H296.907V96.9104H315.535V94.0093H293.629V111.327H313.149V108.894Z" fill="#3E4095"/>
<path d="M293.629 127.243H315.958V124.341H296.906V119.266H293.629V127.243Z" fill="#3E4095"/>
<path d="M293.629 127.243H315.958V124.341H296.906V119.266H293.629V127.243Z" fill="#3E4095"/>
<path d="M352.444 123.194C350.962 124.147 348.895 124.621 346.243 124.621C344.963 124.621 343.745 124.505 342.592 124.271C341.436 124.036 340.352 123.709 339.338 123.288C338.323 122.866 337.402 122.376 336.576 121.814C335.748 121.252 335.038 120.66 334.447 120.035L332.808 122.703C336.553 125.918 341.001 127.524 346.149 127.524C347.896 127.524 349.503 127.344 350.97 126.986C352.436 126.627 353.7 126.074 354.762 125.324C355.823 124.575 356.649 123.64 357.243 122.516C357.737 121.577 358.013 120.487 358.095 119.267H354.648C354.55 120.998 353.82 122.311 352.444 123.194Z" fill="#3E4095"/>
<path d="M352.444 123.194C350.962 124.147 348.895 124.621 346.243 124.621C344.963 124.621 343.745 124.505 342.592 124.271C341.436 124.036 340.352 123.709 339.338 123.288C338.323 122.866 337.402 122.376 336.576 121.814C335.748 121.252 335.038 120.66 334.447 120.035L332.808 122.703C336.553 125.918 341.001 127.524 346.149 127.524C347.896 127.524 349.503 127.344 350.97 126.986C352.436 126.627 353.7 126.074 354.762 125.324C355.823 124.575 356.649 123.64 357.243 122.516C357.737 121.577 358.013 120.487 358.095 119.267H354.648C354.55 120.998 353.82 122.311 352.444 123.194Z" fill="#3E4095"/>
<path d="M351.414 110.486C349.995 110.017 348.396 109.596 346.616 109.222C345.026 108.879 343.645 108.535 342.474 108.191C341.304 107.849 340.344 107.443 339.595 106.974C338.847 106.507 338.292 105.953 337.933 105.313C337.575 104.674 337.395 103.855 337.395 102.856C337.395 100.953 338.066 99.4468 339.409 98.3387C340.749 97.2317 342.888 96.6772 345.822 96.6772C347.817 96.6772 349.596 97.0045 351.158 97.6598C352.717 98.3156 353.965 99.1743 354.902 100.234L356.492 97.6138C355.089 96.396 353.522 95.4518 351.79 94.7813C350.058 94.1112 348.083 93.7749 345.868 93.7749C344.12 93.7749 342.528 93.985 341.094 94.4068C339.657 94.8278 338.409 95.4363 337.349 96.2319C336.287 97.0286 335.469 98.026 334.89 99.2279C334.313 100.43 334.024 101.795 334.024 103.324C334.024 104.666 334.251 105.797 334.703 106.718C335.156 107.638 335.835 108.426 336.74 109.082C337.645 109.736 338.753 110.284 340.063 110.719C340.682 110.926 341.353 111.129 342.069 111.327H353.485C352.852 111.015 352.165 110.733 351.414 110.486Z" fill="#3E4095"/>
<path d="M351.414 110.486C349.995 110.017 348.396 109.596 346.616 109.222C345.026 108.879 343.645 108.535 342.474 108.191C341.304 107.849 340.344 107.443 339.595 106.974C338.847 106.507 338.292 105.953 337.933 105.313C337.575 104.674 337.395 103.855 337.395 102.856C337.395 100.953 338.066 99.4468 339.409 98.3387C340.749 97.2317 342.888 96.6772 345.822 96.6772C347.817 96.6772 349.596 97.0045 351.158 97.6598C352.717 98.3156 353.965 99.1743 354.902 100.234L356.492 97.6138C355.089 96.396 353.522 95.4518 351.79 94.7813C350.058 94.1112 348.083 93.7749 345.868 93.7749C344.12 93.7749 342.528 93.985 341.094 94.4068C339.657 94.8278 338.409 95.4363 337.349 96.2319C336.287 97.0286 335.469 98.026 334.89 99.2279C334.313 100.43 334.024 101.795 334.024 103.324C334.024 104.666 334.251 105.797 334.703 106.718C335.156 107.638 335.835 108.426 336.74 109.082C337.645 109.736 338.753 110.284 340.063 110.719C340.682 110.926 341.353 111.129 342.069 111.327H353.485C352.852 111.015 352.165 110.733 351.414 110.486Z" fill="#3E4095"/>
<path d="M0.902832 154.872H14.9574V152.714H0.902832V154.872Z" fill="#3E4095"/>
<path d="M0.902832 154.872H14.9574V152.714H0.902832V154.872Z" fill="#3E4095"/>
<path d="M342.539 153.906H356.594V151.747H342.539V153.906Z" fill="#3E4095"/>
<path d="M342.539 153.906H356.594V151.747H342.539V153.906Z" fill="#3E4095"/>
<path d="M34.2593 156.5C34.6221 156.194 34.8032 155.762 34.8032 155.2C34.8032 154.626 34.613 154.178 34.2298 153.853C33.8488 153.529 33.3321 153.366 32.6828 153.366H30.0463V156.957H32.7395C33.39 156.957 33.8964 156.805 34.2593 156.5ZM30.0463 151.303H32.4916C33.1288 151.303 33.6194 151.16 33.9637 150.872C34.3069 150.587 34.4793 150.176 34.4793 149.64C34.4793 149.105 34.3069 148.692 33.9637 148.398C33.6194 148.106 33.1288 147.958 32.4916 147.958H30.0463V151.303ZM36.7904 153.424C37.2742 154.035 37.5165 154.736 37.5165 155.525C37.5165 156.239 37.3419 156.866 36.9912 157.408C36.6408 157.949 36.1347 158.372 35.4729 158.677C34.8096 158.983 34.0265 159.135 33.1228 159.135H27.3711V145.8H32.8744C33.7785 145.8 34.5583 145.947 35.2148 146.24C35.8705 146.533 36.3675 146.94 36.7039 147.463C37.0421 147.985 37.2112 148.577 37.2112 149.239C37.2112 150.017 37.004 150.666 36.5905 151.188C36.1759 151.711 35.6253 152.079 34.9374 152.295C35.6884 152.436 36.3062 152.812 36.7904 153.424Z" fill="#3E4095"/>
<path d="M49.9739 151.933H52.2091C52.9355 151.933 53.476 151.758 53.8331 151.408C54.1895 151.058 54.3688 150.571 54.3688 149.946C54.3688 149.335 54.1895 148.86 53.8331 148.523C53.476 148.185 52.9355 148.017 52.2091 148.017H49.9739V151.933ZM54.1771 159.137L51.2347 153.939H49.9739V159.137H47.2988V145.8H52.3051C53.3361 145.8 54.215 145.982 54.941 146.345C55.6674 146.708 56.2128 147.197 56.5745 147.815C56.9373 148.434 57.1198 149.124 57.1198 149.888C57.1198 150.768 56.8648 151.561 56.3557 152.268C55.8451 152.974 55.0872 153.461 54.0815 153.729L57.2722 159.137H54.1771Z" fill="#3E4095"/>
<path d="M74.6396 154.455L72.71 148.876L70.7807 154.455H74.6396ZM75.366 156.595H70.0543L69.1756 159.137H66.3672L71.1628 145.781H74.2767L79.0723 159.137H76.2447L75.366 156.595Z" fill="#3E4095"/>
<path d="M91.2431 156.881H97.2425V159.136H88.1475V157.073L94.1088 148.055H88.1475V145.8H97.2425V147.863L91.2431 156.881Z" fill="#3E4095"/>
<path d="M109.833 159.136H107.158V145.8H109.833V159.136Z" fill="#3E4095"/>
<path d="M122.788 157.016H127.182V159.136H120.112V145.8H122.788V157.016Z" fill="#3E4095"/>
<path d="M139.201 159.136H136.525V145.8H139.201V159.136Z" fill="#3E4095"/>
<path d="M156.93 154.455L155 148.876L153.071 154.455H156.93ZM157.657 156.595H152.345L151.466 159.137H148.657L153.453 145.781H156.567L161.363 159.137H158.535L157.657 156.595Z" fill="#3E4095"/>
<path d="M182.208 159.136H179.533L173.476 149.983V159.136H170.801V145.781H173.476L179.533 154.952V145.781H182.208V159.136Z" fill="#3E4095"/>
<path d="M204.916 148.924C205.509 147.886 206.318 147.077 207.342 146.498C208.368 145.918 209.517 145.627 210.792 145.627C212.282 145.627 213.587 146.011 214.708 146.773C215.829 147.539 216.611 148.597 217.058 149.946H213.983C213.676 149.309 213.247 148.832 212.693 148.513C212.139 148.194 211.498 148.035 210.773 148.035C209.995 148.035 209.303 148.218 208.699 148.58C208.095 148.942 207.623 149.456 207.285 150.118C206.948 150.78 206.779 151.558 206.779 152.449C206.779 153.328 206.948 154.101 207.285 154.77C207.623 155.439 208.095 155.956 208.699 156.318C209.303 156.681 209.995 156.862 210.773 156.862C211.498 156.862 212.139 156.7 212.693 156.376C213.247 156.051 213.676 155.57 213.983 154.933H217.058C216.611 156.295 215.832 157.356 214.719 158.114C213.603 158.872 212.295 159.251 210.792 159.251C209.517 159.251 208.368 158.962 207.342 158.381C206.318 157.802 205.509 156.997 204.916 155.964C204.323 154.933 204.027 153.762 204.027 152.449C204.027 151.138 204.323 149.962 204.916 148.924Z" fill="#3E4095"/>
<path d="M235.304 156.337C235.915 155.974 236.393 155.456 236.737 154.78C237.08 154.105 237.252 153.321 237.252 152.43C237.252 151.538 237.08 150.759 236.737 150.089C236.393 149.421 235.915 148.909 235.304 148.552C234.692 148.195 233.986 148.017 233.183 148.017C232.38 148.017 231.671 148.195 231.053 148.552C230.435 148.909 229.954 149.421 229.61 150.089C229.266 150.759 229.095 151.538 229.095 152.43C229.095 153.321 229.266 154.105 229.61 154.78C229.954 155.456 230.435 155.974 231.053 156.337C231.671 156.701 232.38 156.882 233.183 156.882C233.986 156.882 234.692 156.701 235.304 156.337ZM229.744 158.391C228.699 157.805 227.872 156.993 227.26 155.955C226.648 154.917 226.342 153.743 226.342 152.43C226.342 151.13 226.648 149.962 227.26 148.924C227.872 147.887 228.699 147.074 229.744 146.488C230.788 145.903 231.934 145.609 233.183 145.609C234.444 145.609 235.593 145.903 236.631 146.488C237.669 147.074 238.491 147.887 239.096 148.924C239.702 149.962 240.004 151.13 240.004 152.43C240.004 153.743 239.702 154.917 239.096 155.955C238.491 156.993 237.666 157.805 236.622 158.391C235.577 158.978 234.431 159.269 233.183 159.269C231.934 159.269 230.788 158.978 229.744 158.391Z" fill="#3E4095"/>
<path d="M257.869 145.8V147.959H252.308V151.379H256.569V153.501H252.308V159.136H249.635V145.8H257.869Z" fill="#3E4095"/>
<path d="M275.637 145.8V147.959H270.077V151.379H274.338V153.501H270.077V159.136H267.403V145.8H275.637Z" fill="#3E4095"/>
<path d="M287.847 147.959V151.303H292.337V153.423H287.847V156.958H292.91V159.137H285.172V145.781H292.91V147.959H287.847Z" fill="#3E4095"/>
<path d="M305.654 147.959V151.303H310.144V153.423H305.654V156.958H310.717V159.137H302.979V145.781H310.717V147.959H305.654Z" fill="#3E4095"/>
<path d="M322.877 158.793C322.132 158.474 321.543 158.015 321.11 157.417C320.677 156.818 320.454 156.111 320.441 155.297H323.308C323.346 155.843 323.539 156.276 323.891 156.595C324.24 156.913 324.721 157.073 325.332 157.073C325.957 157.073 326.447 156.923 326.804 156.624C327.159 156.325 327.339 155.933 327.339 155.448C327.339 155.054 327.218 154.729 326.977 154.474C326.733 154.22 326.431 154.019 326.068 153.872C325.705 153.726 325.205 153.564 324.568 153.385C323.702 153.131 322.998 152.879 322.457 152.63C321.915 152.383 321.45 152.006 321.063 151.504C320.673 151 320.479 150.329 320.479 149.488C320.479 148.698 320.677 148.011 321.073 147.424C321.467 146.838 322.02 146.39 322.734 146.076C323.448 145.766 324.264 145.609 325.18 145.609C326.555 145.609 327.673 145.944 328.533 146.612C329.393 147.281 329.867 148.215 329.956 149.41H327.014C326.989 148.952 326.795 148.574 326.431 148.274C326.068 147.975 325.588 147.826 324.988 147.826C324.466 147.826 324.049 147.959 323.737 148.226C323.425 148.494 323.269 148.883 323.269 149.391C323.269 149.749 323.387 150.045 323.623 150.281C323.858 150.516 324.151 150.708 324.502 150.853C324.851 151 325.345 151.169 325.982 151.359C326.848 151.615 327.555 151.87 328.104 152.124C328.65 152.379 329.122 152.761 329.517 153.271C329.912 153.781 330.109 154.449 330.109 155.278C330.109 155.99 329.924 156.652 329.555 157.265C329.185 157.876 328.644 158.362 327.931 158.725C327.218 159.088 326.371 159.269 325.389 159.269C324.46 159.269 323.623 159.11 322.877 158.793Z" fill="#3E4095"/>
</svg>
