<svg width="364" height="225" viewBox="0 0 364 225" fill="none" xmlns="http://www.w3.org/2000/svg">
<path d="M72.6173 62.1904C72.6415 62.2146 72.6524 62.2498 72.6494 62.2955C72.6498 62.2959 72.6498 62.2959 72.6498 62.2962C72.6498 62.3034 72.6449 62.3099 72.6377 62.3117C69.1057 63.3375 66.5753 64.1411 65.0461 64.7223C63.7248 65.2284 62.3922 65.6941 61.0489 66.1193C57.1038 67.371 52.7347 68.9418 49.9246 69.8666C49.6929 69.9422 47.9808 70.6944 44.7882 72.1238C44.4005 72.2961 42.7787 73.23 39.9225 74.9259C38.0569 76.0326 35.9937 77.1063 33.7324 78.1483C32.7418 78.6019 31.7485 79.159 30.8089 79.7834C26.518 82.6585 23.4763 84.5728 21.6832 85.5256C16.7978 88.1206 13.7394 89.643 12.5092 90.0924C9.79057 91.0936 6.92228 92.3885 3.90471 93.9766C3.30981 94.2892 2.64613 94.3187 1.91403 94.0655C0.585528 93.6093 0.742768 91.5985 0.981256 90.6336C1.02472 90.4598 1.1453 90.3154 1.3082 90.2417C7.62908 87.3666 11.4581 85.5551 12.796 84.8067C14.8094 83.6842 16.0211 83.0289 16.4301 82.8403C19.1396 81.5968 22.3133 79.6828 24.276 78.6975C25.6272 78.0217 27.0109 77.2628 28.4267 76.4203C31.5414 74.5627 35.1754 72.5153 39.3291 70.2782C41.6388 69.0389 43.3021 68.3926 45.5067 67.258C47.5946 66.1843 50.199 65.5421 52.4157 64.5851C57.4739 62.3964 62.9118 60.301 68.7289 58.2983C72.7481 56.9142 76.9592 55.625 81.3635 54.4296C85.7621 53.2345 88.4459 52.5076 89.415 52.2491C93.2618 51.2128 95.9646 50.5442 97.5232 50.2426C100.915 49.5857 103.273 49.1133 104.597 48.8253C106.483 48.4133 108.175 48.4617 109.936 47.8036C110.049 47.7602 110.175 47.7296 110.303 47.7156C113.835 47.3085 116.866 47.3297 119.396 47.7795C123.141 48.4469 127.432 49.9047 132.269 52.1524C133.539 52.7446 135.299 53.5414 137.547 54.5429C137.897 54.699 138.872 54.995 140.474 55.4311C141.422 55.6923 142.416 55.8983 143.458 56.0491C146.597 56.5068 150.124 56.8741 154.041 57.1512C155.918 57.2831 158.129 57.3103 160.676 57.232C165.178 57.0986 168.764 57.4055 173.985 57.7328C175.696 57.8375 177.662 57.7555 179.88 57.4864C183.514 57.0423 186.706 56.6251 189.458 56.2346C192.631 55.7826 195.373 55.2682 197.683 54.6922C197.69 54.6915 197.698 54.6881 197.705 54.682C197.718 54.6699 197.722 54.6522 197.713 54.6423C197.709 54.6378 197.702 54.6355 197.695 54.6359C197.657 54.6359 197.637 54.6359 197.634 54.6359C197.626 54.6352 197.617 54.6325 197.608 54.6287C197.587 54.62 197.572 54.6057 197.576 54.5973C197.578 54.5928 197.584 54.5906 197.594 54.5913C198.422 54.5471 199.132 54.3611 199.839 53.9412C199.958 53.8687 200.092 53.8124 200.234 53.7772C202.76 53.1596 205.15 52.1913 207.406 50.8726C211.038 48.7485 214.588 46.8183 218.058 45.082C218.806 44.7078 219.236 44.5155 219.346 44.5045C219.47 44.4943 219.59 44.427 219.669 44.3205C219.763 44.1904 220.206 43.9164 220.997 43.4992C221.503 43.2327 221.952 42.981 222.342 42.744C226.302 40.3402 228.688 38.8813 229.501 38.3669C231.464 37.1235 234.358 35.1124 238.183 32.3344C239.338 31.4946 240.491 30.6522 241.643 29.8067C244.529 27.6882 246.891 25.4406 248.73 23.0636C248.829 22.9325 248.929 22.8278 249.04 22.7352C250.238 21.6781 251.908 20.8397 254.048 20.2207C255.754 19.7282 257.082 19.5075 258.029 19.5585C258.154 19.5627 258.269 19.5509 258.378 19.523C260.528 19.0139 262.401 18.3566 263.997 17.5516C265.273 16.9098 266.509 16.7564 267.611 16.4574C267.623 16.4529 267.638 16.4498 267.654 16.4498L270.793 16.2435C271.323 16.2095 271.753 15.7911 271.806 15.2563C271.86 14.6572 271.699 13.8208 271.322 12.7466C271.21 12.4231 270.945 12.1695 270.611 12.0694C269.585 11.7643 268.55 11.6347 267.506 11.6808C267.328 11.6838 267.164 11.6608 267.009 11.6113C266.379 11.4144 265.063 10.7722 264.958 9.93621C264.813 8.81369 265.568 8.04266 265.871 7.38842C266.188 6.70206 266.622 6.27799 267.171 6.11623C268.737 5.65626 270.194 5.31686 271.54 5.09878C272.05 5.02546 272.518 4.69663 272.775 4.21814C273.958 1.9251 276.078 0.200878 278.634 0.104122C280.823 0.0190826 282.705 0.305959 283.577 2.54306C284.247 4.26312 283.371 5.91855 285.951 6.72623C287.146 7.1004 288.317 7.74369 289.464 8.65645C289.868 8.97657 290.039 9.52991 289.977 10.3157C289.959 10.6007 289.796 10.872 289.541 11.0273C287.558 12.2058 285.43 12.6578 283.104 12.9322C282.768 12.9674 282.47 13.193 282.341 13.5169C281.768 14.9871 281.535 16.3686 281.643 17.6608C281.677 18.069 281.962 18.4125 282.357 18.521L285.624 19.4296C285.751 19.4667 285.897 19.4856 286.044 19.4814C286.655 19.4602 287.147 19.56 287.522 19.7807C287.569 19.8064 287.62 19.8299 287.674 19.8484L290.243 20.7014C290.375 20.7449 290.493 20.814 290.592 20.9044C290.954 21.2373 291.316 21.4498 291.677 21.5412C291.878 21.5968 292.057 21.6992 292.202 21.8406C293.37 22.9707 294.385 23.9934 295.246 24.9088C296.342 26.0717 300.236 31.049 306.928 39.8409C308.15 41.4454 309.543 43.3378 311.107 45.5182C314.014 49.5804 317.006 53.5818 319.926 57.5632C323.492 62.4248 326.047 65.7817 327.589 67.6337C330.066 70.6055 332.829 73.7928 335.879 77.1955C339.67 81.4218 343.264 84.8203 346.661 87.3912C348.13 88.5027 349.39 89.5512 350.44 90.5365C350.669 90.7493 351.917 91.8178 354.183 93.7427C355.78 95.0965 358.556 97.549 362.513 101.1C363.26 101.77 363.365 102.271 363.309 103.199C363.279 103.676 363.14 103.956 362.893 104.039C362.661 104.117 362.336 104.105 361.916 104.003C360.137 103.564 358.31 103.466 356.436 103.708C352.932 104.164 348.3 104.225 346.479 104.447C344.626 104.669 342.259 104.463 339.962 104.661C339.345 104.715 338.475 104.74 337.349 104.738C327.26 104.727 321.301 104.745 319.474 104.79C317.422 104.839 314.963 105.497 313.405 105.557C309.181 105.716 304.823 105.38 300.33 104.548C298.37 104.185 296.244 103.762 293.95 103.28C293.336 103.154 292.845 102.951 292.476 102.674C292.304 102.544 292.202 102.34 292.202 102.124C292.202 101.933 292.281 101.751 292.42 101.621C293.724 100.405 295.384 100.494 297.596 100.3C298.169 100.245 298.642 99.8621 298.811 99.3273C299.365 97.6273 300.899 95.6325 302.918 95.9635C303.648 96.0849 305.237 96.3377 307.687 96.7225C307.955 96.7633 308.214 96.7648 308.468 96.7285C311.999 96.2663 314.971 95.6808 318.129 95.6646C319.456 95.6566 321.227 95.6483 323.443 95.6404C324.925 95.6366 326.225 95.3739 327.529 95.366C336.418 95.3119 343.036 95.3187 347.383 95.386C347.502 95.3868 347.606 95.3679 347.704 95.3301C348.141 95.1623 348.358 94.6702 348.19 94.231C348.153 94.1339 348.098 94.0443 348.028 93.9668L347.408 93.2581C346.796 92.5616 345.927 92.1398 345.001 92.091C342.482 91.9538 340.157 91.9417 338.028 92.0548C331.539 92.4021 328.167 92.2203 318.812 92.2002C315.803 92.1961 311.979 92.4951 309.383 92.7211C307.757 92.8609 306.376 93.0469 305.24 93.2782C305.047 93.3186 304.852 93.339 304.659 93.339C302.177 93.3417 299.726 93.1893 297.306 92.8824C295.553 92.6606 295.444 90.9768 296.086 89.6967C296.587 88.6993 298.626 88.3765 299.587 88.3844C302.769 88.4007 306.033 88.3924 309.379 88.3603C310.711 88.3493 313.538 88.1123 317.858 87.6493C319.316 87.4921 321.153 87.5605 322.942 87.9037C325.063 88.3104 327.185 88.3036 329.306 87.8837C331.304 87.4879 332.399 87.5163 334.385 87.3024C334.44 87.2971 334.505 87.2978 334.57 87.305L339.401 87.8474C339.417 87.8489 339.433 87.85 339.45 87.85C339.7 87.85 339.902 87.6475 339.902 87.3976C339.902 87.3326 339.888 87.2684 339.861 87.2094C339.341 86.0895 338.466 85.4647 337.236 85.3359C330.563 84.6333 326.185 84.3154 324.101 84.3827C323.398 84.4042 322.237 84.6385 320.616 85.0853C320.479 85.122 320.318 85.153 320.155 85.17C319.55 85.2319 318.818 85.2645 317.959 85.2671C315.491 85.2698 312.161 85.2754 307.97 85.2833C306.685 85.286 305.164 85.4341 303.407 85.7274C299.697 86.3439 295.587 86.5094 291.075 86.2241C290.529 86.1889 290.164 85.8136 289.981 85.0974C289.448 83.0058 290.777 82.4487 292.512 81.827C292.989 81.6573 293.699 81.508 294.64 81.3787C302.668 80.2857 310.791 79.8363 319.009 80.0298C320.727 80.0702 322.113 80.1296 323.168 80.2074C325.618 80.3851 328.035 80.3288 330.42 80.0381C330.432 80.0366 330.44 80.0351 330.448 80.0336C330.654 79.9939 330.788 79.7924 330.747 79.5846C330.746 79.5774 330.744 79.5698 330.742 79.5623C330.517 78.6575 330.03 78.0081 329.282 77.6154C329.158 77.5474 329.012 77.4994 328.86 77.4794C324.662 76.9884 322.082 76.7915 321.121 76.8886C308.095 78.1752 299.77 78.9814 296.146 79.3072C294.338 79.4712 292.671 79.1942 291.148 78.4753C290.973 78.3933 290.819 78.2682 290.699 78.1121C289.978 77.1592 289.842 76.0231 290.292 74.7041C290.337 74.5729 290.444 74.4731 290.578 74.4376C292.684 73.8858 293.972 73.6273 294.443 73.662C296.039 73.7781 297.335 73.7902 298.331 73.6987C301.158 73.4319 302.357 73.5249 305.042 73.3793C312.816 72.9541 318.732 72.6178 322.789 72.3702C322.862 72.3596 322.917 72.349 322.971 72.3351L324.23 71.9866C324.473 71.9208 324.641 71.7001 324.641 71.4488C324.641 71.3856 324.631 71.3233 324.61 71.264C324.073 69.7336 322.853 69.4267 321.185 69.3496C318.472 69.226 316.259 69.2491 314.547 69.4184C310.376 69.8262 307.085 69.9596 302.002 70.327C300.213 70.4563 298.497 70.8153 296.644 70.4925C296.492 70.465 296.36 70.4068 296.247 70.3206C295.674 69.8912 295.04 69.3092 294.346 68.5744C293.864 68.0631 293.826 67.484 294.233 66.8381C294.608 66.2326 295.88 65.849 296.688 65.8002C297.73 65.7413 298.82 65.5864 299.959 65.3361C300.147 65.2965 300.299 65.1547 300.35 64.9687L300.354 64.9567C300.358 64.9431 300.36 64.931 300.362 64.9185C300.378 64.7835 300.281 64.6604 300.144 64.6434C300.131 64.6418 300.119 64.6415 300.107 64.6418C297.728 64.6955 295.392 64.7601 293.098 64.8354C291.648 64.8837 290.151 64.6577 288.689 64.9483C288.104 65.0644 287.423 65.1354 286.645 65.1626C282.527 65.3051 279.084 65.2122 276.316 64.8837C275.843 64.8247 275.173 64.5458 274.306 64.0481C274.17 63.9683 274.08 63.8334 274.059 63.6803C273.676 61.2055 275.246 59.7919 277.508 59.5338C279.104 59.3505 280.795 59.5107 282.579 60.0142C283.683 60.3264 285.079 60.4303 286.766 60.3252C290.114 60.1193 293.857 59.3803 297.544 59.4408C300.758 59.4975 303.959 59.4125 307.146 59.1864C309.241 59.0409 310.816 58.7382 312.855 58.2132C313.142 58.1429 313.323 57.8542 313.26 57.5639C313.112 56.9255 312.74 56.4286 312.145 56.0733C311.989 55.9788 311.792 55.9278 311.592 55.9353C309.459 56.054 305.82 56.3828 300.673 56.921C298.054 57.1958 295.024 57.3277 291.584 57.3167C289.21 57.3088 287.025 57.5994 284.614 57.5027C284.357 57.4921 284.108 57.4048 283.9 57.2521C282.376 56.1163 282.176 54.7259 283.298 53.081C283.404 52.9264 283.571 52.821 283.758 52.7904C284.546 52.6694 285.107 52.4634 285.935 52.4109C288.909 52.2249 290.993 52.1414 292.186 52.1603C294.947 52.2008 297.705 51.7767 300.37 51.8901C301.03 51.9169 301.985 51.8655 303.237 51.7366C304.015 51.6558 305.03 51.6353 306.282 51.6758C306.315 51.675 306.347 51.6724 306.376 51.6671L307.913 51.373C308.284 51.3039 308.552 50.9803 308.552 50.6031C308.552 50.4988 308.531 50.3953 308.49 50.2989C308.107 49.3986 307.336 49.2489 306.298 49.3056C302.906 49.4942 300.938 49.5747 300.395 49.5479C299.793 49.5158 298.663 49.7297 297.83 49.7376C295.591 49.7645 293.654 49.8533 292.02 50.0041C290.833 50.1145 289.701 50.0808 288.624 49.9032C287.932 49.7819 287.405 49.3846 287.251 48.8763C286.278 45.8088 290.049 44.6379 292.327 44.8518C292.986 44.9138 293.551 44.8707 294.023 44.7226C294.067 44.709 294.109 44.7029 294.149 44.7033L302.684 44.424C302.707 44.4229 302.721 44.4217 302.736 44.4199C303.05 44.3813 303.274 44.0933 303.235 43.7769C303.233 43.7622 303.23 43.7479 303.227 43.7335L303.193 43.5517C303.144 43.3121 302.942 43.142 302.706 43.1356C299.744 43.0199 296.281 42.9715 292.319 42.9904C291.107 42.9957 290.218 42.4534 289.65 41.363C289.157 40.4143 289.125 39.4494 290.203 38.9202C290.792 38.6296 291.332 38.4977 291.822 38.5245C294.256 38.6591 296.509 38.526 298.582 38.1247C298.622 38.1163 298.656 38.1043 298.688 38.0876C298.871 37.9901 298.94 37.7611 298.841 37.5763C298.825 37.5449 298.804 37.5162 298.779 37.4905C298.354 37.0384 297.884 36.7935 297.37 36.7557C297.044 36.7315 295.092 36.69 291.511 36.6306C290.655 36.6174 289.864 36.3441 289.137 35.8112C289.038 35.7375 288.973 35.6279 288.955 35.5066C288.804 34.5088 289.09 33.7181 289.811 33.1338C289.868 33.085 289.91 33.0321 289.941 32.9732L291.778 29.5482C291.879 29.3562 291.902 29.1343 291.842 28.9276C291.134 26.5389 289.549 24.9451 287.086 24.1457C285.465 23.6181 283.312 23.0164 280.625 22.3406C278.846 21.8938 277.26 21.6516 275.868 21.6138C273.728 21.5601 271.845 21.556 270.219 21.6017C267.893 21.6663 265.447 23.5198 263.113 25.1227C261.891 25.9625 260.604 26.6787 259.253 27.271C256.641 28.4151 254.816 29.1876 253.777 29.5886C251.694 30.3963 249.894 31.2146 248.379 32.0438C244.618 34.1059 242.077 35.589 240.755 36.4934C235.328 40.2083 230.826 43.2448 225.968 46.1078C223.154 47.7674 218.631 49.3744 216.411 50.6099C211.39 53.4041 206.425 56.5147 201.515 59.9416C200.094 60.9349 197.324 62.3722 195.172 63.923C194.741 64.2325 194.128 64.6456 193.334 65.1626C193.272 65.2027 193.036 65.3497 192.627 65.6026C191.653 66.2001 189.826 67.4383 187.148 69.3175C184.889 70.903 183.076 72.1627 181.709 73.097C175.889 77.0754 170.482 80.8806 165.489 84.5119C161.939 87.0922 160.304 88.6184 156.488 87.9037C155.592 87.7344 154.134 87.1327 154.474 86.0018C155.083 83.9953 156.819 83.8377 158.83 83.5066C158.935 83.4877 159.07 83.3989 159.234 83.2401C159.323 83.1528 159.374 83.033 159.374 82.9079C159.374 82.7258 159.267 82.5602 159.101 82.485C157.421 81.7461 154.518 81.8874 152.612 81.9562C151.793 81.9857 151.019 81.8791 150.29 81.6372C149.95 81.5303 149.726 81.1875 149.768 80.8239C149.952 79.3446 150.718 78.5089 152.067 78.3181C153.831 78.0716 155.685 77.6113 157.651 77.5671C160.708 77.502 161.754 77.3407 164.245 77.4941C165.287 77.5587 167.512 77.575 168.332 76.7189C168.412 76.6343 168.456 76.522 168.456 76.4056C168.456 76.1909 168.307 76.0053 168.097 75.9596C167.293 75.7873 166.506 75.7294 165.739 75.7861C164.057 75.9101 162.61 76.0689 161.398 76.2627C159.379 76.5855 157.936 76.7594 157.07 76.7836C153.118 76.8856 149.232 76.2695 145.413 74.9342C145.277 74.8877 145.185 74.7604 145.185 74.6168C145.185 74.5975 145.187 74.5778 145.19 74.5586C145.513 72.5694 146.686 71.5153 148.707 71.397C149.068 71.3754 150.147 71.471 151.946 71.6838C153.1 71.8184 154.188 71.8883 155.208 71.8936C159.066 71.9125 161.701 71.8842 163.114 71.809C165.155 71.6986 167.17 71.6498 169.159 71.6634C173.001 71.6903 175.009 71.6956 175.184 71.6797C175.907 71.6668 176.633 71.327 177.135 70.7469L177.413 70.4158C177.521 70.2869 177.581 70.1237 177.581 69.9555C177.581 69.5662 177.269 69.2479 176.88 69.2408C173.789 69.1897 167.863 69.1924 159.101 69.2491C157.365 69.2608 155.588 69.463 154.122 69.483C146.509 69.596 140.882 69.6123 137.24 69.5314C136.82 69.5235 136.186 69.3296 135.338 68.9501C135.125 68.8564 134.972 68.6614 134.931 68.4316C134.82 67.8268 134.848 67.2406 135.015 66.6726C135.058 66.5278 135.163 66.4091 135.301 66.3502C136.356 65.9027 137.343 65.6457 138.261 65.5784C140.708 65.4007 142.87 65.1895 144.746 64.9446C147.438 64.5916 149.597 64.4438 151.223 64.5005C153.452 64.5783 154.973 64.6524 155.786 64.7223C159.42 65.0413 162.67 64.8879 166.43 64.92C168.206 64.9362 170.229 64.8342 172.498 64.6131C176.245 64.2472 179.827 64.1501 183.243 64.3225C185.731 64.4438 187.822 64.2578 189.098 62.1783C189.111 62.1579 189.127 62.1284 189.14 62.0975C189.269 61.7936 189.129 61.4432 188.827 61.3155C188.797 61.3022 188.764 61.2916 188.732 61.2841C187.8 61.0754 186.779 61.1057 185.67 61.3748C183.32 61.9444 181.188 62.4489 178.434 62.441C175.269 62.4289 172.224 62.5257 169.066 62.3401C167.479 62.243 165.783 62.4327 164.221 62.4085C161.629 62.368 159.012 62.3832 156.371 62.4531C154.228 62.5068 152.199 62.3817 150.282 62.0774C146.155 61.4209 142.506 60.6427 139.335 59.7436C137.841 59.321 135.089 58.5092 131.078 57.3088C129.094 56.7165 127.059 56.0192 124.972 55.2172C122.275 54.1809 119.861 53.485 117.729 53.1297C116.622 52.9464 114.376 52.9234 110.989 53.061C110.766 53.0689 110.653 53.0731 110.65 53.0731C110.478 53.0432 110.354 53.0893 110.279 53.2103C110.247 53.264 110.189 53.2968 110.126 53.2968C110.118 53.2968 110.109 53.2961 110.101 53.2949C109.495 53.2171 108.319 53.4057 106.572 53.8603C104.421 54.4178 98.1514 55.789 87.7634 57.9751C87.1874 58.0961 86.4039 58.2333 85.4132 58.3871C84.4442 58.5379 83.6675 58.7235 83.0836 58.9442C81.043 59.7084 79.0107 60.3857 76.9864 60.9753C74.6015 61.6696 73.3225 62.0438 73.1502 62.0978C72.9967 62.1462 72.8233 62.1689 72.6294 62.1663C72.6214 62.1674 72.6154 62.1742 72.6154 62.1825C72.6154 62.1855 72.6161 62.1882 72.6177 62.1908L72.6173 62.1904ZM308.337 64.5893C308.339 64.7956 308.506 64.9623 308.713 64.9646L312.722 64.9809C312.78 64.9809 312.839 64.9684 312.895 64.9446C314.293 64.3818 315.759 64.3187 317.293 64.7545C317.307 64.7601 317.479 64.7722 317.81 64.7911C318.103 64.81 318.28 64.8032 318.339 64.7707C318.364 64.7575 318.375 64.7511 318.386 64.7446C318.772 64.5126 318.851 63.9355 318.563 63.4558C318.555 63.4422 318.546 63.4286 318.538 63.4154C318.153 62.8084 317.362 62.7963 316.744 63.0427C315.761 63.4354 314.768 63.604 313.764 63.5473C311.991 63.4464 310.861 63.8221 308.696 64.149C308.487 64.1811 308.333 64.3625 308.337 64.573V64.5893ZM352.709 99.6943C350.771 99.4279 348.805 99.7227 346.754 99.6864C342.866 99.6217 338.45 99.6002 333.505 99.6217C331.08 99.6301 328.308 99.8319 325.191 100.228C323.948 100.385 322.296 100.51 321.19 100.506C313.671 100.471 308.094 100.485 304.457 100.547C304.252 100.55 304.088 100.717 304.088 100.922C304.088 101.035 304.139 101.141 304.226 101.213C304.517 101.453 304.903 101.59 305.386 101.625C310.037 101.96 314.568 101.435 319.106 101.406C328.057 101.353 334.707 101.214 339.057 100.991C343.873 100.746 348.423 100.39 352.705 99.9245C352.762 99.915 352.803 99.8663 352.803 99.8092C352.803 99.7536 352.764 99.7056 352.709 99.6947V99.6943Z" fill="#282829"/>
<path d="M203.542 105.929C202.365 106.311 201.768 106.505 201.749 106.51C199.962 107.019 198.586 107.235 197.622 107.157C195.486 106.983 192.381 106.716 190.08 105.533C189.939 105.465 189.826 105.335 189.775 105.179C188.404 100.967 198.813 103.926 199.597 101.633C199.607 101.602 199.614 101.572 199.619 101.542C199.658 101.262 199.452 101.001 199.158 100.96C199.126 100.955 199.094 100.953 199.062 100.954C197.847 100.981 196.453 100.979 194.88 100.946C191.925 100.882 189.268 101.37 186.328 101.685C184.622 101.868 183.125 101.849 181.838 101.629C181.45 101.561 180.903 101.261 180.195 100.728C180.077 100.639 179.998 100.507 179.977 100.363C179.573 97.7725 182.193 97.9501 183.905 97.6999C186.622 97.3015 189.325 97.0714 192.014 97.0094C196.032 96.9179 198.301 96.8454 198.817 96.7913C203.596 96.2905 207.45 95.7429 210.382 95.148C210.939 95.0346 211.394 94.8101 211.747 94.4737C211.766 94.4548 211.785 94.4298 211.797 94.4022C211.853 94.2832 211.803 94.1422 211.686 94.0874C211.658 94.0742 211.628 94.067 211.597 94.0659C208.345 93.9661 204.928 93.9404 201.345 93.9892C200.002 94.0077 198.939 94.0496 198.155 94.1143C195.761 94.3119 193.855 94.1385 191.408 94.3807C189.954 94.5221 185.375 95.0187 184.693 92.9838C184.574 92.624 184.756 92.2169 185.126 92.0034C186.244 91.3484 187.6 90.9281 189.11 90.7747C197.105 89.9753 204.767 89.3831 212.094 88.9983C218.221 88.6778 222.474 88.4813 224.854 88.4087C225.546 88.3872 226.099 88.1218 226.513 87.6131C226.6 87.5076 226.648 87.375 226.648 87.2386C226.648 87.0061 226.511 86.7956 226.299 86.7007C225.726 86.4448 225.052 86.2914 224.276 86.2404C221.531 86.0544 219.175 86.0208 217.21 86.1395C214.749 86.2873 213.371 86.3549 213.075 86.3413C212.031 86.2982 211.024 86.3413 210.055 86.4706C209.013 86.6077 206.978 86.624 205.391 86.737C204.188 86.8232 202.881 86.695 201.47 86.3534C201.307 86.3129 201.192 86.1663 201.192 85.9981V84.4715C201.192 84.3098 201.295 84.1643 201.45 84.1083C204.309 83.0962 206.413 82.5429 207.761 82.4488C214.977 81.94 217.529 81.6898 222.157 81.5039C223.559 81.4502 225.143 81.2979 226.909 81.0477C227.134 81.0159 227.302 80.8232 227.302 80.5956C227.302 80.4743 227.254 80.3579 227.167 80.2725C225.742 78.8348 223.889 79.0207 222.039 78.7664C220.59 78.5642 218.975 78.9156 217.497 78.972C216.832 78.9992 216.109 79.0755 215.328 79.2021C212.545 79.6489 209.561 79.952 206.376 80.1107C205.349 80.1723 204.391 79.5015 204.09 78.4904L204.047 78.3302C204.034 78.2856 204.027 78.2558 204.021 78.2263C203.844 77.3974 204.375 76.5822 205.207 76.4053C205.235 76.3992 205.265 76.3939 205.294 76.3894C213.196 75.1119 221.902 74.474 227.014 73.9127C227.601 73.8485 228.066 73.3854 228.132 72.7981L228.229 71.9541C228.231 71.9383 228.232 71.9247 228.233 71.9111C228.254 71.5191 227.951 71.1846 227.556 71.1638C227.543 71.1631 227.53 71.1627 227.516 71.1627C225.488 71.16 223.707 71.2436 222.172 71.4133C221.069 71.5342 220.047 71.4911 219.108 71.284C218.715 71.1952 218.409 70.8838 218.329 70.4884C218.167 69.7159 218.183 68.9071 218.377 68.0616C218.44 67.7951 218.642 67.5892 218.904 67.5189C221.987 66.6564 224.935 66.6405 228.072 66.083C229.618 65.8086 232.352 65.9942 234.02 65.1665C234.151 65.1022 234.235 64.9684 234.235 64.8218C234.235 64.6672 234.142 64.5274 234 64.468C233.051 64.0723 231.012 63.6929 230.693 62.6671C230.055 60.6118 231.545 59.9213 233.135 59.2753C233.604 59.0841 234.189 58.9496 234.892 58.8717C236.736 58.6642 239.328 58.4503 242.669 58.2295C242.852 58.2152 243.055 58.2454 243.245 58.3195L245.528 59.2391C245.987 59.4284 246.242 59.9107 246.144 60.3903C246.042 60.9039 245.789 61.4448 245.383 62.0128C244.621 63.0843 243.789 64.036 242.887 64.8679C239.798 67.7184 237.727 69.463 235.647 72.3215C234.866 73.3956 234.322 74.5117 234.016 75.669C233.607 77.2115 233.475 78.7233 233.62 80.2037C233.749 81.5201 233.815 82.3921 233.818 82.8203C233.826 84.5808 233.77 85.9618 233.648 86.963C233.434 88.784 231.569 90.3226 230.103 91.2675C228.55 92.2691 227.057 93.2246 225.625 94.1343C225.382 94.284 225.152 94.3875 224.913 94.4593C217.299 96.7834 210.802 101.665 203.901 105.764C203.774 105.841 203.652 105.895 203.525 105.934L203.542 105.929Z" fill="#282829"/>
<path d="M52.3672 78.9439C52.1775 78.431 52.2663 77.6759 52.8072 77.1914C54.0189 76.1051 54.8666 75.2732 56.2035 75.3057C60.0431 75.3987 65.2562 74.9826 68.7247 75.003C74.787 75.0378 79.3055 75.034 82.28 74.9905C82.2754 74.9909 82.2777 74.9909 82.2795 74.9905C82.6409 74.9845 82.9285 74.6882 82.9225 74.3291C82.9225 74.3272 82.9225 74.3253 82.9225 74.3231L82.8412 71.7927C82.8412 71.7817 82.8408 71.7704 82.8408 71.7594C82.8408 71.3448 83.1039 70.9755 83.4954 70.8398C86.3327 69.8625 89.3151 69.4505 92.4431 69.6043C94.0584 69.6848 95.6855 69.4898 97.3251 69.0185C97.799 68.8813 98.3199 68.9123 98.8879 69.1115C99.0319 69.1602 99.1491 69.2672 99.2111 69.4063C101.093 73.5936 95.3548 76.7593 92.2496 77.8456C89.5967 78.778 88.3812 79.3517 85.5829 80.4905C82.8722 81.5941 80.6782 82.6641 79.0012 83.7005C76.7237 85.1015 73.4166 87.1447 70.8488 88.8931C65.1874 92.7373 61.9695 94.8962 61.194 95.3697C59.3877 96.4734 58.1197 97.4251 57.3903 98.2248C55.5141 100.276 54.3821 101.563 53.9947 102.085C53.9078 102.2 53.7751 102.272 53.6315 102.283C50.4858 102.517 47.6995 102.032 44.8044 102.049C41.6523 102.067 32.6986 102.054 17.9445 102.008C17.8526 102.008 17.0668 101.999 15.586 101.98C14.5686 101.967 13.8187 101.794 13.3372 101.463C12.384 100.806 11.7948 99.9139 11.5684 98.786C11.4618 98.2856 11.6723 97.7675 12.0983 97.4946C12.593 97.1847 13.1618 97.0267 13.8055 97.0214C16.4946 97.0078 22.9228 97.004 33.0905 97.0093C37.2979 97.0135 42.8338 97.4696 47.2192 97.1386C49.5247 96.9651 52.1855 96.2987 53.8046 94.55C53.8915 94.4562 53.9399 94.333 53.9399 94.2053C53.9399 94.0129 53.8311 93.8372 53.6595 93.7506C52.526 93.1799 51.3967 92.9796 50.2715 93.1489C49.2136 93.3133 48.5273 93.3817 48.2124 93.3549C47.534 93.2959 45.5891 93.3806 42.3776 93.6092C40.9614 93.709 39.2871 93.7007 37.3542 93.5851C33.1548 93.3307 31.3984 93.3023 26.4359 93.0075C25.2813 92.9391 24.2234 92.7532 22.9795 92.6364C22.5596 92.5959 21.9485 92.3968 21.1461 92.0385C20.9756 91.961 20.8566 91.8007 20.8316 91.6148C20.7424 90.9526 20.8354 90.2931 21.1098 89.6362C21.5785 88.5258 24.1909 88.3803 25.2125 88.3765C28.9947 88.3629 31.6637 88.3587 33.2198 88.364C36.127 88.375 38.0232 88.3455 38.9091 88.2752C41.3681 88.0775 44.1218 88.0208 46.4882 88.1217C50.4816 88.2914 53.7158 88.0976 57.6446 88.3478C59.1386 88.4423 60.641 88.4128 62.1509 88.259C62.3762 88.2344 62.5466 88.0443 62.5466 87.8175C62.5466 87.7687 62.5387 87.72 62.5228 87.6735L62.5183 87.6576C62.4087 87.3496 62.132 87.1466 61.8172 87.136C59.7785 87.034 57.5478 87.0801 55.1252 87.274C53.2516 87.4233 51.6851 87.3787 49.6294 87.3787C48.9918 87.3787 48.2593 87.3371 47.4331 87.2536C45.0183 87.0113 42.7518 86.7774 40.633 86.551C39.2523 86.4032 38.1245 86.4017 37.2495 86.5472C36.2993 86.7007 35.1847 86.8983 33.9061 87.1406C32.8804 87.3345 32.0326 87.2105 31.3622 86.769C30.3489 86.1031 29.5612 85.3438 29.6096 83.9748C29.6258 83.4824 29.8545 83.1041 30.2963 82.8402C30.9626 82.4445 31.9397 82.073 32.7874 82.0167C36.3704 81.7824 38.8282 81.7109 40.1609 81.8024C42.2846 81.9479 44.0035 82.0545 45.3173 82.1217C46.8351 82.2022 48.4626 82.6747 49.6456 82.6225C52.588 82.4902 55.2151 82.4286 57.5278 82.4366C59.046 82.4419 60.3825 82.3852 61.5371 82.2669C63.9844 82.0125 67.1539 82.3519 69.4515 81.94C70.5472 81.7461 71.7842 81.353 73.1626 80.7607C73.3039 80.698 73.4007 80.5736 73.426 80.427C73.6592 79.2546 71.43 79.2062 70.7395 79.3113C66.271 80.0003 61.2223 80.2883 55.5935 80.1753C54.2665 80.1484 53.277 79.8605 52.6258 79.3113C52.5075 79.2111 52.4187 79.0842 52.3665 78.9409L52.3672 78.9439Z" fill="#282829"/>
<path d="M27.4049 155.619C28.7107 155.431 29.5895 155.989 30.0419 157.295C30.2328 157.847 29.9973 158.279 29.3351 158.591C28.6488 158.919 27.9326 159.42 27.1869 160.093C26.6161 160.61 25.9309 160.666 25.1315 160.263C24.2029 159.799 24.5056 158.648 25.0832 158.074C25.7778 157.385 26.3886 156.668 26.9162 155.922C27.0232 155.765 27.1986 155.654 27.3962 155.621L27.4049 155.619Z" fill="#282829"/>
<path d="M24.2709 161.649L27.38 161.655C27.8641 161.655 28.2557 162.048 28.2549 162.532L28.227 178.466C28.2262 178.949 27.8331 179.341 27.3494 179.34L24.2399 179.335C23.7565 179.334 23.3646 178.941 23.3657 178.457L23.3929 162.524C23.3941 162.04 23.7871 161.648 24.2709 161.649Z" fill="#282829"/>
<path d="M41.9011 161.668C43.7209 161.676 45.7131 161.721 47.8773 161.801C48.1747 161.812 48.4106 162.056 48.4106 162.354L48.4102 165.306C48.4105 165.6 48.1717 165.839 47.8773 165.839H44.9254C44.6692 165.839 44.4613 166.047 44.4613 166.303L44.3884 178.647C44.3884 178.648 44.3884 178.648 44.3884 178.649C44.3884 178.977 44.145 179.255 43.8192 179.297C43.5743 179.33 42.9673 179.349 41.9982 179.354C41.0261 179.359 40.418 179.346 40.1731 179.313C39.8465 179.275 39.5993 179 39.5956 178.671L39.3937 166.332C39.3919 166.077 39.1843 165.871 38.9296 165.871C38.9281 165.871 38.9266 165.871 38.9254 165.871L35.9736 165.904C35.971 165.904 35.968 165.904 35.9657 165.904C35.6728 165.904 35.4347 165.667 35.4324 165.375L35.4041 162.423C35.4041 162.421 35.4041 162.42 35.4041 162.418C35.4041 162.123 35.635 161.881 35.9291 161.866C38.0909 161.761 40.0812 161.695 41.9011 161.668Z" fill="#282829"/>
<path d="M55.9649 161.713H59.809C60.1325 161.712 60.3944 161.974 60.3944 162.298V178.716C60.3944 179.039 60.1325 179.301 59.809 179.301H55.9649C55.6417 179.301 55.3798 179.039 55.3798 178.716L55.3794 162.298C55.3798 161.974 55.6417 161.712 55.9652 161.712L55.9649 161.713Z" fill="#282829"/>
<path d="M120.741 170.264C120.846 170.24 120.917 170.177 120.955 170.075C121.469 168.758 122.391 166.228 123.721 162.484C123.825 162.196 124.067 161.99 124.357 161.937C125.968 161.629 127.417 161.574 128.704 161.773C128.827 161.79 128.942 161.869 129.007 161.985C129.19 162.315 129.337 162.914 129.451 163.784C129.713 165.851 129.947 168.015 130.371 170.208C131.028 173.613 131.472 176.482 131.704 178.813C131.705 178.826 131.706 178.84 131.706 178.853C131.706 179.085 131.518 179.273 131.286 179.273C131.285 179.273 131.285 179.273 131.284 179.273H126.911C126.911 179.273 126.91 179.273 126.909 179.273C126.796 179.273 126.701 179.188 126.689 179.075C126.522 177.395 126.294 175.685 126.006 173.943C125.974 173.744 125.9 172.946 125.784 171.549C125.76 171.231 125.683 170.966 125.554 170.753C125.544 170.735 125.529 170.717 125.512 170.701C125.419 170.618 125.275 170.627 125.19 170.721C125.174 170.738 125.161 170.758 125.152 170.778C124.238 172.875 123.238 175.389 122.15 178.32C121.54 179.976 119.824 179.701 119.231 178.155C118.498 176.254 117.47 173.69 116.146 170.462C116.129 170.427 116.094 170.404 116.055 170.404C116.007 170.404 115.967 170.437 115.956 170.483L114.49 178.683C114.432 179.019 114.141 179.264 113.8 179.265H110.17C109.855 179.265 109.6 179.01 109.6 178.695C109.6 178.663 109.603 178.631 109.609 178.599L112.528 162.245C112.588 161.902 112.886 161.652 113.235 161.652H116.38C116.788 161.649 117.183 161.844 117.436 162.177C117.774 162.624 118.039 163.103 118.233 163.614C119.227 166.266 119.985 168.437 120.507 170.127C120.532 170.212 120.609 170.269 120.697 170.269C120.712 170.269 120.727 170.268 120.741 170.264Z" fill="#282829"/>
<path d="M174.134 173.866C174.092 173.795 174.015 173.751 173.932 173.751C173.803 173.751 173.699 173.855 173.698 173.984V178.881C173.698 179.111 173.512 179.297 173.282 179.297H169.087C168.884 179.297 168.719 179.133 168.719 178.93L168.719 162.145C168.719 162.144 168.719 162.144 168.719 162.144C168.719 161.944 168.875 161.779 169.074 161.769C171.357 161.659 173.664 161.637 175.995 161.704C179.058 161.793 180.967 163.22 181.721 165.985C182.561 169.069 180.812 170.959 178.595 172.57C178.592 172.573 178.59 172.574 178.589 172.575C178.488 172.654 178.472 172.8 178.552 172.901C178.552 172.902 178.553 172.903 178.553 172.904L183.134 178.607C183.161 178.641 183.179 178.674 183.192 178.709C183.26 178.895 183.162 179.102 182.973 179.171C182.939 179.183 182.903 179.191 182.866 179.192C181.072 179.3 179.74 179.349 178.87 179.338C178.135 179.327 177.513 179.122 177.005 178.724C176.933 178.671 176.867 178.599 176.819 178.517L174.134 173.866ZM173.681 166.235L173.665 168.956C173.665 168.958 173.665 168.959 173.665 168.96C173.665 169.34 173.972 169.648 174.352 169.651H174.558C174.568 169.651 174.569 169.651 174.57 169.651C175.689 169.651 176.596 168.838 176.597 167.835V167.378C176.597 167.366 176.597 167.366 176.597 167.365C176.597 166.363 175.691 165.549 174.572 165.548L174.376 165.548C174.375 165.548 174.373 165.548 174.372 165.548C173.992 165.548 173.684 165.855 173.682 166.235H173.681Z" fill="#282829"/>
<path d="M196.976 173.866C196.933 173.798 196.859 173.757 196.778 173.757C196.652 173.757 196.548 173.857 196.544 173.984L196.56 178.886C196.56 179.115 196.374 179.301 196.144 179.301L191.949 179.318C191.746 179.318 191.582 179.153 191.582 178.95L191.521 162.16C191.521 162.16 191.521 162.16 191.521 162.16C191.521 161.962 191.675 161.798 191.872 161.785C194.155 161.666 196.463 161.637 198.797 161.696C201.86 161.771 203.774 163.191 204.539 165.956C205.391 169.037 203.647 170.935 201.438 172.554C201.434 172.557 201.433 172.558 201.431 172.559C201.331 172.637 201.314 172.783 201.394 172.885C201.394 172.886 201.395 172.886 201.395 172.887L205.997 178.574C206.022 178.605 206.042 178.638 206.056 178.675C206.127 178.86 206.032 179.068 205.845 179.14C205.811 179.153 205.774 179.161 205.738 179.164C203.94 179.277 202.606 179.33 201.737 179.322C201.002 179.313 200.379 179.112 199.867 178.716C199.793 178.661 199.728 178.588 199.68 178.506L196.976 173.866ZM196.507 166.049L196.621 169.191C196.631 169.468 196.859 169.687 197.137 169.687C197.144 169.687 197.151 169.687 197.158 169.687L197.238 169.683C197.235 169.683 197.235 169.683 197.235 169.683C198.509 169.639 199.51 168.68 199.471 167.543V167.491C199.471 167.494 199.471 167.493 199.471 167.493C199.432 166.355 198.366 165.467 197.091 165.512C197.091 165.512 197.089 165.512 197.089 165.512L197.004 165.516C196.727 165.526 196.507 165.755 196.507 166.033C196.507 166.038 196.507 166.043 196.507 166.049V166.049Z" fill="#282829"/>
<path d="M258.263 178.704C258.263 179.049 257.983 179.33 257.637 179.33H253.757C253.618 179.329 253.5 179.225 253.482 179.087C253.375 178.314 253.321 177.548 253.321 176.786C253.307 169.878 253.315 165.03 253.345 162.241C253.351 161.96 253.575 161.737 253.852 161.732C257.242 161.608 259.928 161.624 261.91 161.777C263.805 161.925 265.208 162.473 266.121 163.42C266.592 163.908 267.001 164.747 267.348 165.94C268.105 168.551 267.557 170.823 265.705 172.756C265.604 172.86 265.492 172.933 265.369 172.978L262.907 173.935C262.805 173.974 262.692 173.994 262.577 173.991L258.772 173.883C258.766 173.882 258.761 173.882 258.756 173.882C258.484 173.882 258.263 174.103 258.263 174.375V174.375V178.704ZM258.243 166.198L258.332 169.594C258.338 169.886 258.577 170.119 258.869 170.119C258.874 170.119 258.88 170.119 258.885 170.119L259.729 170.095C261.241 170.068 262.466 169.248 262.451 168.262L262.426 167.341C262.427 167.365 262.427 167.365 262.427 167.365C262.409 166.377 261.156 165.598 259.627 165.625L258.768 165.645C258.476 165.651 258.243 165.89 258.243 166.182C258.243 166.187 258.243 166.193 258.243 166.198Z" fill="#282829"/>
<path d="M280.358 173.471C280.32 173.409 280.253 173.372 280.181 173.372C280.066 173.372 279.972 173.465 279.971 173.579V178.913C279.971 179.083 279.838 179.223 279.669 179.228L275.424 179.366C275.421 179.366 275.418 179.366 275.415 179.366C275.312 179.366 275.227 179.287 275.218 179.184C275.086 177.771 275.022 176.77 275.024 176.18C275.038 170.826 275.055 166.167 275.077 162.205C275.078 161.923 275.306 161.697 275.587 161.696C277.89 161.691 280.205 161.681 282.531 161.668C284.631 161.656 287.275 162.346 288.281 164.39C289.169 166.198 289.42 169.36 287.796 170.955C287.204 171.537 286.504 172.037 285.696 172.457C285.602 172.506 285.543 172.604 285.543 172.711C285.543 172.781 285.569 172.849 285.616 172.901L290.3 178.243C290.367 178.32 290.405 178.418 290.405 178.521C290.405 178.681 290.314 178.827 290.171 178.898C288.915 179.519 286.654 179.33 285.454 179.289C284.864 179.27 284.41 179.067 284.09 178.68C282.695 176.986 281.451 175.25 280.358 173.471ZM279.947 166.324L280.003 168.88C280.012 169.272 280.333 169.586 280.726 169.586C280.731 169.586 280.737 169.586 280.742 169.586L281.38 169.574C281.371 169.574 281.371 169.574 281.372 169.574C282.676 169.551 283.719 168.718 283.702 167.713L283.694 167.337C283.694 167.349 283.694 167.348 283.694 167.348C283.676 166.342 282.605 165.545 281.301 165.568L280.653 165.585C280.26 165.593 279.946 165.914 279.946 166.307C279.946 166.313 279.947 166.318 279.947 166.324Z" fill="#282829"/>
<path d="M308.446 175.518V179.006C308.446 179.169 308.316 179.301 308.155 179.301H298.307C298.122 179.301 297.971 179.151 297.971 178.966V162.152C297.972 161.9 298.174 161.696 298.424 161.696L307.965 161.696C308.13 161.694 308.279 161.809 308.324 161.974C308.64 163.216 308.586 164.474 308.163 165.75C308.137 165.827 308.068 165.876 307.991 165.875H303.245C303.069 165.875 302.926 166.018 302.926 166.194V167.862C302.926 168.067 303.09 168.233 303.293 168.233H307.856C308.081 168.233 308.264 168.416 308.264 168.641V172.001C308.264 172.197 308.105 172.356 307.909 172.356H303.471C303.142 172.356 302.874 172.624 302.874 172.954V174.601C302.874 174.976 303.177 175.279 303.552 175.279H308.208C308.339 175.279 308.446 175.386 308.446 175.518V175.518Z" fill="#282829"/>
<path d="M322.127 179.313C321.157 179.316 320.55 179.301 320.305 179.269C319.98 179.228 319.735 178.954 319.732 178.627L319.554 166.32C319.552 166.064 319.345 165.859 319.09 165.859C319.088 165.859 319.087 165.859 319.086 165.859L316.142 165.883C316.141 165.883 316.139 165.883 316.138 165.883C315.847 165.883 315.609 165.649 315.605 165.358L315.581 162.415C315.581 162.412 315.581 162.409 315.581 162.406C315.581 162.112 315.812 161.87 316.106 161.857C318.265 161.758 320.251 161.696 322.066 161.672C323.88 161.685 325.867 161.733 328.026 161.817C328.321 161.828 328.555 162.071 328.555 162.366C328.555 162.367 328.555 162.369 328.555 162.37L328.551 165.314C328.549 165.606 328.311 165.843 328.018 165.843L325.074 165.839C324.819 165.839 324.612 166.044 324.61 166.299L324.513 178.611C324.511 178.938 324.268 179.214 323.944 179.256C323.698 179.289 323.093 179.308 322.127 179.313Z" fill="#282829"/>
<path d="M3.20207 174.561C3.32302 174.282 3.59819 174.102 3.90206 174.102C3.98823 174.102 4.074 174.116 4.15526 174.145L6.88069 175.094C7.00466 175.137 7.09274 175.163 7.1808 175.185C7.23107 175.198 7.28207 175.209 7.33272 175.219C7.91817 175.348 10.1674 175.328 10.3975 174.25C10.6194 173.228 9.69077 172.792 8.80674 172.614C6.80774 172.203 4.20327 171.541 3.16579 169.643C1.40907 166.436 3.8117 162.536 7.19136 161.926C9.77013 161.461 12.177 161.809 14.411 162.972C14.5804 163.062 14.6907 163.222 14.7156 163.405C14.8755 164.462 13.959 165.427 13.1797 166.352C12.8709 166.707 12.3693 166.788 11.98 166.554L10.5956 165.754C10.4765 165.684 10.3405 165.647 10.2021 165.647C10.125 165.647 10.0475 165.659 9.97385 165.681C9.42431 165.851 8.06369 166.32 7.91818 167.095C7.84485 167.506 8.106 167.892 8.50626 167.977C10.8095 168.5 12.9574 168.976 14.9322 170.632C15.0675 170.741 15.1824 170.896 15.2535 171.069C16.0729 173.195 15.8593 175.196 14.6132 177.072C14.4167 177.366 13.668 177.912 12.3682 178.712C12.2461 178.787 12.1017 178.847 11.9498 178.882C8.52176 179.663 5.40137 179.356 2.58827 177.965C2.3014 177.822 2.11963 177.529 2.11963 177.208C2.11963 177.094 2.14341 176.98 2.18839 176.874L3.20207 174.561Z" fill="#282829"/>
<path d="M69.1733 170.483C69.2603 165.492 73.8312 161.624 79.3822 161.722C84.9332 161.819 89.3655 165.845 89.2804 170.711C89.1946 175.578 84.624 179.446 79.073 179.348C73.5217 179.251 69.0894 175.225 69.1749 170.359L69.1733 170.483ZM84.1172 170.566C84.1172 170.591 84.1172 170.591 84.1172 170.591C84.1172 168.282 81.9474 166.408 79.2718 166.408C76.5963 166.408 74.4265 168.282 74.4265 170.591C74.4265 172.901 76.5963 174.775 79.2718 174.775C81.9474 174.775 84.1172 172.901 84.1172 170.591V170.566Z" fill="#282829"/>
<path d="M139.869 170.259C139.87 170.206 139.87 170.206 139.87 170.206C140.039 165.384 144.647 161.629 150.16 161.823C155.673 162.016 160.007 166.083 159.838 170.905C159.669 175.727 155.061 179.481 149.548 179.288C144.036 179.095 139.702 175.028 139.87 170.206L139.869 170.259ZM144.954 170.424C144.955 170.415 144.955 170.415 144.955 170.415C144.832 172.75 146.93 174.76 149.64 174.902C152.35 175.044 154.647 173.266 154.77 170.93C154.892 168.594 152.794 166.584 150.084 166.442C147.374 166.3 145.078 168.079 144.955 170.415L144.954 170.424Z" fill="#282829"/>
<path d="M233.038 170.446C233.038 175.414 228.549 179.357 223.012 179.357C217.476 179.357 212.986 175.414 212.986 170.551C212.986 165.688 217.476 161.744 223.012 161.744C228.549 161.744 233.038 165.688 233.038 170.551L233.038 170.446ZM218.185 170.487C218.186 170.461 218.186 170.461 218.186 170.461C218.105 172.778 220.222 174.734 222.914 174.828C225.606 174.923 227.854 173.12 227.935 170.802C228.017 168.485 225.9 166.529 223.208 166.435C220.516 166.34 218.267 168.144 218.186 170.461L218.185 170.487Z" fill="#282829"/>
<path d="M335.356 170.375C335.441 165.479 340.003 161.617 345.543 161.714C351.083 161.811 355.507 165.831 355.421 170.691C355.336 175.551 350.774 179.413 345.234 179.316C339.694 179.219 335.271 175.199 335.356 170.339L335.356 170.375ZM340.515 170.643C340.475 172.915 342.634 174.852 345.338 174.899C348.043 174.947 350.269 173.087 350.31 170.746C350.351 168.405 348.191 166.469 345.487 166.421C342.783 166.373 340.557 168.233 340.516 170.574L340.515 170.643Z" fill="#282829"/>
<path d="M70.6629 202.495C70.6712 201.817 70.2997 201.489 69.7747 200.86C68.6197 199.476 67.0221 198.989 64.9819 199.398C62.4783 199.903 61.2304 201.542 60.9114 204.163C60.5803 206.84 60.544 210.526 62.5146 212.481C63.0827 213.041 63.9142 213.431 65.0099 213.651C67.1366 214.077 68.8877 213.338 70.263 211.435C70.2997 211.385 70.325 211.332 70.3432 211.276L70.8326 209.775C70.8368 209.763 70.8383 209.759 70.8398 209.755C70.9762 209.38 71.3893 209.186 71.7624 209.322C71.7662 209.323 71.7699 209.325 71.7737 209.326C73.2753 209.88 73.8974 210.054 75.1409 210.66C75.5098 210.837 75.5649 211.256 75.3064 211.915C74.1597 214.843 72.2174 216.874 69.1368 217.604C65.2952 218.512 61.9734 217.792 59.1713 215.444C55.6178 212.464 55.2666 206.868 56.2036 202.725C57.4349 197.29 62.337 194.5 67.8124 195.195C71.8557 195.709 74.3309 197.952 75.238 201.926C75.2437 201.95 75.2467 201.975 75.2467 202C75.2467 202.161 75.1329 202.299 74.9757 202.329L71.2971 203.032C71.265 203.037 71.2325 203.041 71.2 203.041C70.9037 203.041 70.6629 202.8 70.6629 202.504C70.6629 202.501 70.6629 202.498 70.6629 202.495V202.495Z" fill="#282829"/>
<path d="M95.5967 204.558C95.2872 203.77 95.1568 202.928 95.2051 202.035C95.218 201.726 95.4761 201.479 95.791 201.477L96.4811 201.478C96.4815 201.477 96.4822 201.477 96.4822 201.477C96.9154 201.477 97.2831 201.159 97.3455 200.73C97.5095 199.578 97.6361 198.707 97.7249 198.118C97.8901 197.003 98.2983 196.551 99.2028 195.953C100.749 194.928 104.06 194.673 105.74 195.477C105.888 195.546 106.001 195.678 106.046 195.836C106.294 196.735 106.122 197.594 105.53 198.413C105.451 198.519 105.33 198.579 105.203 198.578L103.164 198.578C102.698 198.578 102.316 198.945 102.3 199.407L102.243 200.69C102.243 200.717 102.243 200.738 102.244 200.76C102.269 201.118 102.579 201.388 102.934 201.363C102.956 201.362 102.978 201.359 103 201.355C103.12 201.334 103.546 201.321 104.278 201.316C105.889 201.304 105.28 203.815 104.961 204.59C104.917 204.7 104.811 204.772 104.694 204.772H102.889C102.508 204.772 102.199 205.081 102.199 205.463L102.199 217.568C102.199 217.8 102.011 217.988 101.779 217.988L97.7612 217.988C97.5919 217.988 97.4543 217.851 97.4543 217.681V205.228C97.4543 205.228 97.4543 205.228 97.4543 205.227C97.4543 205.078 97.3606 204.944 97.22 204.894C96.7381 204.719 96.2725 204.652 95.8231 204.696C95.7226 204.704 95.6311 204.647 95.5963 204.556L95.5967 204.558Z" fill="#282829"/>
<path d="M112.548 199.975C112.322 199.738 112.339 199.331 112.601 198.752C113.214 197.387 113.65 196.296 113.909 195.477C113.984 195.259 114.183 195.118 114.405 195.122H118.258C118.491 195.122 118.68 195.312 118.68 195.546C118.68 195.652 118.64 195.754 118.568 195.832C117.987 196.46 117.042 197.505 115.734 198.97C114.98 199.815 114.041 200.207 112.915 200.145C112.776 200.137 112.644 200.077 112.548 199.975Z" fill="#282829"/>
<path d="M168.231 195.308V198.768C168.231 199.058 167.997 199.293 167.71 199.293L156.209 199.293C156.06 199.293 155.939 199.412 155.939 199.559V202.939C155.939 203.341 156.265 203.666 156.666 203.666H166.886C167.147 203.666 167.358 203.877 167.358 204.138V207.13C167.358 207.525 167.038 207.845 166.644 207.845H156.258C156.107 207.845 155.984 207.966 155.984 208.116L155.983 213.377C155.983 213.58 156.148 213.744 156.351 213.744H168.053C168.278 213.743 168.478 213.9 168.533 214.125C168.813 215.349 168.759 216.563 168.372 217.766C168.33 217.9 168.202 217.995 168.056 217.996L152.228 217.996C151.832 217.996 151.51 217.676 151.51 217.281V195.521C151.51 195.272 151.712 195.069 151.962 195.069H167.996C168.126 195.069 168.231 195.176 168.231 195.307V195.308Z" fill="#282829"/>
<path d="M245.406 195.021L248.038 195.062C248.553 195.07 248.964 195.494 248.956 196.009L248.931 197.64C248.923 198.155 248.498 198.566 247.983 198.558L245.351 198.517C244.836 198.509 244.425 198.084 244.433 197.57L244.458 195.938C244.467 195.424 244.891 195.012 245.406 195.02V195.021Z" fill="#282829"/>
<path d="M271.504 195.086L274.573 195.037C274.95 195.031 275.26 195.332 275.266 195.709L275.299 197.84C275.305 198.217 275.004 198.528 274.628 198.533L271.559 198.582C271.183 198.588 270.872 198.287 270.866 197.91L270.833 195.778C270.827 195.402 271.128 195.091 271.505 195.086H271.504Z" fill="#282829"/>
<path d="M194.166 202.661C194.173 202.739 194.239 202.799 194.318 202.799C194.349 202.799 194.379 202.79 194.404 202.773C196.636 201.226 198.941 200.891 201.321 201.768C205.855 203.44 206.683 209.489 205.181 213.442C204.357 215.609 202.831 217.05 200.602 217.766C198.676 218.388 196.031 217.657 194.76 216.119C194.711 216.059 194.638 216.024 194.561 216.024C194.421 216.024 194.307 216.138 194.307 216.279C194.307 216.279 194.307 216.279 194.307 216.28V223.859C194.307 224.058 194.146 224.219 193.948 224.219H190.265C189.998 224.219 189.781 224.002 189.781 223.734V202.237C189.781 202.236 189.781 202.236 189.781 202.235C189.781 201.897 190 201.597 190.322 201.494C191.158 201.231 192.223 201.231 193.12 201.275C193.75 201.305 194.098 201.767 194.166 202.661ZM197.639 204.666C197.639 204.666 197.639 204.666 197.639 204.666C195.698 204.734 194.202 207.01 194.297 209.748C194.393 212.487 196.044 214.653 197.985 214.585C199.926 214.517 201.422 212.242 201.327 209.503C201.231 206.764 199.58 204.598 197.639 204.666H197.639Z" fill="#282829"/>
<path d="M271.536 201.263H274.629C275.028 201.263 275.351 201.587 275.351 201.986V217.282C275.351 217.68 275.028 218.004 274.629 218.004H271.536C271.136 218.004 270.813 217.68 270.813 217.281V201.986C270.813 201.587 271.136 201.263 271.536 201.263Z" fill="#282829"/>
<path d="M79.5299 206.46C79.1709 206.397 78.9086 206.085 78.9086 205.72C78.9086 205.662 78.9154 205.604 78.9286 205.548C79.2272 204.274 79.8614 203.25 80.8304 202.475C82.6798 200.993 86.8509 201.122 89.1038 201.631C91.8818 202.257 92.609 204.691 92.6006 207.276C92.5897 210.705 92.575 212.775 92.5564 213.486C92.5372 213.95 92.578 214.426 92.6793 214.89L93.2753 217.572C93.2806 217.596 93.2833 217.62 93.2833 217.645C93.2833 217.826 93.137 217.972 92.9563 217.972L89.7498 217.972C89.7498 217.972 89.7498 217.972 89.7498 217.972C89.4826 217.972 89.2361 217.829 89.1042 217.597L88.4095 216.397C88.3608 216.312 88.2697 216.259 88.1711 216.259C88.108 216.259 88.0467 216.281 87.9976 216.321C85.8493 218.07 83.5075 218.452 80.9714 217.464C78.9849 216.688 77.9108 215.025 78.0604 212.941C78.2339 210.53 80.3134 209.315 82.4575 208.794C83.0766 208.643 84.607 208.343 87.0485 207.894C87.4828 207.809 87.7939 207.436 87.7999 206.999C87.8441 205.002 86.4793 204.583 84.7914 204.789C83.8817 204.899 83.2448 205.472 82.8816 206.509C82.7822 206.803 82.4783 206.985 82.1661 206.933L79.5299 206.46ZM87.6744 210.611C87.6105 210.449 87.442 210.361 87.2791 210.402C86.431 210.598 85.4536 210.814 84.3473 211.051C83.6284 211.205 83.1628 211.466 82.9504 211.835C82.3245 212.913 82.9784 214.298 84.1534 214.455C85.44 214.63 86.44 214.319 87.1536 213.523C87.7632 212.84 87.9571 211.362 87.6744 210.611Z" fill="#282829"/>
<path d="M121.362 210.869C121.342 210.989 121.238 211.077 121.116 211.077C121.084 211.077 121.053 211.071 121.023 211.059L120.85 211.019C120.797 211.004 120.736 210.995 120.674 210.995L111.716 210.93C111.716 210.93 111.714 210.93 111.714 210.93C111.263 210.93 110.898 211.295 110.898 211.746C110.898 211.89 110.937 212.033 111.01 212.158L111.55 213.09C111.995 213.87 112.804 214.395 113.712 214.486C115.37 214.641 115.81 214.116 116.917 213.288C117.159 213.106 117.476 213.029 117.785 213.081L120.672 213.591C120.802 213.614 120.896 213.726 120.898 213.858C120.963 216.991 116.469 218.021 114.151 218.001C109.935 217.96 107.374 215.941 106.467 211.944C105.861 209.287 106.338 206.125 108.013 203.953C109.68 201.799 112.187 200.971 115.536 201.469C117.539 201.765 119.011 202.657 119.953 204.142C121.297 206.264 121.766 208.506 121.362 210.869ZM111.421 208.241L116.428 208.391C116.432 208.39 116.437 208.391 116.441 208.391C116.652 208.391 116.826 208.222 116.832 208.011L116.84 207.736C116.84 207.75 116.84 207.75 116.84 207.75C116.895 206.166 115.711 204.838 114.196 204.785C114.196 204.785 114.195 204.785 114.194 204.785L113.88 204.777C113.896 204.777 113.895 204.777 113.895 204.777C112.38 204.724 111.106 205.966 111.05 207.55C111.05 207.55 111.05 207.552 111.05 207.552L111.042 207.841C111.042 207.844 111.042 207.847 111.042 207.849C111.042 208.061 111.21 208.234 111.422 208.241H111.421Z" fill="#282829"/>
<path d="M137.385 205.648C137.253 205.689 136.669 205.811 135.632 206.016C134.712 206.194 134.376 206.222 133.597 205.6C132.496 204.731 131.144 204.499 129.539 204.906C129.06 205.029 128.698 205.266 128.453 205.616C128.151 206.065 128.261 206.661 128.694 206.973C129.093 207.274 129.577 207.489 130.145 207.615C131.671 207.96 133.323 208.375 135.099 208.863C136.254 209.186 137.873 210.022 138.342 211.253C138.711 212.236 138.826 213.037 138.689 213.656C138.257 215.602 136.763 217.043 134.72 217.556C131.425 218.38 126.628 218.283 124.294 215.553C123.912 215.107 123.715 214.645 123.705 214.169C123.705 214.164 123.705 214.16 123.705 214.155C123.705 213.884 123.898 213.652 124.165 213.603L126.983 213.078C127.329 213.009 127.705 213.103 127.992 213.337C129.43 214.551 131.079 214.867 132.939 214.285C133.332 214.162 133.695 213.929 134.029 213.587C134.113 213.501 134.16 213.386 134.16 213.266C134.16 213.235 134.157 213.205 134.15 213.175C134.019 212.505 133.567 212.089 132.794 211.928C131.284 211.609 126.127 210.861 124.811 208.838C123.815 207.317 123.708 205.752 124.492 204.142C126.014 201.029 130.48 201.013 133.492 201.461C135.451 201.752 137.171 202.669 137.902 204.563C137.939 204.657 137.958 204.759 137.958 204.861C137.958 205.22 137.727 205.538 137.385 205.648Z" fill="#282829"/>
<path d="M184.717 205.616C184.585 205.659 184.002 205.784 182.969 205.992C182.052 206.174 181.717 206.202 180.934 205.584C179.833 204.72 178.48 204.495 176.875 204.909C176.396 205.033 176.036 205.272 175.793 205.624C175.491 206.066 175.6 206.664 176.035 206.978C176.439 207.279 176.925 207.491 177.493 207.615C179.02 207.954 180.671 208.363 182.448 208.842C183.603 209.157 185.226 209.985 185.698 211.217C186.073 212.197 186.192 212.995 186.057 213.611C185.634 215.557 184.148 217.007 182.104 217.528C178.818 218.364 174.021 218.287 171.679 215.57C171.296 215.125 171.099 214.665 171.085 214.188C171.085 214.184 171.085 214.179 171.085 214.175C171.085 213.905 171.277 213.673 171.541 213.623L174.356 213.082C174.707 213.012 175.084 213.107 175.369 213.341C176.81 214.549 178.457 214.857 180.312 214.265C180.705 214.142 181.067 213.907 181.398 213.563C181.482 213.477 181.528 213.362 181.528 213.242C181.528 213.211 181.525 213.18 181.519 213.151C181.384 212.483 180.931 212.07 180.158 211.911C178.648 211.6 173.492 210.873 172.167 208.859C171.168 207.343 171.057 205.779 171.832 204.167C173.338 201.049 177.8 201.017 180.813 201.453C182.771 201.736 184.491 202.644 185.23 204.53C185.231 204.533 185.234 204.54 185.237 204.547C185.393 204.976 185.173 205.451 184.746 205.606C184.738 205.609 184.729 205.612 184.721 205.615L184.717 205.616Z" fill="#282829"/>
<path d="M222.79 211.063L222.617 211.023C222.564 211.008 222.503 210.999 222.441 210.999L213.483 210.926C213.482 210.926 213.48 210.926 213.479 210.926C213.028 210.926 212.663 211.291 212.663 211.742C212.663 211.885 212.701 212.026 212.772 212.15L213.314 213.086C213.758 213.866 214.567 214.391 215.475 214.482C217.133 214.637 217.573 214.116 218.68 213.288C218.922 213.106 219.239 213.029 219.548 213.081L222.435 213.595C222.565 213.618 222.659 213.73 222.661 213.861C222.726 216.995 218.228 218.021 215.91 217.996C211.694 217.953 209.134 215.932 208.23 211.931C207.628 209.274 208.108 206.113 209.784 203.945C211.453 201.791 213.962 200.964 217.311 201.465C219.314 201.764 220.785 202.656 221.725 204.142C223.068 206.266 223.536 208.51 223.129 210.874C223.109 210.993 223.005 211.081 222.883 211.081C222.851 211.081 222.82 211.075 222.79 211.063V211.063ZM213.245 208.314L218.236 208.33C218.237 208.33 218.238 208.33 218.24 208.33C218.452 208.33 218.623 208.158 218.623 207.946V207.619C218.65 206.09 217.42 204.797 215.877 204.768L215.676 204.768C215.715 204.768 215.714 204.768 215.713 204.768C214.168 204.742 212.893 205.992 212.866 207.562C212.866 207.562 212.866 207.563 212.866 207.564L212.865 207.93C212.865 207.93 212.865 207.93 212.865 207.93C212.865 208.14 213.035 208.311 213.245 208.313V208.314Z" fill="#282829"/>
<path d="M240.864 212.299C241.187 212.878 241.061 213.646 240.484 214.605C239.478 216.271 238.008 217.317 236.075 217.742C233.311 218.348 230.787 217.902 228.504 216.406C228.369 216.316 228.25 216.212 228.149 216.094C226.251 213.946 225.485 211.333 225.851 208.253C226.299 204.49 228.77 201.599 232.598 201.316C235.526 201.102 239.14 201.675 240.375 204.679C240.567 205.145 240.573 205.631 240.395 206.137C240.334 206.307 240.19 206.429 240.017 206.461L236.967 207.046C236.955 207.048 236.943 207.049 236.93 207.049C236.814 207.049 236.72 206.955 236.72 206.839C236.72 206.833 236.721 206.826 236.721 206.819C236.761 206.424 236.305 205.887 235.352 205.209C234.06 204.284 231.67 204.793 230.991 206.303C230.115 208.253 229.812 212.901 232.227 214.14C233.943 215.021 235.825 214.427 236.568 212.598C236.624 212.458 236.73 212.142 236.887 211.649C236.922 211.545 237.018 211.476 237.128 211.476C237.142 211.476 237.156 211.477 237.169 211.479L240.565 212.085C240.691 212.108 240.8 212.186 240.864 212.299Z" fill="#282829"/>
<path d="M245.067 201.332H248.322C248.676 201.332 248.964 201.619 248.964 201.974V217.342C248.964 217.697 248.676 217.984 248.322 217.984L245.067 217.984C244.713 217.984 244.425 217.697 244.425 217.342V201.974C244.425 201.619 244.713 201.332 245.067 201.332V201.332Z" fill="#282829"/>
<path d="M253.325 206.496C253.31 206.493 253.303 206.492 253.295 206.491C252.889 206.404 252.631 206.004 252.717 205.596C252.719 205.59 252.72 205.585 252.721 205.58C253.013 204.309 253.643 203.283 254.609 202.503C256.454 201.013 260.633 201.126 262.89 201.627C265.673 202.244 266.408 204.679 266.412 207.264C266.414 210.698 266.408 212.772 266.391 213.482C266.389 213.548 266.388 213.618 266.388 213.685C266.388 214.092 266.433 214.498 266.521 214.895L267.126 217.568C267.133 217.593 267.136 217.619 267.136 217.645C267.136 217.826 266.989 217.972 266.809 217.972C266.808 217.972 266.808 217.972 266.808 217.972L263.597 217.984C263.596 217.984 263.594 217.984 263.593 217.984C263.326 217.984 263.079 217.841 262.947 217.609L262.249 216.414C262.2 216.328 262.109 216.275 262.01 216.275C261.947 216.275 261.886 216.297 261.837 216.336C259.694 218.097 257.351 218.488 254.807 217.508C252.816 216.737 251.734 215.077 251.875 212.989C252.041 210.579 254.116 209.351 256.264 208.822C256.884 208.669 258.414 208.363 260.855 207.906C261.285 207.822 261.596 207.449 261.602 207.012C261.639 205.007 260.274 204.59 258.582 204.805C257.672 204.918 257.038 205.494 256.68 206.533C256.58 206.831 256.276 207.013 255.963 206.961L253.325 206.496ZM261.514 210.643C261.449 210.48 261.28 210.393 261.117 210.434C260.275 210.627 259.304 210.84 258.203 211.072C257.489 211.222 257.026 211.48 256.814 211.847C256.188 212.917 256.834 214.294 258.001 214.455C259.279 214.633 260.274 214.327 260.985 213.538C261.594 212.86 261.792 211.391 261.514 210.643Z" fill="#282829"/>
<path d="M291.81 205.633C291.678 205.676 291.095 205.801 290.061 206.008C289.145 206.19 288.81 206.218 288.026 205.6C286.925 204.736 285.574 204.511 283.972 204.926C283.493 205.05 283.132 205.287 282.89 205.637C282.588 206.078 282.697 206.676 283.131 206.99C283.536 207.291 284.021 207.503 284.586 207.627C286.112 207.966 287.764 208.375 289.541 208.855C290.696 209.17 292.315 209.997 292.787 211.229C293.161 212.209 293.281 213.007 293.147 213.623C292.722 215.57 291.236 217.015 289.197 217.536C285.911 218.372 281.117 218.295 278.776 215.578C278.394 215.133 278.195 214.673 278.182 214.197C278.182 214.192 278.182 214.187 278.182 214.183C278.182 213.913 278.374 213.681 278.638 213.631L281.453 213.094C281.802 213.024 282.178 213.118 282.464 213.353C283.903 214.559 285.55 214.867 287.405 214.277C287.797 214.154 288.16 213.92 288.491 213.575C288.598 213.464 288.642 213.309 288.611 213.16C288.477 212.494 288.024 212.082 287.251 211.924C285.741 211.613 280.589 210.886 279.264 208.871C278.265 207.355 278.154 205.793 278.929 204.183C280.435 201.066 284.897 201.033 287.905 201.469C289.864 201.752 291.584 202.661 292.323 204.546C292.324 204.549 292.327 204.556 292.329 204.563C292.486 204.993 292.266 205.467 291.838 205.623C291.83 205.626 291.822 205.628 291.814 205.631L291.81 205.633Z" fill="#282829"/>
</svg>
