<svg width="672" height="171" viewBox="0 0 672 171" fill="none" xmlns="http://www.w3.org/2000/svg">
<g clip-path="url(#clip0)">
<path d="M579.55 35.7932H621.439C605.086 13.0612 579.55 0 552.123 0C547.347 0.00628381 542.58 0.415392 537.872 1.22301C528.859 2.75613 520.155 5.75122 512.1 10.091V132.392C512.1 159.308 507.555 170.924 507.555 170.924H543.785C543.785 170.924 543.395 159.521 543.395 132.392V74.7833C555.498 77.064 566.069 84.3171 574.097 91.9338H603.239C587.615 70.2359 568.927 65.2306 543.413 64.8197V10.653C555.38 14.4212 567.921 24.753 579.55 35.7932Z" fill="#2D2D2D"/>
<path d="M292.802 158.388C286.63 158.451 280.51 157.259 274.809 154.884C265.253 150.634 255.538 144.066 246.386 135.386H246.297C227.232 116.871 212.925 90.6686 209.935 65.8541L210.02 65.788C209.874 64.9617 209.761 64.1212 209.663 63.2759C209.479 61.1888 209.371 59.1158 209.352 57.0569C209.503 49.4456 211.555 41.9943 215.321 35.3882C219.087 28.7821 224.446 23.2332 230.905 19.2516C237.364 15.27 244.715 12.9835 252.284 12.6024C259.852 12.2213 267.394 13.7578 274.217 17.0705H274.25C283.223 21.3204 292.294 27.6102 300.877 35.7463H342.588C337.152 28.1558 330.522 21.5052 322.959 16.0553L322.649 15.8286C321.54 15.0416 320.413 14.2798 319.269 13.5432C319.02 13.3826 318.799 13.2173 318.522 13.0709C317.944 12.7026 317.356 12.3438 316.769 11.9943C316.299 11.7252 315.862 11.4654 315.406 11.2057C314.597 10.743 313.779 10.2928 312.952 9.85523C312.482 9.60023 311.974 9.34524 311.481 9.0997C310.842 8.77387 310.193 8.4575 309.544 8.15528C308.896 7.85307 308.134 7.50364 307.434 7.21087C306.889 6.97005 306.344 6.73867 305.798 6.51673C305.253 6.29479 304.609 6.04452 304.012 5.8037C303.21 5.48889 302.401 5.1914 301.587 4.91123C301.079 4.73179 300.572 4.5618 300.064 4.3918C299.233 4.11792 298.397 3.85664 297.554 3.60794C296.957 3.43322 296.36 3.25851 295.758 3.09324C295.157 2.92796 294.508 2.76269 293.878 2.62103C293.333 2.48881 292.778 2.36132 292.228 2.23854C291.288 2.03077 290.395 1.83717 289.465 1.66245C288.929 1.55857 288.388 1.46412 287.843 1.36968C287.067 1.23747 286.292 1.11469 285.493 1.00608C284.694 0.897477 283.961 0.798314 283.19 0.708594L281.624 0.472491C280.576 0.373328 279.528 0.293053 278.471 0.231666C278.104 0.208056 277.737 0.198612 277.371 0.179724C276.214 0.132503 275.058 0.0994486 273.897 0.0947266H273.352C272.149 0.0947266 270.959 0.132503 269.77 0.184446L268.802 0.231666C265.447 0.414486 262.105 0.796062 258.795 1.37441H258.762C248.909 3.06681 239.442 6.53678 230.819 11.6166H230.786L230.744 11.6496C225.254 14.9034 220.154 18.7788 215.543 23.1998L215.51 23.2234C212.988 25.6432 210.613 28.2135 208.398 30.9203L207.928 31.4823C207.383 32.1622 206.842 32.8564 206.316 33.5552C205.691 34.3722 205.089 35.2033 204.497 36.0391L204.069 36.6482C203.599 37.3471 203.129 38.0648 202.659 38.7731L202.504 39.014C199.849 43.1244 197.55 47.4562 195.632 51.9618L195.063 52.7976L195.195 53.0101C187.87 70.8269 186.763 90.6099 192.055 109.139C197.346 127.668 208.724 143.853 224.337 155.059L224.652 155.285C225.758 156.072 226.883 156.834 228.027 157.571C228.276 157.731 228.52 157.897 228.774 158.043C229.352 158.407 229.94 158.77 230.527 159.12C230.997 159.389 231.435 159.648 231.89 159.908C232.705 160.371 233.523 160.821 234.344 161.259C234.814 161.514 235.322 161.769 235.811 162.014C236.454 162.335 237.103 162.656 237.752 162.959C238.4 163.261 239.162 163.61 239.867 163.903C240.407 164.144 240.953 164.375 241.498 164.597C242.043 164.819 242.687 165.069 243.284 165.305C244.089 165.62 244.898 165.919 245.709 166.203C246.217 166.382 246.725 166.552 247.232 166.722C248.066 166.996 248.902 167.257 249.742 167.506C250.339 167.681 250.936 167.855 251.538 168.021C252.139 168.186 252.788 168.351 253.418 168.493L255.068 168.875C255.983 169.083 256.904 169.275 257.831 169.451C258.367 169.555 258.913 169.65 259.453 169.744C260.229 169.876 261.004 169.999 261.803 170.108C262.602 170.216 263.336 170.316 264.106 170.405L265.695 170.571C266.745 170.668 267.796 170.748 268.849 170.811L269.949 170.863C271.105 170.911 272.261 170.944 273.427 170.948H273.972C275.171 170.948 276.36 170.911 277.549 170.859L278.518 170.811C291.925 170.125 304.971 166.206 316.553 159.384H316.585L316.632 159.351C322.208 156.04 327.38 152.087 332.045 147.574L332.092 147.541V147.513C334.498 145.182 336.769 142.715 338.893 140.123L339.363 139.561C339.908 138.875 340.447 138.184 340.98 137.488C341.601 136.671 342.202 135.84 342.799 134.999L343.222 134.395C343.692 133.696 344.186 132.978 344.632 132.27L344.787 132.029C345.257 131.302 345.727 130.57 346.155 129.833H334.583C331.272 138.253 325.517 145.478 318.066 150.57C310.616 155.662 301.813 158.386 292.802 158.388Z" fill="#2D2D2D"/>
<path d="M666.158 0.750808C657.118 2.28985 648.388 5.29278 640.306 9.64245V132.284C640.306 159.261 635.751 170.924 635.751 170.924H671.996V0C670.139 0.203049 667.986 0.439152 666.158 0.750808Z" fill="#2D2D2D"/>
<path d="M405.98 6.95557C405.98 6.95557 403.292 14.61 401.28 20.5693C399.616 25.4566 356.477 154.676 356.477 154.676L350.441 171.009H360.26C360.26 171.009 365.064 156.489 373.13 132.218C378.77 115.218 379.903 111.936 379.903 111.936H436.965C436.965 111.936 437.2 113.103 444.142 132.081C451.94 153.401 449.313 170.995 449.313 170.995H493.214L431.79 0.0708008C431.79 0.0708008 420.678 0.656336 405.98 6.95557ZM383.301 101.775L407.578 29.1256L433.327 101.775H383.301Z" fill="#2D2D2D"/>
<path d="M134.232 15.937L133.917 15.715C132.808 14.9249 131.681 14.1615 130.537 13.4248L129.795 12.9526C129.212 12.589 128.629 12.2301 128.037 11.876C127.567 11.6068 127.13 11.3471 126.674 11.0874C125.865 10.6152 125.047 10.176 124.225 9.74161C123.755 9.4819 123.247 9.23163 122.754 8.98136C122.11 8.66026 121.466 8.34388 120.812 8.03695C120.159 7.73001 119.402 7.3853 118.702 7.09254C118.163 6.85643 117.618 6.62505 117.066 6.39839C116.474 6.15285 115.882 5.92619 115.285 5.69008C114.479 5.37528 113.669 5.07622 112.855 4.79289C112.338 4.58984 111.868 4.41513 111.332 4.24985C110.505 3.97598 109.669 3.71626 108.827 3.47071C108.23 3.30544 107.637 3.11184 107.026 2.95129C106.415 2.79074 105.776 2.61602 105.146 2.47908C104.601 2.34214 104.051 2.21937 103.501 2.09187C102.586 1.88725 101.665 1.69522 100.737 1.51578C100.197 1.41662 99.6562 1.31745 99.1157 1.22774C98.3401 1.09552 97.5599 0.972745 96.7655 0.859415C95.9712 0.746086 95.2332 0.651644 94.4624 0.566647C93.9312 0.505261 93.4048 0.448596 92.8737 0.401375C91.8396 0.288046 90.7867 0.203049 89.7291 0.141662L88.6293 0.0944412C87.4777 0.0424985 86.3167 0 85.1557 0H84.6058C83.4088 0 82.2149 0.0314804 81.0242 0.0944412C80.7045 0.0944412 80.3802 0.118052 80.0841 0.13694C76.7151 0.324822 73.3598 0.707946 70.0348 1.2844H69.9972C60.1468 2.97916 50.683 6.45072 42.0632 11.5313H42.0303L41.988 11.5643C36.4978 14.8244 31.3989 18.7078 26.7919 23.1381V23.1617C24.2577 25.5849 21.8718 28.16 19.6474 30.8728L19.1773 31.4395C18.6352 32.1195 18.0994 32.8152 17.5698 33.5266C16.9494 34.3388 16.3477 35.1699 15.7555 36.0104C15.6098 36.2135 15.4641 36.4118 15.3231 36.6149C14.853 37.3184 14.3595 38.0315 13.913 38.7398L13.7579 38.9853C11.0973 43.0991 8.79201 47.434 6.8672 51.9427L6.30786 52.7501L6.44417 52.9626C2.17975 63.3451 -0.00986934 74.469 3.34399e-05 85.7007C3.34399e-05 114.208 14.0634 139.499 35.5627 154.987L35.8776 155.209C36.9869 156 38.1134 156.763 39.2571 157.5L39.9998 157.972C40.5826 158.34 41.1654 158.699 41.7577 159.048C42.2277 159.318 42.6648 159.577 43.1208 159.837C43.9292 160.309 44.7471 160.753 45.5743 161.188C46.0444 161.447 46.5473 161.698 47.0408 161.943C47.6675 162.258 48.3146 162.573 48.9821 162.887C49.6824 163.218 50.3922 163.539 51.0925 163.832C51.6315 164.068 52.1767 164.299 52.7282 164.526C53.3205 164.767 53.9127 164.998 54.5096 165.234C55.315 165.549 56.125 165.847 56.9397 166.127C57.4426 166.306 57.9503 166.481 58.4626 166.646C59.2899 166.92 60.1265 167.185 60.9679 167.43C61.5648 167.61 62.1665 167.784 62.7681 167.945C63.3697 168.105 64.0184 168.275 64.6482 168.417C65.1982 168.554 65.7481 168.677 66.298 168.8C67.2162 169.007 68.1374 169.199 69.0618 169.376C69.6024 169.479 70.1429 169.579 70.6834 169.668C71.459 169.801 72.2393 169.923 73.0336 170.032C73.828 170.141 74.5659 170.244 75.3368 170.329C75.8679 170.391 76.3943 170.448 76.9255 170.495C77.9736 170.594 79.0265 170.679 80.0841 170.74L81.184 170.787C82.3355 170.839 83.4965 170.872 84.6575 170.877H85.2027C86.4013 170.877 87.5952 170.835 88.7844 170.783L89.7479 170.74C103.156 170.052 116.202 166.131 127.783 159.308H127.816L127.863 159.27C133.44 155.96 138.614 152.007 143.28 147.494L143.322 147.461V147.432C145.74 145.096 148.019 142.619 150.147 140.014L150.617 139.452C151.162 138.772 151.698 138.078 152.229 137.379C152.856 136.56 153.462 135.731 154.048 134.89L154.471 134.291C154.941 133.587 155.435 132.874 155.905 132.166C155.957 132.085 156.004 132 156.06 131.92C159.052 127.286 161.592 122.373 163.646 117.249C170.757 99.4934 171.723 79.8526 166.388 61.4798C161.054 43.1069 149.729 27.0676 134.232 15.937ZM104.065 158.317C97.892 158.372 91.7716 157.173 86.0723 154.789C76.5165 150.539 66.801 143.976 57.6495 135.296H57.5602C38.4957 116.777 24.1879 90.5739 21.1985 65.7641L21.2831 65.698C21.1421 64.867 21.0293 64.0264 20.9306 63.1859C20.7425 61.094 20.6344 59.021 20.6203 56.9622C20.7708 49.3514 22.8239 41.9008 26.5906 35.2958C30.3574 28.6907 35.717 23.1433 42.1763 19.1637C48.6356 15.1841 55.9874 12.9002 63.5553 12.522C71.1231 12.1438 78.6642 13.6835 85.4848 16.9994L85.5177 16.9758C94.4906 21.2257 103.562 27.5107 112.145 35.6468H112.234C130.974 53.8504 145.137 79.4865 148.427 103.923C148.782 106.901 148.986 109.896 149.038 112.895C149.047 137.927 129.014 158.317 104.065 158.317Z" fill="#2D2D2D"/>
</g>
<defs>
<clipPath id="clip0">
<rect width="672" height="171" fill="white"/>
</clipPath>
</defs>
</svg>
